<?xml version="1.0" encoding="UTF-8"?>
<svg version="1.1" viewBox="0 0 2000 2000" width="1280" height="1280" xmlns="http://www.w3.org/2000/svg">
<path transform="translate(989)" d="m0 0 19 1 24 4 24 6 16 7 17 9 17 12 13 11 9 9 9 11 12 17 8 14 10 24 5 16 3 21 1 12v16l-2 27-4 17-7 19-8 18-9 14-14 19-5 5h-2l-2 4-8 8-10 8-11 8-16 9-17 8-24 7-21 4-7 1h-32l-24-4-23-6-18-8-18-10-14-11-14-12-14-15-10-13-13-22-8-20-6-19-4-21-1-14v-14l2-21 6-25 8-22 7-14 8-13 12-16 14-15 12-11 11-8 11-7 22-11 18-6 29-6zm3 52-5 4-2 4-1 11-1 4-5 2-9 6-7 14-1 4v11l4 12 3 7-1 8-8 24-11 27-6 15-7 1h-15l-5-4h-18l-6 3-3 4v6l5 5 16 3 7-3 2-2 19-1-10 30-5 13v7l5 9 1 6v17h3l11-26 9-26 11-26 2-3h24l1 10 4 6h5l2-3 1-14 26 1 4 10 8 23 12 29 6 17 3 1 3-19 4-10v-10l-5-15-6-15-3-12 12 1 8 3 15 1 10-3 3-4-1-8-1-2-11-2h-14l-6 3h-19l-4-6-14-38-10-26v-7l6-10 3-11-2-12-6-11-7-7-9-5-1-2-1-11-3-5-3-3z" fill="#037B0E"/>
<path transform="translate(1799,927)" d="m0 0h34l20 3 23 6 14 5 14 7 16 10 13 10 10 9 5 4 7 8 13 17 6 10 12 23 7 23 6 27 1 5v27l-4 24-7 27-5 12-13 25-7 9-9 12-7 7-8 7-7 7-22 16-23 11-17 6-17 4-19 3-10 1h-17l-24-3-19-4-16-5-25-12-11-8-16-12-20-20-7-9-7-10-12-21-7-16-5-18-4-20-1-7v-33l4-25 6-23 7-15 13-23 10-13 8-10 16-16 11-8 10-7 22-12 13-5 21-6 16-3zm125 66-6 4-6 7-1 9v5l-11 12-25 25h-12l-6 2-13-8-8-6-3-10-3-5-6-3-8-1-9 2-6 5-2 6-1 10-13 10-11 9-3-1h-10l-8 4-2 4h-2l-2 4-2 7-15 8-12 5-5 1-3-2h-13l-6 4-6 10v9l4 8 5 4 7 2 9-1 7-4 4-5 3-9 15-7 12-7h6l4 2h9l8-4 4-5 1-2 1-11 11-9 8-7 3-3 5-1 8 1 8-2 10 6 11 7 5 13 7 6 3 1h10l9-5 4-8 1-6v-6l7-8 9-8 7-8 12-12v-2l4 1h8l8-4 4-5 2-4v-10l-4-7-7-6-2-1zm3 134-10 4-5 7-1 8v5l-10 12-8 7-19 19-9-1-4-1-8-7-16-16-2-1v-13l-5-8-6-4-4-1h-7l-10 5-3 4-1 3-1 11-5 4-8 6-10 9-11-1-9 3-4 3-15-1-14-2-7-10-5-3h-12l-7 4-6 10v9l5 8 5 4 6 2 9-1 6-4 1-1h10l19 3 4 6 4 4 7 4h7l9-4 5-6 1-2 1-11 9-8 16-12 4 1 5 1 4-1 16 15 11 11 1 5v7l3 6 7 6 10 2 9-4 5-4 3-9-1-8 32-32 3-4 14-1 8-5 5-9v-9l-4-8-7-5z" fill="#047B0F"/>
<path transform="translate(166,934)" d="m0 0h33l23 3 17 4 16 6 17 8 12 8 17 12 21 21 10 13 8 13 9 16 7 16 7 28 3 22v24l-4 27-5 20-7 17-13 24-10 13-9 11-12 12-11 9-14 10-20 11-17 6-24 7-17 3-10 1h-19l-24-3-23-6-20-7-13-7-16-10-13-11-12-11-10-10-9-12-7-10-12-23-5-14-5-19-5-25v-32l8-36 6-18 8-16 11-18 10-13 7-8 13-12 9-8 17-12 16-8 19-8 19-5zm13 69-11 8-12 11-8 6-10 9-14 11-14 12-11 9-10 9-9 7-13 11-8 7-10 8-4 4v8l4 5 4 2h6l9-6 12-11 10-8 13-11 9-7 14-12 11-9 10-9 22-18 13-11 4 2 17 14 10 8 13 11 8 7 17 14 11 9 15 13 10 8 15 13 6 3h6l6-5 1-2v-8l-4-5-9-7-9-8-9-7-13-11-11-9-9-8-11-9-13-11-10-8-14-12-11-9-7-6-4-2zm2 40-13 11-14 11-11 10-10 8-13 11-11 9-12 10-8 7-3 3-1 31v62l1 13 2 1h10l1-1 1-69v-29l5-5 14-13 9-7 14-12 11-9 16-13 13-12 5 3 10 9 14 11 10 9 11 9 12 10 10 8 13 12 1 99h11l2-1v-105l-4-5-11-9-13-11-14-11-10-9-9-7-10-9-14-11-11-9zm-42 69-8 6-5 7-1 3v7l4 6 18 18 6 7 5-2 8-8 3-10 6 1v-2l3-1-1-4-26-26-4-2zm97 1-21 5-6 3 6 8 4 2 2 4 6 5 4 4 4-1 5-23v-7zm-33 14-16 15-43 43-1 4 5 6 8 7 3 1 2 4 4 4 4-2 25-25 7-6 7-8 12-11 5-6 3-2-1-4-6-5-7-8-7-7zm7 49-4 9-7 3-11 10 2 4 3 3h2l2 4 7 8 8 7 9 6 6-1 6-4 7-8 2-7-3-8-26-26zm-73 17-8 7-3 6 1 6 7 8 9 8h6l12-10-1-4-7-8-13-13z" fill="#057C0F"/>
<path transform="translate(348,1380)" d="m0 0h38l20 3 25 7 13 5 21 12 14 10 14 12 12 12 11 14 10 15 8 16 9 23 4 18 3 26v19l-3 27-5 20-6 15-9 19-12 18-13 16-10 9-5 5-11 9-18 12-15 7-21 8-19 5-18 2h-37l-22-3-20-6-21-9-13-7-19-14-13-12-6-5-9-11-8-10-12-20-6-13-8-23-5-21-2-16v-23l3-21 5-20 10-27 8-14 10-15 7-9 9-10 4-5 14-11 8-7 15-9 16-9 24-8 23-5zm-5 89-7 4-68 33-1 4 12 5 23 11 16 8 16 7 11 6h6l19-10 16-7 19-10 15-7 7-3-2-4-31-14-16-8-15-7-16-7zm-77 45-1 2v88l5 5 19 10 16 8 20 11 16 8 3 1v-95l-32-16-20-9-16-8zm161 0-25 12-28 13-16 8-9 5-1 16v78h4l16-8 28-15 1-3-3-10v-12l3-10 8-11 9-8 13-4 1-1v-50zm5 55v2l9 2 9 3 5 5 8 7 3 5 1-4-5-5-6-7-2-4-15-4zm-2 2-2 1 1 4 3-2v-3zm-10 1-5 3 1 3 11-5v-1zm-6 6-4 6 1 2 4-4zm-8 6-1 1-3 15-1 7 3 6 2 10 3 4-1 5-6 7-1 7 1 1 9 1 5 5 5 3 6-8 3-7 6-2 4 1 3 7 4 6 2 2h5l3-5v-2l10-1 4-4-6-9-3-5v-4l4-2 2-6h-3l-5 5-5 3-2 6-3 4-1-2-8-1-3 4h-5l-4-4h-6l-2 1-4-2-2-7-5-2-2-4-2-10-1-1v-6l4-16zm23 0-8 5-4 5-2 4v11l3 6 7 7 4 2h12l9-6 4-5 2-3v-11l-6-9-5-4-5-2zm33 10 2 4 3 4 1 4-5 4v3l4-2 4-4-1-7-5-5z" fill="#047B0E"/>
<path transform="translate(1711,495)" d="m0 0h32l25 3 19 5 16 7 21 11 14 10 9 7 12 11 7 7 14 19 10 17 8 17 7 21 3 16 2 16v30l-4 29-6 20-9 19-10 18-8 10-10 13-13 13-13 10-10 7-18 10-15 7-29 8-18 3-10 1h-19l-18-2-22-5-17-5-15-7-16-9-14-10-11-10-8-7-7-7-13-17-9-15-9-17-9-28-4-19-2-26 2-23 4-20 10-30 10-19 7-11 14-18 5-6 8-7 10-9 14-10 14-8 21-10 15-5 15-3zm-39 56-7 1v64l3 2h6l1-1 1-54 138-1v188l-118 1-2 7 3 2 16 1h106l5-1v-168l-1-40-6-1zm162 22-2 3v191l-119 1-1 1v7l2 1 20 1h99l7-2 1-9v-177l-1-15-1-2zm-130 2-4 5-4 10v4l4-1 3-5 2-5v-3h2v12l1 1h6l-5-16-2-2zm17 0-2 1v11l2 5 4 3 7-1 3-6v-12h-4l-1 13-4 1-1-1-1-13zm23 0-1 1v16l3 3 8-1 4-4 1-2v-8l-5-5zm33 0-1 2 3 3h3v14l3 1 1-1v-12l5-3 1-3-1-1zm-11 1v17l4 1v-18zm-70 23v24l11 6 7 6 4 5 2 1h70l1-21v-21zm-28 28-13 2-12 5-13 9-6 8-8 16-2 9v16l3 11 6 12 9 10 10 7 17 7 1 2v51l2 7 6 4 7-1 4-5 1-57 13-5 16-10 7-8 8-16 2-8v-18l-3-11-8-16-3-4h-2l-1-3-11-7-8-4-8-2zm59 22 1 5 3 4h59l1-1v-7l-4-1zm7 16-1 4 2 5h55l1-1v-7l-2-1zm2 17-1 1v6l1 1h54l1-1v-7zm-1 16-3 4-1 5 6 1h53l1-1v-8l-1-1zm-7 16-5 8v2h68v-9l-29-1zm-9 16-8 3-3 4 1 3h82l1-5-1-4-5-1z" fill="#047B0F"/>
<path transform="translate(226,505)" d="m0 0h34l20 3 23 6 21 8 22 13 12 9 13 11 13 14 14 19 9 15 9 21 7 22 3 19 1 11v21l-2 21-4 19-8 22-8 17-12 18-9 12-11 12-11 10-16 12-15 9-25 11-21 6-30 4h-20l-26-3-19-4-20-8-19-9-19-14-14-12-11-11-9-11-7-10-9-15-8-18-8-24-3-14-1-7-1-17v-13l2-21 4-19 7-20 8-18 13-21 8-10 12-13 4-5 20-16 20-12 15-7 24-8 20-4zm58 52-2 9v21l2 5h5l1-2v-31l-2-2zm-31 12-1 4 2 9 9 15 4 4 5-1-1-7-8-16-4-6-3-2zm71 0-4 4-11 18-1 2v7h6l7-8 5-11 2-6v-5zm-103 26-1 3 3 5 13 8 10 5h5l1-1v-5l-7-6-16-8zm61 4-11 3-11 7-7 10-1 5 19 1 11 12 9 11 11 11 7 6 4-2 7-9 4-14v-9l-4-13-6-8-8-6-10-4-6-1zm68 0-16 8-7 4-3 4v5l9-1 22-13 1-5-2-2zm-8 33-9 3v5l3 1h13l17-1 2-1-1-5-6-2zm-86 5-11 2 4 6 11 14 10 10 7 1 15-3-1-4-11-13-9-11-3-2zm-44 3-12 2 1 4 14 17 7 10 4 4 27-5-1-4-7-9h-2l-2-4-13-14-2-1zm-28 10-19 19-7 8-14 14-7 8-7 7v2h-2v2l-4 2-5 5v9l2 4 9 2v59l2 2 27 6 57 14 24 4 1-6 1-23v-37l16 1 1 64 4 1 14-9 13-10 13-9 10-8 1-6 1-44 3-3 10-4 3-5v-8l-7 1-28 11-20 7-15 6-3 1-2-5-8-11-12-14-9-11-12-14-7-8-13-15-8-9zm141 5-1 5 9 7 12 7 6 2h5v-6l-5-4-15-9-6-2zm-33 17-18 3 1 4 11 13 8 10 8 8 4 1 15-5 3-3-8-10-8-8-7-9-5-4zm-35 8-21 5 2 5 13 15 13 16 4 4 10-3 13-5 1-4-7-8-11-14-9-10-2-1z" fill="#047C0F"/>
<path transform="translate(1611,1354)" d="m0 0h33l23 3 17 4 20 8 16 8 22 15 15 14 7 6 10 13 6 8 15 26 6 16 7 26 3 21v28l-3 21-6 23-6 16-10 19-7 11-10 13-11 12-8 8-11 9-13 9-22 12-27 9-22 5-16 2h-22l-22-3-23-6-17-6-16-8-16-10-12-10-8-7-14-14-15-20-12-23-7-16-6-24-3-18-1-12v-13l3-24 7-29 6-15 13-24 13-18 9-10 10-9 7-7 18-13 17-9 21-9 19-5zm10 81-40 4-28 4-20 4-4 4-1 2v84l3 15 7 18 6 11 9 10 8 10 16 13 17 10 19 9 9 3h12l16-6 25-13 13-10 13-12 9-10 6-10 8-16 4-15 1-10v-78l-2-7-8-3-34-6-39-4z" fill="#037B0E"/>
<path transform="translate(509,151)" d="m0 0h33l21 3 19 5 21 8 12 6 14 9 12 9 10 9 8 7 11 13 14 21 8 16 7 16 5 16 3 18 1 10v32l-2 21-5 19-8 20-8 16-10 15-10 13-6 7-8 7-13 12-23 15-20 9-23 8-19 4-23 2-24-1-18-3-21-6-24-10-14-8-17-12-8-8-8-7-8-8-9-11-10-15-9-16-9-25-5-19-3-19v-30l3-20 6-22 7-19 9-17 12-18 11-13 6-7 10-8 7-7 18-12 19-10 25-9 17-4zm-32 50v200l-4 1v-200l-6 2-25 15-19 12-2 2v169h-11l-1 1v8l2 2h148l-3 5v5l6 5 2 1-1 4-7 11-4 6 1 5 4 1h12l2 6 5 6 4-1 12-19 2-1h8l6 9 8 11 4 1 5-8 1-3 3-1 13-1 2-3-5-9-7-11-1-4 5-1 4-5-3-7-1-5 8-6 1-4-4-6-5-4 1-5 2-2-1-6-7-4-6-1-1-10-1-2h-16l-1-71-19-7-19-6-1-43-12-5-30-11-17-6-25-9z" fill="#047B0E"/>
<path transform="translate(731,1623)" d="m0 0h32l25 4 21 6 22 9 21 13 9 7 14 12 8 8 9 11 14 20 8 16 8 21 5 17 3 21v38l-3 19-5 17-8 21-9 17-12 17-9 11-16 16-11 9-17 11-16 8-17 7-17 5-20 3-17 1h-11l-26-2-19-4-19-7-20-9-22-15-13-12-5-4-7-8-10-11-10-16-6-10-6-13-8-22-4-17-2-16v-31l3-23 6-21 10-24 7-12 7-10 6-9 9-10 5-6 8-7 10-9 10-7 19-11 16-7 18-6 17-4zm65 32-3 1-4 5 1 7-1 5-1 3 4 7v2l-4 2-3 4-1 9 3 5 6 2h55l5-2 2-2 1-9-2-5-11-8-7-6-14-4-7-4-6-4v-2l2-1 2 4 3 1-2-5-3-1-1-3-5-1 3 3-11 1-5 5 1-3 4-3zm20 10m-28 2-1 4 3-3zm-143 33-6 4-4 5-5 9-6 8 1 7 7 6 7 1h10v132l-7-4-6-1-7 3-2 3-10 2-5 6v9l-2 3v5l13 11 5 1v-14l5-1 1 3-2 3v13l-1 10h16l1-1 201-1 1-9-1-1-12-1-2-1 1-11 6-4 1-6-3-3v8l-6 1 1-41 2 3 4-1 2-7h-8v-38l-1-14-29-9-9-3-1-41-4-4-69-25-17-6v99l1 103h-4l-1-200-5 1-8 5-4-4-4-5-7-3-18-5zm209 136-2 2 1 4 5-2v-3zm-8 4-2 1 1 6h5l-1-6zm15 8-1 5 3 2 2-4-2-3zm-9 5v11l4-2 3-5h-3l-1-4zm17 3-4 4v2l5-1 1-4zm-22 8-3 1v6l4 1 2-4v-3zm29 1v3h2v-3zm-17 1 1 6h3v-6zm-6 6 1 5 3 7 4-4 1-3h-5l-3-5zm15 1-3 9v7l1 5-4 3 1 3 5-5 1-4-1-4v-7l2-4v-3zm12 0-2 1 1 5 4-1-1-5zm-3 3 1 2zm-30 1-3 3v3l3 1 2 10 2 1v-7l-2-11zm28 2-1 5 2-2zm5 6-5 3 1 3h5l3-4v-2zm-23 3-1 1 1 7 3-1 1-6zm-13 8 1 3 5 5 2 4v14l1 1h6l1-5v-16l-5-1-1-2-5-1zm26 1-1 4 7-1v-3z" fill="#047B0E"/>
<path transform="translate(1433,154)" d="m0 0h15l18 2 18 4 21 7 16 8 16 10 13 11 10 9 11 12 12 17 12 23 8 20 5 21 2 21v18l-3 24-5 18-9 21-7 14-11 16-11 13-12 12-18 13-16 10-11 5-22 8-16 4-15 2h-35l-19-3-19-6-22-9-10-6-17-12-13-12-9-9-9-11-7-10-10-18-5-11-5-15-5-20-3-26 1-20 3-19 6-21 6-16 12-21 8-11 4-5 5-5 7-8 22-18 17-10 19-9 23-7 22-4zm6 46-20 9-16 8-20 9-27 13-22 10-2 2-1 11v52l2 6 3 2 5 1 48 4 31 3 15 1h24l36-3 39-6v-2l-2-1h-27v-14h29v-4l-24-2h-5v-15l10 1 14 3h6v-3l-23-7-7-2-1-15 27 9h4v-3l-26-10-12-4-12-7-23-9-16-7-2-1v-19l13 5 23 11 12 7h3l-1-6-14-9-13-7-17-10-3-1zm65 147-53 6-74 8-41 5-6 3-3 7v8l3 6 5 3 8 2h21l89-6 44-2 18-3 12-5 5-4 4-7 1-5v-9l-2-4-15 1-8-4zm-32 44-66 3-17 2v2l11 4 27 8 25 7 34 11 15 3 10-1 8-4 5-6 3-5 1-10-4-2h-7v3l5 3-1 6-3 4v2l-4 2-5 3h-13l-6-4-4-8v-10l5-6 5-2 8 1 3 5v7l-10-2v-3l9 1v-3l-3-2h-8l-3 3-1 6 3 7 10 1 6-3 3-5v-7l-3-6-6-4-8-1z" fill="#047C0F"/>
<path transform="translate(1219,1629)" d="m0 0h29l25 4 23 6 18 8 17 9 12 9 16 13 16 16 13 18 10 18 10 25 4 13 4 22 1 11v24l-3 22-6 22-11 27-10 17-10 14-12 13-11 11-19 14-16 9-19 9-24 7-31 6h-23l-30-6-19-5-13-5-22-11-19-14-10-8-7-8-9-9-11-15-11-18-12-29-4-14-4-29v-25l3-26 4-16 12-29 8-14 11-16 9-10 13-14 9-7 13-10 16-9 19-9 26-7zm12 68-4 5-15 7-31 12-18 6-39 1-4 4-1 6v156l2 5 7 2h28v49l4-2 6-9 11-13 5 5 3 4h2l2 5 8 10h2v-49h87l57-1 5-5v-159l-2-6-4-2-45-1-15-5-13-6-25-11-3-1-2-4-4-3z" fill="#047C0F"/>
<path transform="translate(1128,753)" d="m0 0h5l6 38 5 43 2 22 1 18v49l-2 30-4 27-4 22-6 20-10 25-7 13-10 16-9 11-12 13-5 5-1-2-2-18-6-28-5-14-11-21-8-11-18-18-4-3 2-9 10-28 15-35 11-26 2-6-7 11-13 21-6 9-12 23-6 12-7 16-7-4-24-16-23-12-16-7-13-5v-1l9 1 15 5h4l11-29 8-16 10-17 10-14 8-11 12-14 5-7h2v-2l8-7 8-8 10-8 12-10 13-10 18-12 18-11 17-9z" fill="#378734"/>
<path transform="translate(1147,1741)" d="m0 0h182l6 4 1 2v133l-1 5-4 3h-131l1-7 8-10 6-12 1-5v-14l-3-10-6-9-8-7-8-4-4-1h-19l-11 4-8 6-6 7-3 6-1 5v20l3 9 9 11 6 7v3l-2 1h-18l-4-2-1-3-1-85v-33l1-22 2-1zm29 21-3 3 1 2h146v-5zm-32 18 1 4 3 1h171l1-5zm67 17 1 4 1 1h106l1-4-1-1zm17 18-1 2 2 3h90l1-5zm62 28-7 3-7 6-5 9 1 3 4-1 5-9 2-2-1 6-4 11v5l4 1 2-1 1-6 4-2 4-5 2-1 1 8 6-1 4-2h10v-5l-12-1 3-6-3-2-6 1-8 4 2-5 3-4v-3z" fill="#097D13"/>
<path transform="translate(1543,1491)" d="m0 0h170l1 1v43l-2 14-7 16-11 16-5 6-16 14-10 6-12 7-16 6-9 1-16-5-17-9-17-12-13-13-9-14-7-14-4-13-1-8v-40zm142 7-11 11v2l-4 2-5 4-9 11-2 1v2l-4 2-5 4-7 8-13 12-2 5-8-6-31-31h-4l-8 10 2 5 10 10 6 5 7 8 11 10 7 8 5 5 4-2 8-8 7-8 15-15 8-7 8-9 8-7 13-14 3-2v-2h2l1-3-7-9z" fill="#077D11"/>
<path transform="translate(985,1014)" d="m0 0 6 5 9 12 11 16 10 17 9 17 10 24 9 24 6 21 8 36 4 23 1 1 6-21 8-18 11-20 12-15 7-8 16-16 12-8 11-8h3l-2 4-14 14-10 13-9 13-9 14-12 23-8 17-9 29-5 21-3 21-2 30-7 1-16-1v-11l1-12 1-27-2-39-4-36-6-29-8-31-11-31-9-21-13-25-11-16z" fill="#0C7F16"/>
<path transform="translate(1664,637)" d="m0 0h13l10 2 8 4 10 9 7 10 3 7 1 5v19l-2 8-5 10-10 10-8 5-11 3-6 1h-10l-14-3-9-6-7-7-7-12-3-12v-15l3-11 4-7 9-10 10-6 8-3zm32 26-8 4-15 15v2h-2l-5 5-5 2-14-9-6-1-2 3v6l7 8 7 6 7 4 7-1 7-5 7-8 9-8 9-11 3-4-1-5-3-3z" fill="#077D11"/>
<path transform="translate(1605,1451)" d="m0 0h47l41 5 20 4 1 1v14l-1 1h-170l-1-3v-10l1-3 20-4z" fill="#057C0F"/>
<path transform="translate(1196,1192)" d="m0 0 6 2-2 12-6 27 30-4 9-1-1 5-10 4-9 2-19 3-2 5-4 29v9l3 4-1 5-1 1h-7l-4-6-1-9 7-37-7 2-3 6-12 14-7 6-8 4-7 1-8-3-6-7-12 13-10 6-6 1-5-3-4-9v-9l5-15 10-16 9-9 8-4h10l5 4 1 3v8l-2 11v8l2 9 3 1h7l8-4 12-11 2-3v-3l-4-3v-5l4-1 13-1 4-1 7-38zm-77 39-7 4-6 9-6 13-2 9 1 9 7-1 10-6 5-6 5-12 2-6v-13z" fill="#3D8B3B"/>
<path transform="translate(599,354)" d="m0 0 1 4 6 6 11-2 4 2 2 9 9 3 5 4-4 10 5 5 3 4-1 4-5 4-1 7 3 6-1 3-5 2-7 1-1 1-2 10-5 2-6-3-5 1-5 7-5-1-4-5v-2l-8 1-4 2-4-1-2-5-2-7-10-2-2-2 1-6 3-3-2-5-7-5 1-5 4-4 4-3-1-5-2-2 1-5 1-2 9-2 1-1 2-10 7-1 6 2 5-2 2-4zm-3 20-9 2-9 6-5 8-2 6v8l2 7 6 8 7 6 5 2h14l9-5 6-7 4-8v-12l-4-9-7-8-7-3z" fill="#0C7E15"/>
<path transform="translate(931,1221)" d="m0 0h10l4 5 1 2v9l-2 13 1 10 4 5h7l8-4 15-14 6-7 3-1 3-8 4-5 4-1 1 3-1 15v21l2 10 4 1 9-4 11-8 11-12 7-8 4-3 1 2-7 12-9 12-11 12-9 7-6 2-7-1-5-4-5-12-1-5v-23h-2l-1 5-4 7-7 9-11 9-6 3-9 1-6-3-5-5v-2l-5 3-7 8-8 6-7 3-6-1-4-6-2-6 1-10 3-10 9-16 10-11zm-3 10-6 4-6 7-7 16-2 11 1 6h6l11-7 6-7 5-12 1-6v-12z" fill="#448F42"/>
<path transform="translate(834,1804)" d="m0 0h2v43l6-1v-2h3l1 2 4 1-2-6-2-2 5-2 3-3h4l1 6-2 3 1 5-1 5h2v-5l1-1h5l4 7 4 4-1 5 5-1 3 2v6l3 1 1 8-2 2 2 4-5 2-4 1 1 2h5l2-1-2 4-5-1 2 4-1 5-2 1-10 1-4 1-1 4-1-5-5-2v-2l-4 1-5-3 6 7 2 4v15l-8 1h-150l-47 1-3 1-14-1v-1l16-1 1-1h201v-9l-12-1-3-2 1-11 5-4h2v-6l-1-1-1 6-6 1v-43l3 4h4l1-6-7-1zm20 32-2 2 1 4 5-2v-3zm7 12-1 5 3 2 2-4-2-3zm-9 5v11l4-2 3-5h-3l-1-4zm17 3-4 4v2l5-1 1-4zm-22 8-3 1v6l4 1 2-4v-3zm29 1v3h2v-3zm-17 1 1 6h3v-6zm-6 6 1 5 3 7 4-4 1-3h-5l-3-5zm15 1-3 9v7l1 5-4 3 1 3 5-5 1-4-1-4v-7l2-4v-3zm12 0-2 1 1 5 4-1-1-5zm-3 3 1 2zm-30 1-3 3v3l3 1 2 10 2 1v-7l-2-11zm28 2-1 5 2-2zm-18 9-1 1 1 7 3-1 1-6zm13 9-1 4 7-1v-3z" fill="#458F43"/>
<path transform="translate(831,1193)" d="m0 0h13l14 3 8 5 5 7 2 7-1 10-6 9-9 9-8 5 5 5 10 9 14 11 11 9 2 2v3l-7 1-8-2-11-8-11-10-16-14-13-1-1-1v-6l7-3 11-4 12-7 5-4 3-5 1-5-3-7-5-5-6-3-6-1h-10l-14 2 3 11v15l-4 26v23l1 8-10-1-1-2v-18l3-37v-20h-9l-1-4 7-6 11-4z" fill="#408D3E"/>
<path transform="translate(427,1564)" d="m0 0 5 2h3v2l4 1h-7v2l9 1 9 3 5 4 6 7 4 4 1 2-1-5-9-8-2-6 4 2 3 5v2l4 1 3 3 3 13 1 2v7l-2-1-1-7-4-4h-2l5 6 1 4-5 4-1 3 6-4-1 8-3 1-5 5-4 2-2 6-4 5-1-3h-8l-3 4h-5l-4-4h-6l-2 1-5-3-1-6-5-2-3-5-2-10-1-1v-6l4-16h-2l-3 15-1 7 3 6 2 11-3-1-2-13h-2l-1-2v-8l2-4 1-9 1-3-5 5-2-1 8-11 10-9zm3 7-2 1 1 4 3-2v-3zm-10 1-5 3 1 3 11-5v-1zm-6 6-4 6 1 2 4-4zm15 6-8 5-4 5-2 4v11l3 6 7 7 4 2h12l9-6 4-5 2-3v-11l-6-9-5-4-5-2z" fill="#087C11"/>
<path transform="translate(993,141)" d="m0 0 5 1 6 13 11 27 7 20-1 4h-20l-1-1-1-12-1-2h-7l-2 14-1 1h-21l1-6 8-21 7-19 7-16z" fill="#097D13"/>
<path transform="translate(920,964)" d="m0 0 1 4-1 10v40l4 30 7 30 6 17 8 17 9 15 11 14 8 9 8 7 8 6 17 9 12 6v1l-10-1-15-6-15-8-10-8-16-15-8-10-8-13-8-17-8-24-4-22-1-9-1-28 1-23 3-25z" fill="#398937"/>
<path transform="translate(807,1671)" d="m0 0h7l8 3 11 2 6 4 4 6 8 4 2 3v8l-3 3-3 1h-53l-6-2-1-2v-8l5-6 4-2-1-5 3-5 4-3 2 2zm-5 4-3 4 1 2 3-3z" fill="#097D13"/>
<path transform="translate(1225,1707)" d="m0 0 2 4 2 5 5 1 5-2 2-7 5 1 35 15 9 3v1l-6 1h-107l-6-1 3-2 26-9z" fill="#1A8522"/>
<path transform="translate(647,1703)" d="m0 0h9l19 5 5 4 4 7v2l-19 11-11 6-19-1-6-4-2-5 4-7 4-2v-6l4-6 5-3zm-5 4-1 7 2-3z" fill="#027B0D"/>
<path transform="translate(1765,575)" d="m0 0h7l2 2h3v2l5 1v14h3v-13l6-2-1 4v13l1 3h-94l-2-2v-8l2-5 1 3-2 7 5-3 4-11h2l1 12h5l-4-11v-3l6 2h3 1l2 11 4 3 7-1 2-5 1-11 5 1 1-2h2l1 18h7l6-2 2-12h1v10l1-1 1-10zm1 1v17l4 1v-18z" fill="#3F8B3C"/>
<path transform="translate(491,252)" d="m0 0 8 1 26 7 26 8 7 3v1l-13-1-1 131-3 1-1-2-1-132-5 2-1 1h-9l-29-6-4-2z" fill="#5A9C58"/>
<path transform="translate(719,1760)" d="m0 0 10 2 39 12 17 5 1 2-13-1-1 131h-4l-1-131-3-1-4 2h-9l-28-6-4-2z" fill="#469043"/>
<path transform="translate(1177,1824)" d="m0 0 5 5 2 5 9 3 7 3-1 4-6 5-1 3-1 14-3 1-9-3-15 3-2-1 1-11-3-7-4-5 1-4 13-5 6-9z" fill="#0F8018"/>
<path transform="translate(1443,240)" d="m0 0 8 1 42 15 2 2v15l-14-2-25-6-13-5-1-1v-16z" fill="#0C7F16"/>
<path transform="translate(997,1225)" d="m0 0h2l1 3-1 15v21l2 10 4 1 9-4 11-8 11-12 7-8 4-3 1 2-7 12-9 12-11 12-9 7-6 2-7-1-5-4-5-12-1-5v-26l3-8 4-5z" fill="#3D8B3B"/>
<path transform="translate(266,1507)" d="m0 0 2 3 15 6 19 9 16 8 16 7 11 6h6l2-1 5 2-4 3-4 2-1 16v78l5-1-2 3h-9l1-96-5-2-21-10-15-7-29-14-7-4-2 1z" fill="#67A465"/>
<path transform="translate(1443,271)" d="m0 0 13 1 26 5 11 3 1 1v16l-41-4-10-2-1-1v-17z" fill="#0D7F16"/>
<path transform="translate(1450,302)" d="m0 0h16l22 1 5 1 1 2v14l-18 1h-33l-1-8v-10z" fill="#0A7E14"/>
<path transform="translate(994,90)" d="m0 0 9 2 7 6 2 5v7l-4 7-6 5-2 1h-10l-6-3-4-5-2-9 3-9 5-5z" fill="#087D12"/>
<path transform="translate(704,1711)" d="m0 0h1l1 97v103l-4 1-1-1v-115l1-4v-71l1-9z" fill="#E2EDE1"/>
<path transform="translate(1171,1813)" d="m0 0h15l9 4 8 6 6 9 2 5 1 12-2 10-4 8-7 7-8 5-7 2h-16l-7-3-8-7-6-8-3-8-1-5v-9l3-9 6-8 8-7zm2 3-11 4-8 7-5 8-2 9 1 12 4 8 7 8 8 4 3 1h14l8-3 10-8 6-12v-15l-5-9-5-5-9-7-5-2z" fill="#559B54"/>
<path transform="translate(719,1737)" d="m0 0 9 2 33 10 23 8 1 1v10l-9-2-30-9-26-8-1-1z" fill="#0C7E15"/>
<path transform="translate(491,228)" d="m0 0 9 2 55 17 2 2v9l-8-1-25-7-32-10-1-1z" fill="#0B7D14"/>
<path transform="translate(1505,351)" d="m0 0 8 1 5 3 1 4 7-4h6v7l-3 9-6 7-6 2h-11l-7-4-4-7-1-7 3-6 5-4zm1 5-5 4 1 7 5 5h7l5-3 2-4-1-4-4 1 1-3-5-3z" fill="#428D3F"/>
<path transform="translate(1404,222)" d="m0 0 3 1-1 17-4 3-15 6-11 3-1-3v-13l10-6z" fill="#108019"/>
<path transform="translate(1397,276)" d="m0 0h9l1 1v16l-4 2-16 2h-10l-2-1-1-11 1-3 7-3z" fill="#108019"/>
<path transform="translate(1404,249)" d="m0 0h3v18l-8 3-16 3h-7l-1-1v-13l4-3z" fill="#0A7D13"/>
<path transform="translate(1388,303)" d="m0 0h13l6 2v15l-1 1-7 1h-11l-11-1-2-2-1-11 4-4z" fill="#14831D"/>
<path transform="translate(985,1014)" d="m0 0 6 5 9 12 11 16 10 17 9 17 10 24 1 4-2 3-2-1-2-5h-3l-1-8h-2l-2-5v-6l-3-1 1 7-2-3-11-28-15-29-11-16z" fill="#2E8D34"/>
<path transform="translate(427,1564)" d="m0 0 5 2h3v2l4 1h-7v2l-4 1 1 5-9 4-9 10-3 10-1 4 1 4h2v9l4 4v2l-4-1-3-5-2-10-1-1v-6l4-16h-2l-3 15-1 7 3 6 2 11-3-1-2-13h-2l-1-2v-8l2-4 1-9 1-3-5 5-2-1 8-11 10-9zm-7 8-5 3 1 3 11-5v-1zm-6 6-4 6 1 2 4-4z" fill="#479245"/>
<path transform="translate(719,1760)" d="m0 0 10 2 39 12-1 3h-3v2l-4 2h-9l-28-6-4-2z" fill="#0A7D13"/>
<path transform="translate(491,252)" d="m0 0 8 1 26 7 13 4v3l-5 1v4h-9l-29-6-4-2z" fill="#087C11"/>
<path transform="translate(1791,699)" d="m0 0h1v26l-1 2 1 8-1-4h-76l3-3h4v-6l1 2h68v-9h-29v-1l21-1 2-1v-3l5-2z" fill="#358733"/>
<path transform="translate(1811,561)" d="m0 0 4 1v188l-1 1h-118v-1l116-1 1-5v-181l-3 1-4-2z" fill="#378634"/>
<path transform="translate(917,1022)" d="m0 0 2 1 1 25h2l2 10 2 8 2 9v4l5 9-1 2-2 1 2 1 1 7-1 3 3 2 3 11 3 3v2l-5-2-8-17-8-24-3-15-1-30z" fill="#198320"/>
<path transform="translate(1203,1758)" d="m0 0h74l31 1 10 1 2 2-144 1-2 2-2 1v-4l3-2z" fill="#3B8938"/>
<path transform="translate(691,1785)" d="m0 0 3 1-1 11-10 4-26 10-3-1v-9l3-3 27-10z" fill="#077C11"/>
<path transform="translate(460,325)" d="m0 0h5v12l-5 2-28 5h-5l-1-1v-8l2-2z" fill="#0B7D14"/>
<path transform="translate(476,287)" d="m0 0h1l1 39v75l-5 1v-96h1l1-18z" fill="#F0F5F0"/>
<path transform="translate(690,1761)" d="m0 0h4v9l-2 4-28 12-9 3-1-1v-9l32-16z" fill="#0B7D13"/>
<path transform="translate(463,228)" d="m0 0h3v10l-3 3-27 14-10 3v-10l19-10z" fill="#12811B"/>
<path transform="translate(689,1810)" d="m0 0h4v12l-6 2-25 7-7 1-1-8 1-3 21-7z" fill="#12801B"/>
<path transform="translate(461,301)" d="m0 0h4v12l-28 8-10 2-1-7 1-4 24-8z" fill="#0E7F17"/>
<path transform="translate(691,1737)" d="m0 0h3v10l-5 4-32 16h-3v-9l3-3 14-7 18-10z" fill="#097C12"/>
<path transform="translate(459,374)" d="m0 0h6v12l-21 2h-18v-10l1-1z" fill="#0A7D13"/>
<path transform="translate(463,276)" d="m0 0h2v13l-24 8-11 4h-4v-9l5-3 27-11z" fill="#0E7F17"/>
<path transform="translate(461,253)" d="m0 0h5l-1 11-8 4-24 10-7 2v-9l3-3z" fill="#087C11"/>
<path transform="translate(1721,761)" d="m0 0h78v1h-30v4l61 1v1h-117v-1h6v-2l2-2z" fill="#368633"/>
<path transform="translate(462,349)" d="m0 0h3v12l-16 3-14 2h-9v-10l21-4z" fill="#0E7F17"/>
<path transform="translate(1344,304)" d="m0 0h19l2 1 1 6v8l-1 1h-17l-9-1-3-3v-8l3-3z" fill="#027B0D"/>
<path transform="translate(1360,283)" d="m0 0 5 1v14l-5 2-11 1h-12l-1-2v-9l3-3 13-3z" fill="#0B7E14"/>
<path transform="translate(1363,240)" d="m0 0 3 1-1 14-6 4-15 5-7 1-1-1v-10l3-3z" fill="#0D7E16"/>
<path transform="translate(266,1507)" d="m0 0 2 3 15 6 19 9 16 8 16 7 8 5 1 3-11-3-14-5-15-7-29-14-7-4-2 1z" fill="#419746"/>
<path transform="translate(688,1834)" d="m0 0h5l1 2-1 10-9 2-23 5h-6v-10z" fill="#0C7E15"/>
<path transform="translate(686,1859)" d="m0 0h7v12l-27 4-6 1-3-2v-2l-4-1 1-5 5-2z" fill="#118019"/>
<path transform="translate(1362,262)" d="m0 0h3v15l-13 4-10 2h-5l-1-2v-10l5-3z" fill="#0E7F17"/>
<path transform="translate(1242,1795)" d="m0 0h76l3 1v7l-4 2-103-1-5-3v-4l2-1zm-31 2 1 4 1 1h106l1-4-1-1z" fill="#388735"/>
<path transform="translate(627,433)" d="m0 0 4 2 6 11 3 3-1 3h-15l-3 9-2 3h-2l-11-19 1-3 15 1h2z" fill="#1C8523"/>
<path transform="translate(565,433)" d="m0 0h2l4 8v2h10l7-2 1 4-8 17-2 2h-3l-4-8-1-4h-15l1-4 6-9z" fill="#17831F"/>
<path transform="translate(1510,384)" d="m0 0h5l-3 1v2l-5 2-4 3h-31l-48 2h-23l-1-2 6-1 47-3 44-2z" fill="#428D40"/>
<path transform="translate(476,200)" d="m0 0 3 1h-2v86l-1 1-1 25h-1l-1-7-1-105z" fill="#5F9E5C"/>
<path transform="translate(1186,1250)" d="m0 0 2 1 1 7-1 27 3 4-1 5-1 1h-7l-4-6-1-9 5-23 3-6z" fill="#3C8939"/>
<path transform="translate(800,1305)" d="m0 0h205l27 1v1h-228z" fill="#FEFEFE"/>
<path transform="translate(137,1198)" d="m0 0 4 1 15 16-2 4-5 4-7-1-10-10-1-2v-6l4-5z" fill="#108019"/>
<path transform="translate(662,1882)" d="m0 0 3 2 28-2v13l-23 2-3-1-3-8z" fill="#12811A"/>
<path transform="translate(920,964)" d="m0 0 1 4-1 10v40l4 30 5 22v2h-2l-3-8-2-16h-2l-1-3-1-22-1 9v23h-1l-1-9-1-28 1-23 3-25z" fill="#469044"/>
<path transform="translate(1791,600)" d="m0 0h1v40l-1 3-5-1v2l-5-1h-11l-7 1h-8-3-2v-2l-5 2h-3v2l4-1 4 1 29 1 7 1v1h-59l-1 2v-3l6-1 4-1 1-3h-4l-6 1-1 2-3-5h67v-21z" fill="#51964E"/>
<path transform="translate(1205,1833)" d="m0 0 5 5 1 19-5 10-7 7-8 5-7 2h-16l-7-3-8-7-3-4 7 2 7 5 6 2h14l8-3 9-7 6-12v-15z" fill="#64A262"/>
<path transform="translate(1496,395)" d="m0 0 8 1 3 3 1 6-1 4h-7l-4-2 1-4 8 1-2-3h-10l-1 8 2 6 10 1 3 1h-2l-1 3-7 1-4-2-3-4v-7h-2l1 9 3 5 3 2h11l6-1-1 3-2 1h-13l-6-4-4-6-1-3v-10l6-7z" fill="#489447"/>
<path transform="translate(948,1329)" d="m0 0 9 1 5 5v19l-4 6-3 2-6 1-8-4-1-2 6 1 5 1 7-4 2-4-8 3-6-1-5-5-1-10 3-5zm1 3-5 4-1 2v7l4 5 5 1 4-2 2-3v-9l-5-5z" fill="#F1F6F1"/>
<path transform="translate(458,1629)" d="m0 0h2l3 6 5 6v3l-2 1h-9l-4 7-3 1-4-5-4-7 1-4 5-1 3 1 5-3z" fill="#4A9448"/>
<path transform="translate(1733,669)" d="m0 0 2 3v2l56-1v9l-56 1v-4h48l1-2h-48l-3-2z" fill="#5E9E5C"/>
<path transform="translate(1196,1192)" d="m0 0 6 2-2 12-4 18h-2l-2 7h-3l-1-2v-7l5-27z" fill="#2A8B30"/>
<path transform="translate(410,1631)" d="m0 0h2l5 5 3 2-1-4h2v3l5-1 3 1-2 6-3 8-6 1-3-5v-3l-2 1-9-1-1-2 6-9z" fill="#559852"/>
<path transform="translate(1505,351)" d="m0 0 8 1 5 3 1 4 3 1-6 4-4-2 4-1 1-2-5-2h-6l-4 3 1 7 4 4v2h-6l3 3 7 2 6 1v1h-11l-7-4-4-7-1-7 3-6 5-4z" fill="#61A05F"/>
<path transform="translate(1129,1321)" d="m0 0h2v10l6-2 7 1 5 6v11l-4 6-4 2-6-1-6-2-1-1v-27zm8 11-5 4-1 9 3 5 7 1 5-6v-8l-5-5z" fill="#DDEADD"/>
<path transform="translate(1735,689)" d="m0 0h56v10h-57l1-4h48l4-2-1-1-46 1-5-1z" fill="#589A55"/>
<path transform="translate(1016,1070)" d="m0 0 3 1 1 5 2 1 1-4 3 1 8 16 7 18-2 4-2-1-2-5h-3l-1-8h-2l-2-5v-6l-3-1 1 7-2-3-7-18z" fill="#3A8A38"/>
<path transform="translate(900,1321)" d="m0 0h3l1 10v19l-2 3-6 2-7-1-4-4-1-3v-10l4-6 6-2 6 1zm-9 12-4 4-1 6 3 7 6 2 5-4 1-2v-8l-3-5z" fill="#ACCFAD"/>
<path transform="translate(1702,1458)" d="m0 0 11 2 1 1v14l-1 1h-170l-1-3v-10l1-3 2 1-1 14h168l-1-14-9-1z" fill="#408C3D"/>
<path transform="translate(827,1321)" d="m0 0h7l5 4 1 15 1 7-2 5-4 2h-9l-1-1v-31zm2 2-2 1v11l4 1 4-1v-9l-3-3zm-2 15v11l3 3 5-2 3-4-1-6-3-2z" fill="#EAF2EA"/>
<path transform="translate(401,1521)" d="m0 0 3 1v3l-4 3-26 12-14 7-7-1 3-3 27-13 16-8z" fill="#2E8E35"/>
<path transform="translate(432,1571)" d="m0 0 9 1 9 3 5 4 6 7 4 4 1 2-1-5-9-8-2-6 4 2 3 5v2l4 1 3 3 3 13 1 2v7l-2-1-1-7-4-4h-3l-3-3-1-6h-2l-6-8h-7l-4-4-7-1z" fill="#468F43"/>
<path transform="translate(1053,1329)" d="m0 0h6l8 4 1 3v13l-3 3-7 3-7-1-5-6-1-2v-9l6-7zm1 3-5 4-1 2v7l5 6h6l5-5 1-5-3-7-3-2z" fill="#F6F9F6"/>
<path transform="translate(813,1218)" d="m0 0h1l2 65-1 3-4-1-1-8h-1v-10l1-1 1-15 1-31z" fill="#027B0D"/>
<path transform="translate(704,1711)" d="m0 0h1v77l-1 9h-1l-1-5v-71l1-9z" fill="#FAFBFA"/>
<path transform="translate(1171,1813)" d="m0 0h15l9 4 8 6 6 9 2 5 1 12-2 4-1-15-7-8-2-4-4-2-7-5-5-2h-11l-9 2v-2l-2-1z" fill="#5F9F5E"/>
<path transform="translate(281,1124)" d="m0 0 2 1 1 15v62l-1 26-2 1z" fill="#90BC8E"/>
<path transform="translate(1488,408)" d="m0 0h2l1 7 2 4 8 1 3-1 3-3 4-1 5-6h5l-2 6-3 4-2 5-8 1h-11l-5-5-2-3z" fill="#027B0D"/>
<path transform="translate(623,1727)" d="m0 0 2 4 5 6 9 2h8l2 1v132l-6-2 3-3h2l-1-123-1-1-14-2-8-6-1-2z" fill="#428D3F"/>
<path transform="translate(413,413)" d="m0 0h146l-2 5-3-2-10-1h-107l-24-1z" fill="#368633"/>
<path transform="translate(1206,1900)" d="m0 0h127l-1 2-5 1h-25l-27-1-69-1z" fill="#97C096"/>
<path transform="translate(1185,1067)" d="m0 0 2 2v21l-4 13-6 11-7 9-10 6-5 2h-5l2-2 7-3 8-6 7-9 7-14 3-11 1-6z" fill="#78B178"/>
<path transform="translate(1109,1329)" d="m0 0h7l6 3 1 3v16l-9 4-6-1-5-5-1-4v-7l5-8zm1 3-4 4-1 9 4 6 5 1 5-3 2-4-1-9-4-4z" fill="#D1E3D0"/>
<path transform="translate(279,648)" d="m0 0 3 1 8 10 4 4 1 5h-2v3l2 1-15 3h-6l-1 2v-3l5-1h-7l-5-4v-2h-2l-2-5h-2l-1-4 7 6 6 5 20-2-3-5-9-11z" fill="#448E41"/>
<path transform="translate(1730,657)" d="m0 0h61v9h-57l-2 2v-4l57-1v-3l-57 1z" fill="#3B8938"/>
<path transform="translate(925,1329)" d="m0 0h6l3 3 1 3 1 20-3-2-2-17-2-3-5 1-4 5-1 14-3 1-1-4v-10l1-10 4 1z" fill="#DEEBDE"/>
<path transform="translate(491,324)" d="m0 0 13 1 1 1v13h-8l-6-1z" fill="#027B0D"/>
<path transform="translate(719,1882)" d="m0 0h11l3 1v13h-11l-3-1z" fill="#0A7D13"/>
<path transform="translate(229,1119)" d="m0 0h7l-3 15-3 3-13-13v-2z" fill="#398A37"/>
<path transform="translate(491,276)" d="m0 0 9 1 6 3-1 11-10-1-4-1z" fill="#057C10"/>
<path transform="translate(423,1574)" d="m0 0h5l1 3-9 4-9 10-3 10-1 4 1 4h2v9l4 4v2l-4-1-3-5-2-10-1-1v-6l3-12 6-5 3-7z" fill="#438E40"/>
<path transform="translate(719,1834)" d="m0 0h9l5 1 1 3v8l-1 1h-13l-1-1z" fill="#027B0D"/>
<path transform="translate(647,1703)" d="m0 0h9l4 1v2l-11-1-4 3-2 7-4 2-1 3-5 2-3 4 1 5 5 3 9 1 10-1 3 2-6 2-17-1-6-4-2-5 4-7 4-2v-6l4-6 5-3zm-5 4-1 7 2-3z" fill="#5E9E5B"/>
<path transform="translate(980,1321)" d="m0 0 7 1 2 5-5-2-3-1-1 1 1 7 9 9 1 6-3 6-3 2-6-1-4-4v-3l4 2 5 1 2-2v-5l-10-12v-7z" fill="#EAF2E9"/>
<path transform="translate(462,1596)" d="m0 0 5 4 2 6-5 4-1 3 6-4-1 8-3 1-5 5-4 2-2 6-4 5-1-3-3-1 4-2 5-10 2-1 1-7 3-3h2v-2h3l-2-6-2-2z" fill="#479044"/>
<path transform="translate(1086,1329)" d="m0 0h6l4 4 2 9v11h-3l-1-1-1-15-2-4-6 1-1 3-1 16-3-1v-20z" fill="#E0ECDF"/>
<path transform="translate(719,1785)" d="m0 0 13 3 2 1v10l-5 1-9-2-1-1z" fill="#027B0D"/>
<path transform="translate(831,1193)" d="m0 0h13l14 3 2 1 1 3 3 2-1 3-4-1-10-5v-1h-32l2-3z" fill="#1C8423"/>
<path transform="translate(491,301)" d="m0 0h7l7 2 1 7-1 5-12-1-2-1z" fill="#027B0D"/>
<path transform="translate(982,1159)" d="m0 0 4 2 16 9 16 8v1l-10-1-15-6-13-7 2-1z" fill="#73AC72"/>
<path transform="translate(719,1811)" d="m0 0h10l4 1 1 2-1 10-13-1-1-1z" fill="#26892C"/>
<path transform="translate(720,1858)" d="m0 0 12 1 2 3v8l-1 1h-12l-2-1v-11z" fill="#218627"/>
<path transform="translate(1163,1057)" d="m0 0h15v1l-19 3-14 7-10 9-7 11-3 7-1-4 8-16 9-10 10-5z" fill="#3F9442"/>
<path transform="translate(1151,1096)" d="m0 0h3l-2 4-14 14-10 13h-1v-5l3-6h2v-3l-2-2 14-10z" fill="#3C8C3B"/>
<path transform="translate(491,374)" d="m0 0h13l1 1v11l-4 1-10-1z" fill="#479044"/>
<path transform="translate(242,750)" d="m0 0 16 1 1 1v41h-1l-1-37-1-3h-12l-1 49-2 1v-52z" fill="#6CA66A"/>
<path transform="translate(491,349)" d="m0 0h9l5 2v10l-1 1-13-1z" fill="#027B0D"/>
<path transform="translate(208,1121)" d="m0 0 5 5 6 5 6 7 6 5-2 4-1 3-4-5-19-19h2z" fill="#3C8E3D"/>
<path transform="translate(613,388)" d="m0 0 2 1-1 4-16 16-2 3-6-1-8-8-1-5 4 2 6 6h5l9-11z" fill="#62A261"/>
<path transform="translate(3,1085)" d="m0 0h1v16l-1 21 2 23v7l-2-4-3-17v-32z" fill="#479044"/>
<path transform="translate(1205,1833)" d="m0 0 5 5 1 19-5 10-7 7-7 4-4-3 11-7 6-9 2-5v-15z" fill="#66A364"/>
<path transform="translate(307,1532)" d="m0 0h9l18 8 8 5 1 3-11-3-14-5-11-6z" fill="#36903B"/>
<path transform="translate(552,325)" d="m0 0h7l5 2v12l-3 1-8-2-1-1z" fill="#1F8626"/>
<path transform="translate(1e3 1185)" d="m0 0 5 1 3 4-2 7-4 4-7-1-2-2 1-5z" fill="#499247"/>
<path transform="translate(764,1775)" d="m0 0h4l8 1 9 3 1 2-13-1-1 7-3 1v57h-1l-1-65-4-4z" fill="#92BE91"/>
<path transform="translate(997,1329)" d="m0 0h2l1 19 2 3 5-1 2-6v-14l4 2v2l2 1h-2v11l-3 6-3 3h-6l-4-4-1-3v-11z" fill="#D0E2CF"/>
<path transform="translate(1185,1328)" d="m0 0 5 3 7 14 9-17 1 4-12 29h-2l1-13-6-14-3-4z" fill="#ABCDAB"/>
<path transform="translate(811,1229)" d="m0 0h1v22l-1 15-1 1v9l2 4-1 5h4v-19h1l3 16v5l-10-1-1-2v-18z" fill="#6CA66A"/>
<path transform="translate(1344,304)" d="m0 0h19l2 1 1 6v8l-1 1h-17l-9-1-3-3v-8l3-3zm-3 2-3 3 1 7 6 2h11l2 1h6v-13z" fill="#448E41"/>
<path transform="translate(1169,134)" d="m0 0 2 3 3 15 2 22v16l-2 27-1 5h-1v-15l1-18h2l-1-12-1-1-2-26z" fill="#4B9348"/>
<path transform="translate(1180,1271)" d="m0 0h1v8l3 2-1 6h2l1-3 5 5-1 5-1 1h-7l-4-6-1-9 2-8z" fill="#448E41"/>
<path transform="translate(552,288)" d="m0 0 9 1 3 3v11l-11-2-1-1z" fill="#077C11"/>
<path transform="translate(845,1329)" d="m0 0h2l1 16 3 5h8l1-4 1-17 2 2v18l-4 5-7 1-6-5-2-4v-11z" fill="#EBF2EB"/>
<path transform="translate(924,1224)" d="m0 0h2l-2 4-13 13-1 3 4-4-2 6 2-3 2 1-3 5h-2l-2 4-2 9-2 3-1-16 8-13 9-10z" fill="#25872A"/>
<path transform="translate(932,1222)" d="m0 0 7 1-1 2h-2v-2l-2 2v3l-9 3-2 4-7 8h-2l-2 4v-3-2l-3 5-1-2 5-8 8-7 4-4 1-3z" fill="#11801A"/>
<path transform="translate(552,363)" d="m0 0h10l2 1v10l-2 2h-9l-1-1z" fill="#15811D"/>
<path transform="translate(552,307)" d="m0 0h8l4 2v12l-9-1-3-2z" fill="#24882B"/>
<path transform="translate(780,1816)" d="m0 0h9l2 1 1 3v9l-2 1-10-2z" fill="#448F42"/>
<path transform="translate(552,344)" d="m0 0 11 1 1 1v11h-11l-1-1z" fill="#0B7C13"/>
<path transform="translate(1806,1497)" d="m0 0 2 4 3 21v28l-2 16h-1v-22l-1-35z" fill="#499146"/>
<path transform="translate(781,1834)" d="m0 0 9 1 2 2v10l-5 1-7-2v-11z" fill="#057B0F"/>
<path transform="translate(780,1797)" d="m0 0 9 1 2 1 1 12-3 1-9-3z" fill="#61A060"/>
<path transform="translate(422,646)" d="m0 0h1l3 19 1 11v21l-2 21h-1l-1-58z" fill="#5E9E5B"/>
<path transform="translate(780,1872)" d="m0 0h10l2 2v9l-1 1h-10l-1-1z" fill="#087C11"/>
<path transform="translate(780,1853)" d="m0 0 10 1 2 2v9l-2 2-9-1-1-1z" fill="#51964F"/>
<path transform="translate(1737,643)" d="m0 0h3l2 1v2l4-1 4 1 29 1 7 1v1h-59l-1 2v-3l6-1 4-1z" fill="#368633"/>
<path transform="translate(599,354)" d="m0 0 1 4 6 6 11-2 4 2 2 9 9 3 5 4-2 5-3 3 1-5 2-3-4-1-9-3-3-4v-6l-1-1-1 2-4-1-3 2-8-4-3-3h-5v-2z" fill="#6DA76A"/>
<path transform="translate(780,1891)" d="m0 0h11l1 5v6l-1 1h-9l-2-1z" fill="#3E8C3C"/>
<path transform="translate(845,1900)" d="m0 0 4 1 4 7v15h-17v-1h13v-9l-10-1 2-4 3 1v2l2-1v-7l1-2z" fill="#378835"/>
<path transform="translate(967,1146)" d="m0 0 4 2 11 10 1 4-1 2-5-1-8-6 1-2-4-4 2-2z" fill="#409544"/>
<path transform="translate(1423,390)" d="m0 0 30 1-2 2-27 1h-23l-1-2 6-1z" fill="#FCFDFC"/>
<path transform="translate(1179,1321)" d="m0 0 2 1 2 9-1 6v15h-4v-29z" fill="#FEFEFE"/>
<path transform="translate(573,293)" d="m0 0 9 3v11l-9-1-1-1v-11z" fill="#6EA96D"/>
<path transform="translate(704,1708)" d="m0 0 2 1-2 3-1 15v71l-2-2v-85l-2-1z" fill="#3B8938"/>
<path transform="translate(800,1803)" d="m0 0 9 1 1 1v11l-9-1-1-1z" fill="#6EA86C"/>
<path transform="translate(401,1521)" d="m0 0 3 1v3l-4 3-18 8-3-1v-3l16-8z" fill="#3A923E"/>
<path transform="translate(1159,1321)" d="m0 0 4 1 1 30-3 2-1-1-1-13z" fill="#C4DBC3"/>
<path transform="translate(572,329)" d="m0 0 8 1 2 2v10h-7l-3-1z" fill="#85B583"/>
<path transform="translate(818,1876)" d="m0 0h9l1 1v11h-7l-3-1z" fill="#5F9F5D"/>
<path transform="translate(800,1856)" d="m0 0 9 1 1 1v10h-10z" fill="#338E37"/>
<path transform="translate(1046,1240)" d="m0 0 2 2-7 12-4 6-2-2-8 6h-3l7-7 9-11z" fill="#3B913F"/>
<path transform="translate(573,347)" d="m0 0 8 1 1 1v10l-6 1-4-2v-10z" fill="#5B9C59"/>
<path transform="translate(800,1820)" d="m0 0 8 1 2 2v9l-3 1-7-1z" fill="#76AC74"/>
<path transform="translate(900,1321)" d="m0 0h3v28l-2-1-1-10-2-4h-7l-3 3-1 5h-1l-1-7 4-5 5-1 6 1z" fill="#E6F0E6"/>
<path transform="translate(572,312)" d="m0 0h7l3 2v10l-10-1z" fill="#2E8F35"/>
<path transform="translate(818,1893)" d="m0 0h11l-1 10-1 1h-8l-1-1z" fill="#6AA568"/>
<path transform="translate(1035,1322)" d="m0 0 3 1 2 5-2 26h-2l-1-3-1-23z" fill="#FEFEFE"/>
<path transform="translate(800,1892)" d="m0 0h9l1 1v10h-10z" fill="#328D36"/>
<path transform="translate(1725,575)" d="m0 0h10l-4 1v13l-2 2-4-1-1-1v-13z" fill="#569B55"/>
<path transform="translate(1512,399)" d="m0 0 4 2 6 1v1l-5 1 5 4 1 5-5 8-3 1 1-4 4-7 1-2-5 1-2 3h-2l-2 4-3-2 4-4 1-2z" fill="#4C9349"/>
<path transform="translate(800,1839)" d="m0 0h7l3 2v9l-4 1-6-2z" fill="#328F38"/>
<path transform="translate(800,1874)" d="m0 0 9 1 1 1v9l-5 1-5-1z" fill="#5D9E5B"/>
<path transform="translate(590,316)" d="m0 0 9 1 1 1v9l-4 1-6-2z" fill="#298C30"/>
<path transform="translate(590,333)" d="m0 0h7l3 2v9h-9l-1-1z" fill="#0B7D14"/>
<path transform="translate(590,299)" d="m0 0 9 1 1 1v10l-7-1-3-2z" fill="#35913B"/>
<path transform="translate(989)" d="m0 0 19 1 14 2v1h-58v-1l12-2z" fill="#50964E"/>
<path transform="translate(645,1897)" d="m0 0 3 2 1 3v9l-2 2-4-1 1-10-4 3-4-1 1-5 7-1z" fill="#7AB27B"/>
<path transform="translate(740,1801)" d="m0 0h7l1 5v5l-2 2h-7v-11z" fill="#3D913F"/>
<path transform="translate(1018,1333)" d="m0 0 1 3 3 1v2l5 2 2 4v5l-5 5-5-1-3-4 1-2 3 3 4-1v-5l-6-7-3-3z" fill="#E2EDE2"/>
<path transform="translate(1129,1321)" d="m0 0h2l1 24 2 4 2 1v2l-4-1h-4v-27z" fill="#4B9449"/>
<path transform="translate(1499,371)" d="m0 0 6 1 8 1h7l1 4-1 2h-11l-8-4z" fill="#037B0E"/>
<path transform="translate(818,1860)" d="m0 0h10v10h-9l-1-1z" fill="#409040"/>
<path transform="translate(1526,355)" d="m0 0h6v7l-1 5-6 6-1-17z" fill="#16811D"/>
<path transform="translate(841,1899)" d="m0 0 6 2-1 9 2 1h-4l-1-2-1 1-4 1-2-5 1-6z" fill="#037B0D"/>
<path transform="translate(920,1028)" d="m0 0h1l4 25 4 19h-2l-3-8-2-16h-2l-1-3v-10z" fill="#5E9E5B"/>
<path transform="translate(1733,669)" d="m0 0 2 3v2h30l24 1v1l-53 1-3-2z" fill="#368633"/>
<path transform="translate(1391,392)" d="m0 0h9l3 1h5l-2 2-17 1v2l-6-2-19-1v-1z" fill="#499247"/>
<path transform="translate(818,1825)" d="m0 0 9 1v10h-8l-1-1z" fill="#1E8222"/>
<path transform="translate(818,1808)" d="m0 0 9 1v11l-9-2z" fill="#83B481"/>
<path transform="translate(754,1853)" d="m0 0h7l-1 13h-6l-1-1v-11z" fill="#73AE74"/>
<path transform="translate(756,1796)" d="m0 0 5 1-1 12-1 1h-5l-1-1v-11z" fill="#73AD73"/>
<path transform="translate(1790,657)" d="m0 0h1v9h-57l-2 2v-4l57-1v-3l-11-1v-1z" fill="#3F8B3C"/>
<path transform="translate(1547,647)" d="m0 0h1l-1 55h-1l-2-26 2-23z" fill="#4F954D"/>
<path transform="translate(739,1856)" d="m0 0h8l1 4-1 7-6 1-2-1z" fill="#90BC8E"/>
<path transform="translate(818,1842)" d="m0 0 9 1v10l-9-1z" fill="#569E57"/>
<path transform="translate(745,1819)" d="m0 0h2l1 5-2 7h-7v-11z" fill="#409141"/>
<path transform="translate(526,344)" d="m0 0h6l1 5-1 7-1 1h-5l-1-1v-11z" fill="#84B582"/>
<path transform="translate(526,325)" d="m0 0h6l1 2-1 11h-6l-1-1v-11z" fill="#96C095"/>
<path transform="translate(525,307)" d="m0 0h7l1 2-1 10-1 1h-5l-1-1z" fill="#549C55"/>
<path transform="translate(755,1872)" d="m0 0h5l1 1v10l-1 1h-6l-1-1v-10z" fill="#86B685"/>
<path transform="translate(740,1837)" d="m0 0h7l1 10-1 1h-8v-10z" fill="#7DB07B"/>
<path transform="translate(756,1834)" d="m0 0 5 1-1 12h-6l-1-2v-10z" fill="#57A059"/>
<path transform="translate(445,1595)" d="m0 0h2l-1 5-5 6h-2l-1 3h-2l-1 3-7-1-4-5v-3l3 1 2 3h6l7-7z" fill="#599C57"/>
<path transform="translate(1747,579)" d="m0 0 6 1 2 2v5l-4 4-5-1v-10z" fill="#6EA76C"/>
<path transform="translate(526,363)" d="m0 0h6l1 4-1 8-1 1h-5l-1-2v-10z" fill="#2F8730"/>
<path transform="translate(513,328)" d="m0 0h6l1 5v6l-2 1h-6v-11z" fill="#489246"/>
<path transform="translate(739,1892)" d="m0 0h8v11h-8z" fill="#72AB71"/>
<path transform="translate(754,1816)" d="m0 0h6l1 1-1 11h-7v-11z" fill="#4B984D"/>
<path transform="translate(513,292)" d="m0 0h6l1 7v4l-2 1h-6v-11z" fill="#358A35"/>
<path transform="translate(123,731)" d="m0 0 7 1v59l-2-2v-51l-1-6z" fill="#3F8B3C"/>
<path transform="translate(491,324)" d="m0 0 13 1 1 1v13h-8l-6-1zm1 3v9l1 1 9-1 2-1v-6l-3-2z" fill="#418C3E"/>
<path transform="translate(514,310)" d="m0 0h5l1 1v9l-1 2h-6l-1-1v-10z" fill="#579C56"/>
<path transform="translate(421,1567)" d="m0 0h8l2 2-16 4-4 2-1 3-2 1-1 3-1-2-2-1 8-8 2-3z" fill="#0A7D13"/>
<path transform="translate(631,1894)" d="m0 0 3 1 1 3-2 3v13l-1 7h-1v-9h-3l-1-16zm-1 9-1 1v5l2-1v-5z" fill="#3F8F3E"/>
<path transform="translate(754,1891)" d="m0 0h6l1 5-1 7h-6l-1-2v-9z" fill="#6EAC6F"/>
<path transform="translate(1060,1332)" d="m0 0 7 1 1 3v13l-1 2h-7v-2l3-3 1-5-3-7z" fill="#77AD75"/>
<path transform="translate(214,1188)" d="m0 0 3 1-1 5-5 5-3 2-4-1 1-4 7-7z" fill="#65AA68"/>
<path transform="translate(985,1014)" d="m0 0 6 5 9 12 5 7-2 5-3-4-8-14-7-9z" fill="#509950"/>
<path transform="translate(493,376)" d="m0 0h8l3 6v2l-9 1-3-1v-7z" fill="#027B0D"/>
<path transform="translate(514,346)" d="m0 0h5l1 6-1 6h-6l-1-1v-10z" fill="#519950"/>
<path transform="translate(491,301)" d="m0 0h7l7 2 1 7-1 5-12-1-2-1zm2 3-1 8 1 1h10l1-1v-7l-6-1z" fill="#4D934A"/>
<path transform="translate(530,381)" d="m0 0 2 1v12h-6l-1-1v-10z" fill="#569954"/>
<path transform="translate(740,1874)" d="m0 0h7v10l-6 1-2-1v-9z" fill="#62A563"/>
<path transform="translate(231,1206)" d="m0 0h2l1 4-7 8-5 1-1-4 8-8z" fill="#6FAF72"/>
<path transform="translate(1791,699)" d="m0 0h1v24h-1v-8h-29v-1l21-1 2-1v-3l5-2z" fill="#358633"/>
<path transform="translate(491,349)" d="m0 0h9l5 2v10l-1 1-13-1zm2 2-1 2v7h11v-6l-1-2z" fill="#4B9349"/>
<path transform="translate(1109,1329)" d="m0 0h7v2h-6v2l-3 3-1 9 3 5-1 2-5-3-1-4v-7l5-8z" fill="#CADEC9"/>
<path transform="translate(528,288)" d="m0 0h4v12h-7v-11z" fill="#24872A"/>
<path transform="translate(1283,1851)" d="m0 0 1 4-5 14-1 5-2-2v-6l-4-2 3-1 5-9z" fill="#338732"/>
<path transform="translate(553,382)" d="m0 0 5 1 2 2v6l-4 3-4-1v-10z" fill="#6FAA6F"/>
<path transform="translate(1834,1160)" d="m0 0 1 2 4 2 7 5 5 7 4 3v2l4 2v2l5 2 1 2-4-1-3-2v-2l-4-2-17-17-3-2z" fill="#66A263"/>
<path transform="translate(163,1137)" d="m0 0h2l-1 6-6 6-4 1-2-3 7-8z" fill="#4E9D52"/>
<path transform="translate(145,1120)" d="m0 0 3 1-1 5-6 6h-5v-4l7-7z" fill="#66A667"/>
<path transform="translate(517,364)" d="m0 0h2v11l-1 1h-6v-10z" fill="#388A38"/>
<path transform="translate(433,266)" d="m0 0 2 1-3 1 2 5-1 3 2 1-9 3v-9l3-3z" fill="#50964E"/>
<path transform="translate(513,383)" d="m0 0h6v11h-6l-1-1v-9z" fill="#9CC39A"/>
<path transform="translate(801,1653)" d="m0 0 7 1v3l1 2h-7l-5 1-3 4h-2l1-4 3-2-1-4z" fill="#72AA70"/>
<path transform="translate(659,1776)" d="m0 0 2 4 1 3v4l-7 2-1-1v-9z" fill="#50984F"/>
<path transform="translate(631,1722)" d="m0 0v3l-1 4 3 4 6 2 16-1 3 2-6 2-17-1-6-4-2-5 3-5z" fill="#3D8B3B"/>
<path transform="translate(1447,1512)" d="m0 0h1v24l-1 18h-1l-1-12v-13z" fill="#7AAF78"/>
<path transform="translate(917,1022)" d="m0 0 2 1 1 25-2 7h-1l-1-23z" fill="#027B0D"/>
<path transform="translate(878,1320)" d="m0 0h1l1 33h-3l-1-13 1-18z" fill="#EDF3EC"/>
<path transform="translate(1186,1250)" d="m0 0 2 1 1 7-2 13-2 2-1-13v-8z" fill="#027B0D"/>
<path transform="translate(1680,739)" d="m0 0h2l-1 3-1 56-3 4-2-1 3-4 1-57z" fill="#5E9F5C"/>
<path transform="translate(280,635)" d="m0 0 5 5 14 15 9 8-2 2-2-4-4-2-11-10-9-12z" fill="#448E41"/>
<path transform="translate(786,1800)" d="m0 0h4v10l-5 1v-4l-4-1 1-4z" fill="#057B0F"/>
<path transform="translate(783,1816)" d="m0 0 5 1 2 2h-2v2l3 1-1 3h-5v2l-4-1v-5h3z" fill="#057B0F"/>
<path transform="translate(940,1223)" d="m0 0 3 3v22h-3l-1-5 1-13z" fill="#027B0D"/>
<path transform="translate(1442,303)" d="m0 0h8v1l-5 1-1 15h32v1h-33l-1-8z" fill="#479045"/>
<path transform="translate(1169,1329)" d="m0 0h2l1 13v10h-4v-12z" fill="#65A263"/>
<path transform="translate(69,972)" d="m0 0 2 1-27 27-2-1 9-10 12-11z" fill="#4E9C52"/>
<path transform="translate(1e3 1171)" d="m0 0 9 3 7 4v1l-10-1-11-4v-1h5z" fill="#73AE73"/>
<path transform="translate(869,1329)" d="m0 0h2l1 23-1 2h-2l-1-2z" fill="#EEF4EE"/>
<path transform="translate(1140,1069)" d="m0 0 2 1-7 7-7 11-3 7-1-4 8-16z" fill="#F7FAF7"/>
<path transform="translate(429,246)" d="m0 0h2v3l2 1v6l-7 2v-10z" fill="#50964E"/>
<path transform="translate(1137,1329)" d="m0 0 7 1 4 4-1 3-6-4-6 1-4 5v-8z" fill="#C8DDC7"/>
<path transform="translate(924,1224)" d="m0 0h2l-2 4-13 13-3 6h-2l2-5 8-11z" fill="#89BB8A"/>
<path transform="translate(1174,1115)" d="m0 0v3l-4 5-10 6-5 2h-5l2-2 7-3 8-6 6-4z" fill="#C8DDC7"/>
<path transform="translate(1735,689)" d="m0 0 42 2v1l-37 1-5-1z" fill="#368633"/>
<path transform="translate(491,276)" d="m0 0 4 1-2 1-1 10h9 2v-7-3l3 2-1 11-10-1-4-1z" fill="#418D3E"/>
<path transform="translate(719,1882)" d="m0 0h11l3 1v3h-3v-2h-2v2h-2v-2l-6-1 1 8-1 3 4-1v2h8v1h-10l-3-1z" fill="#4E944B"/>
<path transform="translate(1194,1719)" d="m0 0 2 1-11 7v1h-14l3-2z" fill="#5F9F5D"/>
<path transform="translate(1185,1067)" d="m0 0 2 2v21l-3 9-2-2 1-6 2-11z" fill="#F1F6F0"/>
<path transform="translate(780,1872)" d="m0 0h10v1h-5l3 4-2 3h-2v2h-4z" fill="#5FA15F"/>
<path transform="translate(930,1102)" d="m0 0 5 2 3 11 3 3v2l-5-2-5-10z" fill="#0D7D15"/>
<path transform="translate(620,367)" d="m0 0 2 2 2 5 10 3 3 3-2 5-3 3 1-5 2-3-4-1-9-3-3-4z" fill="#499146"/>
<path transform="translate(1359,324)" d="m0 0 21 1 19 2v1h-20l-20-3z" fill="#569954"/>
<path transform="translate(552,288)" d="m0 0 9 1 3 3v11l-11-2-1-4 2 2 8 2 1-8-7-1h-3z" fill="#5B9C59"/>
<path transform="translate(1503,400)" d="m0 0 4 1 1 4-1 4h-7l-4-2 1-4 8 1z" fill="#ECF3EC"/>
<path transform="translate(1443,240)" d="m0 0 8 1-2 1v2h-4v16l-3-1v-16z" fill="#469043"/>
<path transform="translate(436,1638)" d="m0 0 4 1 1 3h-2v-2l-8 1-1 5-2 6-6 4 2-5 5-10 2-2z" fill="#68A466"/>
<path transform="translate(1072,1330)" d="m0 0 2 2 1 7v14h-3l-1-20z" fill="#FEFEFE"/>
<path transform="translate(565,433)" d="m0 0 2 1-2 12v4l-8-1 6-10z" fill="#5B9C58"/>
<path transform="translate(1491,409)" d="m0 0 3 6 10 1 3 1h-2l-1 3-7 1-4-2-3-4z" fill="#4D944B"/>
<path transform="translate(427,1564)" d="m0 0 5 2h3v2l4 1h-7v2l-4 1v2l-4-1-1-2 8-1v-2h-15l3-2z" fill="#8AB888"/>
<path transform="translate(929,933)" d="m0 0 9 1 15 5-2 3-9-3-13-5z" fill="#96BF95"/>
<path transform="translate(573,293)" d="m0 0 6 2 1 4-4-1v5l1 3-5-1v-11z" fill="#2C8C31"/>
<path transform="translate(1249,1706)" d="m0 0 20 8 10 5-1 2-29-13z" fill="#5D9D5A"/>
<path transform="translate(1154,1331)" d="m0 0 2 1v21h-2l-1-2v-13z" fill="#FEFEFE"/>
<path transform="translate(981,1250)" d="m0 0 2 1-9 12-5 3-1-4 7-6 5-5z" fill="#7DB37D"/>
<path transform="translate(661,1705)" d="m0 0 14 3 5 4 4 7v2l-3 1-3-9-5-3-12-3z" fill="#569954"/>
<path transform="translate(1009,1330)" d="m0 0 4 2v2l2 1h-2v11l-1 2-3-1z" fill="#FEFEFE"/>
<path transform="translate(1041,1249)" d="m0 0h2l-2 5-4 6-2-2-8 6h-3l9-9h2z" fill="#5D9F5C"/>
<path transform="translate(1363,305)" d="m0 0h2l1 6v8l-1 1h-17l-2-2 10-1 8 2z" fill="#61A05F"/>
<path transform="translate(819,1896)" d="m0 0 4 1 1 3 3 1v3h-8l-1-1v-6z" fill="#24872A"/>
<path transform="translate(800,1821)" d="m0 0h3v2l3-1 3 7-4 2-1-3-4 1z" fill="#077C11"/>
<path transform="translate(1723,641)" d="m0 0h27l-4 2-5 1v-2l-14 2-1 2z" fill="#358532"/>
<path transform="translate(575,331)" d="m0 0 5 1 1 3-1 3h-2v3l-5-2 1-7z" fill="#057B0F"/>
<path transform="translate(1339,287)" d="m0 0 2 1-3 5-1 5 7 1h16v1l-11 1h-12l-1-2v-9z" fill="#5E9E5C"/>
<path transform="translate(405,1603)" d="m0 0 3 4v2h2v9l4 4v2l-4-1-3-5-2-10-1-4z" fill="#579A55"/>
<path transform="translate(1206,1328)" d="m0 0 1 4-6 15-2 1-1-4z" fill="#FAFBFA"/>
<path transform="translate(948,1329)" d="m0 0h6l2 2-9 3-5 5-2 4 1-8z" fill="#CCE0CC"/>
<path transform="translate(419,1640)" d="m0 0 3 1-1 7-5-2-1-2-4-1h-6l1-2h8l4 1z" fill="#027B0D"/>
<path transform="translate(1488,419)" d="m0 0 3 1 4 4h11l6-1-1 3-2 1h-13l-6-4z" fill="#458F42"/>
<path transform="translate(787,1891)" d="m0 0 3 1v7l-1 2-4-2-1-4-3-1 1-2z" fill="#067B0F"/>
<path transform="translate(659,1754)" d="m0 0 2 1-2 2-1 7 3 1-4 2h-3v-9l3-3z" fill="#75AD74"/>
<path transform="translate(395,1591)" d="m0 0h2l-1 18-1 6h-1l-1-5v-12z" fill="#78AE76"/>
<path transform="translate(980,1321)" d="m0 0 7 1 2 5-5-2-3-1-2 5h-2l-1 2v-7z" fill="#BAD5B9"/>
<path transform="translate(242,750)" d="m0 0 16 1v1l-14 1-1 15-2-1v-16z" fill="#4D944A"/>
<path transform="translate(964,217)" d="m0 0h24l1 1 1 10 1 4h-2l-1-2-1-11h-21l-4 2z" fill="#4D944A"/>
<path transform="translate(401,1599)" d="m0 0 1 3v5l3 6 2 11-3-1-2-13h-2l-1-2v-7z" fill="#62A05F"/>
<path transform="translate(151,1211)" d="m0 0 5 4-2 4-5 4h-5l3-1 2-5z" fill="#52964F"/>
<path transform="translate(850,1913)" d="m0 0 3 1v9h-17v-1h13v-7z" fill="#C0D9BF"/>
<path transform="translate(804,1804)" d="m0 0 4 1 1 5-4 1-4 2v-7z" fill="#087C11"/>
<path transform="translate(941,1222)" d="m0 0 4 4 1 2v9l-1 5h-2l-1-16z" fill="#529750"/>
<path transform="translate(801,1672)" d="m0 0 2 1-2 4v3l-2 5-4 2 1-4-1-3 3-5z" fill="#78AE76"/>
<path transform="translate(1733,669)" d="m0 0 2 3v2h18l-1 2-16 1-3-2z" fill="#74AB72"/>
<path transform="translate(584,450)" d="m0 0 2 1-6 12-4 1-2-5 3 1v2h2l-1-4 4-7z" fill="#63A161"/>
<path transform="translate(579,313)" d="m0 0 3 1v10h-6l1-2-2-4 1-3 4 3z" fill="#63A161"/>
<path transform="translate(918,217)" d="m0 0h19l-1 7h-1v-6l-13 2-7 1zm-5 4 2 1z" fill="#4A9248"/>
<path transform="translate(665,1703)" d="m0 0 9 1 9 4 4 6 5 1-4 3-10-10-13-4z" fill="#64A262"/>
<path transform="translate(454,1573)" d="m0 0 4 2 3 5v2l4 1 3 3v3h-2l-5-5-6-7z" fill="#589A55"/>
<path transform="translate(206,1176)" d="m0 0h4l-3 9-4 2-4-1 2-3 3-1v-2l2-2z" fill="#3E8B3B"/>
<path transform="translate(982,1159)" d="m0 0 4 2 4 4-1 3-6-1-3-3h2z" fill="#5BA05C"/>
<path transform="translate(632,408)" d="m0 0 2 1 1 7 2 6-6 3h-7v-1l8-2z" fill="#539751"/>
<path transform="translate(1294,1847)" d="m0 0h2l1 3 3 2-10 5-1-3z" fill="#599C58"/>
<path transform="translate(414,1599)" d="m0 0h1l2 13 7 8h-3l-7-6-2-7z" fill="#438D40"/>
<path transform="translate(1151,1096)" d="m0 0h3l-2 4-7 6-4-3z" fill="#6DA76B"/>
<path transform="translate(1163,1057)" d="m0 0h15v1l-19 3-4 1-4-2z" fill="#DFEBDF"/>
<path transform="translate(1729,711)" d="m0 0h13l1 1 2-1v2l2 1h-19z" fill="#348532"/>
<path transform="translate(573,428)" d="m0 0h2l1 5 5 2v3l-5 1-2-2z" fill="#7EB27D"/>
<path transform="translate(624,363)" d="m0 0 2 4 1 4 6 1 6 3 1 2v6l-2-4-4-4-9-3-1-2z" fill="#4B9349"/>
<path transform="translate(590,350)" d="m0 0 8 1v4l-6 2h-2z" fill="#72AA70"/>
<path transform="translate(590,333)" d="m0 0h7l3 2v9h-9l-1-4 3 2 6 1v-7h-7l-2-1z" fill="#8CBA8B"/>
<path transform="translate(719,1834)" d="m0 0h9l-1 2h-5l-2 9 4-1 3 3h-7l-1-1z" fill="#438E40"/>
<path transform="translate(788,1661)" d="m0 0 1 3 2 1v7l-2 3h-3v-10zm0 6-1 4 3-3z" fill="#A5C8A3"/>
<path transform="translate(1064,1196)" d="m0 0h1l2 14h3l-1 7-3-1-2-6z" fill="#4C9349"/>
<path transform="translate(1735,679)" d="m0 0 21 1v2l-21 1z" fill="#93BE91"/>
<path transform="translate(903,1256)" d="m0 0 1 2-1 18-3-1v-8l2-10z" fill="#027B0D"/>
<path transform="translate(643,404)" d="m0 0v3l-4 4 1 5v5l-2-3-3-4 1-5z" fill="#5A9B57"/>
<path transform="translate(1332,319)" d="m0 0 9 3 15 1 2 2h-10l-12-1-4-3z" fill="#5A9B57"/>
<path transform="translate(428,290)" d="m0 0 3 1v7l-2 1 1 2h-4v-9z" fill="#63A161"/>
<path transform="translate(1338,269)" d="m0 0 2 1-2 3v7l3-1 6 1v2l-10 1-1-2v-10z" fill="#3A8837"/>
<path transform="translate(1053,217)" d="m0 0h12l5 2v2l-15-2v6l-2-3z" fill="#51964E"/>
<path transform="translate(1181,1270)" d="m0 0 2 4 3 7-1 6h-2l1-6-4-2z" fill="#027B0D"/>
<path transform="translate(251,620)" d="m0 0 2 1-1 3h19l2 3-16-1-6-1z" fill="#4D934A"/>
<path transform="translate(427,312)" d="m0 0h2l2 3v5l2 2-6 1-1-7z" fill="#5B9C58"/>
<path transform="translate(1346,304)" d="m0 0h17v2l-10 1h-7z" fill="#3A8837"/>
<path transform="translate(759,1872)" d="m0 0 2 1v10l-2 1-3-2 1-9z" fill="#3F9543"/>
<path transform="translate(690,1761)" d="m0 0h4v9l-2 3-3-8-3-1z" fill="#6DA86C"/>
<path transform="translate(1193,1345)" d="m0 0 3 1 3 6-4 9h-2l1-13z" fill="#FEFEFE"/>
<path transform="translate(461,253)" d="m0 0h5l-1 11-2 1-1-3 1-4-5-1 1-3z" fill="#448E41"/>
<path transform="translate(780,1856)" d="m0 0h2v2l9-1-2 5-6 1-2-2v-2z" fill="#047B0E"/>
<path transform="translate(657,1798)" d="m0 0h2l-2 11 3 1-5 1-1-1v-9z" fill="#77AE76"/>
<path transform="translate(1053,1329)" d="m0 0h6l7 3-4 1h-8l-5 2 2-4z" fill="#EAF2EA"/>
<path transform="translate(808,1266)" d="m0 0h1l1 10 2 4v6h-3l-1-2z" fill="#61A05F"/>
<path transform="translate(1228,1228)" d="m0 0h5l-1 5-6 3-3-1 4-2-3-4z" fill="#69A567"/>
<path transform="translate(860,1198)" d="m0 0 5 2 6 8 1 5h-2l-3-6-4-5-3-2z" fill="#88B787"/>
<path transform="translate(244,673)" d="m0 0h3v3l-5 1h-14l4-2z" fill="#499146"/>
<path transform="translate(530,345)" d="m0 0 1 2-1 2h2v7l-5-2-1-7z" fill="#157F1A"/>
<path transform="translate(1517,265)" d="m0 0 10 3 8 2 1-3-1 5-9-1-9-4z" fill="#589A55"/>
<path transform="translate(407,195)" d="m0 0m-1 1m-1 1m-1 1m-2 1 2 1-15 15v-3l8-9z" fill="#3E9543"/>
<path transform="translate(1196,1870)" d="m0 0h3v4l-7 4-4-3z" fill="#AFD0AF"/>
<path transform="translate(780,1853)" d="m0 0 10 1 2 4h-10v-2h-2z" fill="#63A160"/>
<path transform="translate(808,1841)" d="m0 0h2v9l-4 1 1-3h-2l-1-4z" fill="#5B9D59"/>
<path transform="translate(781,1834)" d="m0 0 9 1 1 2h-9v9l2 1-4-1v-11z" fill="#A4C8A2"/>
<path transform="translate(1205,1833)" d="m0 0 5 5v13l-2 3-1-15z" fill="#FEFEFE"/>
<path transform="translate(719,1785)" d="m0 0 10 2v1h-8v8l6 2-3 1-5-2z" fill="#458F42"/>
<path transform="translate(1225,1707)" d="m0 0 2 4 1 5h-2l-3-4-8 1v-2z" fill="#6DA76A"/>
<path transform="translate(916,1339)" d="m0 0 2 1 1 13-3 1-1-4v-10z" fill="#FEFEFE"/>
<path transform="translate(985,1014)" d="m0 0 6 5 7 9-1 2h-2l-10-14z" fill="#ABCCAA"/>
<path transform="translate(427,377)" d="m0 0h7l-3 2-3 9h-2v-10z" fill="#549852"/>
<path transform="translate(803,1876)" d="m0 0 7 1-2 1 1 5-1 2h-2l-1-3-4 1 1-3 2 1z" fill="#047B0F"/>
<path transform="translate(791,1837)" d="m0 0h1v10l-5 1-5-2-1-4 2 1v2h7v-6z" fill="#50954D"/>
<path transform="translate(809,1660)" d="m0 0h2l3 4 5 1 1 5-8-4-4-3z" fill="#B4D1B3"/>
<path transform="translate(404,1584)" d="m0 0h1v8l-2 8-2-1v-9z" fill="#50954D"/>
<path transform="translate(212,1193)" d="m0 0 2 1 1 2-7 5h-3l1-4z" fill="#3B8B39"/>
<path transform="translate(153,1128)" d="m0 0 3 1v5l-1 1h-7l2-4z" fill="#89BC8B"/>
<path transform="translate(928,1072)" d="m0 0 2 2 4 14-3-1-1-3-2-2-2-5h2l-1-3z" fill="#458F43"/>
<path transform="translate(1779,724)" d="m0 0 5 1v2h-13l-17-1v-1z" fill="#027B0D"/>
<path transform="translate(277,692)" d="m0 0 5 4 1 5 4 2-1 4-10-12z" fill="#559853"/>
<path transform="translate(613,388)" d="m0 0 2 1-1 4-6 5-3-3z" fill="#90BD90"/>
<path transform="translate(1137,1842)" d="m0 0h1l1 15 1 7-4-4z" fill="#71A96F"/>
<path transform="translate(691,1785)" d="m0 0 3 1-1 11-2 1v-9l-3 1v-2l-2-1z" fill="#51964E"/>
<path transform="translate(623,1727)" d="m0 0 2 4 5 6 7 2v2l-7-1-6-5-1-2z" fill="#71A96F"/>
<path transform="translate(1702,1458)" d="m0 0 11 2 1 1v14h-1l-1-10-1-4-9-1z" fill="#91BD90"/>
<path transform="translate(1145,1336)" d="m0 0h4v11l-4 1z" fill="#FEFEFE"/>
<path transform="translate(1080,1336)" d="m0 0h2l1 17-3-1z" fill="#FEFEFE"/>
<path transform="translate(1793,1184)" d="m0 0 2 1-10 10-1 8h-1v-10z" fill="#4D994F"/>
<path transform="translate(145,1120)" d="m0 0 3 1-1 5-8 2 1-4z" fill="#3F9443"/>
<path transform="translate(208,1121)" d="m0 0 5 5 1 2-3 1v3l-6-5 2-1z" fill="#65A263"/>
<path transform="translate(924,1053)" d="m0 0 2 4 3 15h-2l-3-8-1-8z" fill="#5B9C59"/>
<path transform="translate(621,427)" d="m0 0h1v7l-2 4-4 1-2-2 4-2v-4z" fill="#76AC74"/>
<path transform="translate(526,363)" d="m0 0h6v2l-5 2-1 6h3l1 3h-4l-1-2v-10z" fill="#9BC59B"/>
<path transform="translate(544,267)" d="m0 0 11 2 3 3-14-1z" fill="#81B37F"/>
<path transform="translate(1283,1851)" d="m0 0 1 4-3 7-2-2-1 2-2-1 5-8z" fill="#97C196"/>
<path transform="translate(647,1703)" d="m0 0h9l4 1v2l-11-1-4 3-1 5h-2l2-9z" fill="#469043"/>
<path transform="translate(124,549)" d="m0 0v3l-14 14v-3l9-10z" fill="#529F55"/>
<path transform="translate(1020,200)" d="m0 0 2 2-1 4h-20l-1-3 3 1h17z" fill="#73AA71"/>
<path transform="translate(740,1837)" d="m0 0h7l-3 2h-3l1 7 3 2h-6v-10z" fill="#9CC39B"/>
<path transform="translate(291,699)" d="m0 0 7 6 6 5h4v2l-5 1-12-12z" fill="#589A55"/>
<path transform="translate(592,438)" d="m0 0 5 1 2 1 4-2-2 5-5 1-4-5z" fill="#479044"/>
<path transform="translate(576,363)" d="m0 0 7 1v1h-5v2h-2l-1 4-2 2 1-9z" fill="#74AB72"/>
<path transform="translate(599,354)" d="m0 0 1 4 7 7-2 1-6-5h-5v-2z" fill="#5E9E5B"/>
<path transform="translate(512,330)" d="m0 0 2 1 2 5 2 1v3h-6z" fill="#3E9744"/>
<path transform="translate(1404,249)" d="m0 0h3v18h-1l-1-14-8-1 4-2z" fill="#63A161"/>
<path transform="translate(1363,240)" d="m0 0 3 1-1 9-3-3-1-3h-5l4-3z" fill="#5E9E5B"/>
<path transform="translate(1135,1837)" d="m0 0h3l-1 15h-1l-2-7v-6z" fill="#348531"/>
<path transform="translate(729,1788)" d="m0 0 5 1v10l-3 1v-3l-2-2 3-4z" fill="#70A96E"/>
<path transform="translate(453,1626)" d="m0 0h2l-1 5-4 5-1-3-3-1 4-2z" fill="#9AC298"/>
<path transform="translate(917,1334)" d="m0 0h5l-2 5-1 13h-1z" fill="#599B56"/>
<path transform="translate(221,1197)" d="m0 0 4 2-1 5h-5l-1-3z" fill="#9EC79E"/>
<path transform="translate(1779,1060)" d="m0 0 2 1-8 6-2-1h-12v-2l16-1z" fill="#4D944A"/>
<path transform="translate(627,433)" d="m0 0 4 2 3 7h-2l-2-3-3 1-1 2-2-1z" fill="#75AC73"/>
<path transform="translate(528,288)" d="m0 0 2 1-1 5-2 1 1 3 2 2h-5v-11z" fill="#9FC59E"/>
<path transform="translate(821,1809)" d="m0 0h3l1 8h-5v-7z" fill="#037B0E"/>
<path transform="translate(653,1734)" d="m0 0 5 1-4 3-14-1v-1z" fill="#3C8939"/>
<path transform="translate(824,1675)" d="m0 0 9 1 6 4 2 4-4-2v-2l-5-2h-6l-2-1z" fill="#78AE76"/>
<path transform="translate(1105,1350)" d="m0 0 9 1 4 1-4 3-6-1-3-2z" fill="#FEFEFE"/>
<path transform="translate(1016,1348)" d="m0 0 4 3 5-1 2 1-1 3-6 1-4-5z" fill="#FEFEFE"/>
<path transform="translate(1130,1340)" d="m0 0h1l3 9 2 1v2l-4-1h-4z" fill="#71AA6F"/>
<path transform="translate(910,1331)" d="m0 0 2 1v21h-2l-1-20z" fill="#FEFEFE"/>
<path transform="translate(161,1207)" d="m0 0 6 4-5 6-3-3v-2h3z" fill="#7EB17C"/>
<path transform="translate(920,964)" d="m0 0 1 4-2 14-2 1 1-13z" fill="#90BC8F"/>
<path transform="translate(252,611)" d="m0 0 1 2 6-2-5 8-7-2 4-2z" fill="#66A364"/>
<path transform="translate(546,413)" d="m0 0h13l-2 5-3-2-8-1z" fill="#489045"/>
<path transform="translate(552,363)" d="m0 0h10v1l-6 2-2 2-1 7h-1z" fill="#78AE76"/>
<path transform="translate(590,316)" d="m0 0 9 1 1 1v9l-4 1 2-2v-6l-6-3v2h-2z" fill="#549851"/>
<path transform="translate(968,200)" d="m0 0 1 4 19 1v1h-21z" fill="#549851"/>
<path transform="translate(658,1842)" d="m0 0 3 1-2 1-2 6-1 2h5v1h-6v-10z" fill="#428D3F"/>
<path transform="translate(756,1834)" d="m0 0 5 1v3l-5-1-2 5h-1v-7z" fill="#A6C9A5"/>
<path transform="translate(758,1799)" d="m0 0 2 3v7l-1-2-3-1-2-1 2-4z" fill="#087C11"/>
<path transform="translate(383,1530)" d="m0 0 4 1v3l-6 2-2-1v-3z" fill="#36923C"/>
<path transform="translate(1190,1221)" d="m0 0 1 4 3-1-2 7h-3l-1-6z" fill="#067C10"/>
<path transform="translate(994,1168)" d="m0 0 6 1 2 1v3h-7z" fill="#3C9340"/>
<path transform="translate(1790,657)" d="m0 0h1v9l-4-2 2-2v-2l-11-1v-1z" fill="#81B37F"/>
<path transform="translate(512,384)" d="m0 0h2v2h3l1 5-4 1-2-2z" fill="#0A7C12"/>
<path transform="translate(562,377)" d="m0 0h4l-1 4-3 1 2 1v5l-4-4 1-5z" fill="#61A05F"/>
<path transform="translate(504,306)" d="m0 0h2l-1 9-12-1v-1l10-1z" fill="#74AB72"/>
<path transform="translate(788,1891)" d="m0 0h3l1 5v6l-1 1h-9v-1l6-1 2-9z" fill="#83B481"/>
<path transform="translate(729,1835)" d="m0 0h4l1 3v8l-3 1v-10h-2z" fill="#76AC74"/>
<path transform="translate(1241,1708)" d="m0 0 5 1 7 3-3 1h-10z" fill="#70A86D"/>
<path transform="translate(797,1655)" d="m0 0 5 2v2l-5 1-3 4h-2l1-4 3-2z" fill="#D7E6D6"/>
<path transform="translate(443,1585)" d="m0 0h5l6 7 1 5-4-5-6-5z" fill="#63A160"/>
<path transform="translate(1009,1174)" d="m0 0 6 2 3 3-10-1-3-2h4z" fill="#E4EEE3"/>
<path transform="translate(163,1137)" d="m0 0h2v4h-4l1 2-8 2 5-6z" fill="#94C295"/>
<path transform="translate(323,615)" d="m0 0h1v5l4 1-4 1-2 4-3-10 4 1z" fill="#428D40"/>
<path transform="translate(428,333)" d="m0 0h2v7l-4 3v-8z" fill="#76AC74"/>
<path transform="translate(637,1899)" d="m0 0 6 1v3l-3 2-4-1z" fill="#50984F"/>
<path transform="translate(790,1873)" d="m0 0 2 1v9l-1 1h-7l1-2h5z" fill="#489146"/>
<path transform="translate(744,1857)" d="m0 0 2 1v2h-2v3h-2l1 4h-3v-6z" fill="#16811D"/>
<path transform="translate(424,1603)" d="m0 0 3 1 4 6 4 2-7-1-4-5z" fill="#C8DEC7"/>
<path transform="translate(291,1526)" d="m0 0 11 3 5 3v2l-6-2-10-5z" fill="#93BE91"/>
<path transform="translate(864,1214)" d="m0 0h2l1 9-3 2-1-6z" fill="#1E8625"/>
<path transform="translate(1043,1124)" d="m0 0h2l1 7-2 1-1 2-2-5z" fill="#368633"/>
<path transform="translate(630,376)" d="m0 0 5 2 2 4-4 6-1-4 3-4-4-1z" fill="#50964E"/>
<path transform="translate(426,356)" d="m0 0 3 1-1 8 6-1 1 2h-9z" fill="#7FB27D"/>
<path transform="translate(574,348)" d="m0 0h5l1 4-4 1-1-2-1 5h-1v-7z" fill="#077C10"/>
<path transform="translate(525,327)" d="m0 0 5 2 1 5-4 1-2-5z" fill="#157F1A"/>
<path transform="translate(721,1882)" d="m0 0h9l3 1v3h-3v-2h-2v2h-2v-2l-5-1z" fill="#9DC49C"/>
<path transform="translate(780,1816)" d="m0 0h3l1 5h-3l1 5 2 1-1 2-3-1z" fill="#5F9E5D"/>
<path transform="translate(691,1737)" d="m0 0h3v10h-1v-5l-5-1-1-2z" fill="#9DC49C"/>
<path transform="translate(466,1621)" d="m0 0 1 3-2 3-1 6-3-4 1-5 4-1z" fill="#74AB72"/>
<path transform="translate(1169,1339)" d="m0 0h1l1 9v5l-3-1v-12z" fill="#F0F5F0"/>
<path transform="translate(1140,1104)" d="m0 0 5 1-4 2-3 5-1-2-2-1z" fill="#13811B"/>
<path transform="translate(226,1077)" d="m0 0 4 1 4 2 1 3 4 2-1 3-12-10z" fill="#589A56"/>
<path transform="translate(563,294)" d="m0 0h1v9l-11-2-1-4 2 2 8 2z" fill="#66A264"/>
<path transform="translate(502,278)" d="m0 0 4 2-1 11h-5l3-1v-9z" fill="#81B380"/>
<path transform="translate(491,252)" d="m0 0h4v2l-2 1v9h3l-1 2-4-2z" fill="#4E954C"/>
<path transform="translate(1e3 118)" d="m0 0 5 1-3 3-2 1h-10v-1l8-1z" fill="#3C8A3A"/>
<path transform="translate(742,1894)" d="m0 0 4 1-3 1 2 6-5 1 1-8z" fill="#147E1A"/>
<path transform="translate(1293,1860)" d="m0 0h2l1 7-2-1v-3l-2 1-1 3-6 3v-2l5-5z" fill="#77AF77"/>
<path transform="translate(1145,1839)" d="m0 0h1v9l-1 2h-2v-9z" fill="#76AC74"/>
<path transform="translate(818,1825)" d="m0 0 9 1-1 2h-7l1 6-2 1z" fill="#A8CAA7"/>
<path transform="translate(747,1807)" d="m0 0 1 4-2 2h-7l1-3 2 1 1-3 1 2h3z" fill="#7DB07B"/>
<path transform="translate(445,1595)" d="m0 0h2l-1 5-5 6-2-3z" fill="#EFF5EF"/>
<path transform="translate(377,1533)" d="m0 0h2v2l2 1-3 2h-6v-3z" fill="#218425"/>
<path transform="translate(929,933)" d="m0 0 9 1 6 2-2 2-5-1-8-3z" fill="#E1ECE1"/>
<path transform="translate(235,687)" d="m0 0 3 1 8 10v3l-8-8z" fill="#529750"/>
<path transform="translate(272,597)" d="m0 0 1 3 4 1-11 4-1-5h7z" fill="#408D3E"/>
<path transform="translate(1504,261)" d="m0 0 9 2 3 2h-10l-2-1z" fill="#529750"/>
<path transform="translate(835,1899)" d="m0 0 3 1-1 8 2 4-5-2z" fill="#539751"/>
<path transform="translate(631,1894)" d="m0 0 3 1-4 1-1 13h-1l-1-13z" fill="#FEFEFE"/>
<path transform="translate(1148,1860)" d="m0 0 3 1 4 6-1 2-5-3z" fill="#338E37"/>
<path transform="translate(739,1821)" d="m0 0 2 1 2 9h-4z" fill="#78AE76"/>
<path transform="translate(1277,1723)" d="m0 0 13 4v1h-10v-2l-3-1z" fill="#5B9C58"/>
<path transform="translate(1062,1306)" d="m0 0h27v1h-27z" fill="#FEFEFE"/>
<path transform="translate(1022,1082)" d="m0 0 2 1 1 3 2 1 2 8h-3l-4-11z" fill="#027B0D"/>
<path transform="translate(182,1059)" d="m0 0 5 3 1 2h-10z" fill="#62A060"/>
<path transform="translate(491,374)" d="m0 0h13l-3 2-8 1-2 2z" fill="#62A060"/>
<path transform="translate(1504,360)" d="m0 0h7l1 2-9 2v-3z" fill="#CADEC9"/>
<path transform="translate(631,1907)" d="m0 0 2 4-1 10h-1v-9h-3l2-4z" fill="#64A161"/>
<path transform="translate(703,1902)" d="m0 0 3 1v8l-4 1-1-4h1z" fill="#FEFEFE"/>
<path transform="translate(739,1892)" d="m0 0 7 1-4 2-2 8h-1z" fill="#82B481"/>
<path transform="translate(1163,1860)" d="m0 0 2 1v3h6l-4 3-5-1z" fill="#A9CBA8"/>
<path transform="translate(1306,1854)" d="m0 0h2l2 3 4 3-10-1z" fill="#82B481"/>
<path transform="translate(741,1839)" d="m0 0 3 1 2 6-4 1-1-1z" fill="#027B0D"/>
<path transform="translate(416,1627)" d="m0 0 1 2 11 2v1l-7 2-5-3z" fill="#82B481"/>
<path transform="translate(1564,1582)" d="m0 0 5 2 2 4 4 2v2l-4-2-7-7z" fill="#549852"/>
<path transform="translate(810,1266)" d="m0 0 2 2v6l-3 3v-10z" fill="#268227"/>
<path transform="translate(1035,1257)" d="m0 0 1 4-5 5-1-4z" fill="#3A923F"/>
<path transform="translate(969,1156)" d="m0 0 7 2 3 3-1 3-9-7z" fill="#78B47B"/>
<path transform="translate(178,1141)" d="m0 0 3 1v3l4-3-1 4-4 3-1-3-2-2z" fill="#368633"/>
<path transform="translate(1705,580)" d="m0 0h2v7l-4 3 1-7z" fill="#92BD90"/>
<path transform="translate(1497,403)" d="m0 0 4 1 3 3-5 1-3-1z" fill="#549852"/>
<path transform="translate(552,344)" d="m0 0h6v1h-5l2 6-2 4h2v2l-3-1z" fill="#6BA669"/>
<path transform="translate(1446,228)" d="m0 0 12 6 1 2-9-3-6-3z" fill="#3D8A3A"/>
<path transform="translate(980,113)" d="m0 0 5 3 1 4 4 1-3 1-6-5z" fill="#3D8A3A"/>
<path transform="translate(1021,1329)" d="m0 0h5l2 3-9 1z" fill="#F5F8F5"/>
<path transform="translate(1096,1306)" d="m0 0h13v1h-13z" fill="#FEFEFE"/>
<path transform="translate(666,1896)" d="m0 0 1 2-5 3-2-1z" fill="#FEFEFE"/>
<path transform="translate(909,1321)" d="m0 0h5l-1 3-4-1z" fill="#FEFEFE"/>
<path transform="translate(1071,1321)" d="m0 0h4l-1 3-3-1z" fill="#E7F0E7"/>
<path transform="translate(645,1917)" d="m0 0h2v4h-2z" fill="#FEFEFE"/>
<path transform="translate(1152,1321)" d="m0 0h5l-4 2z" fill="#FEFEFE"/>
<path transform="translate(869,1320)" d="m0 0 2 1-1 3z" fill="#BBD6BA"/>
<path transform="translate(1169,1321)" d="m0 0h3v2h-3z" fill="#DCEADC"/>
<path transform="translate(1193,1306)" d="m0 0h5v1h-5z" fill="#FEFEFE"/>
<path transform="translate(1090,1306)" d="m0 0h5v1h-5z" fill="#FEFEFE"/>
<path transform="translate(655,1903)" d="m0 0 2 1h-3z" fill="#CCE0CB"/>
<path transform="translate(658,1901)" d="m0 0 2 1h-3z" fill="#FEFEFE"/>
<path transform="translate(652,1905)" d="m0 0 2 1-2 1z" fill="#FEFEFE"/>
<path transform="translate(1217,1305)" d="m0 0 3 1z" fill="#FEFEFE"/>
<path transform="translate(921,961)" d="m0 0" fill="#FEFEFE"/>
<path transform="translate(661,1880)" d="m0 0" fill="#FEFEFE"/>
<path transform="translate(1189,1306)" d="m0 0 2 1z" fill="#FEFEFE"/>
<path transform="translate(1230,1305)" d="m0 0 2 1z" fill="#FEFEFE"/>
<path transform="translate(1178,1058)" d="m0 0 2 1z" fill="#FEFEFE"/>
<path transform="translate(927,932)" d="m0 0 2 1z" fill="#FEFEFE"/>
<path transform="translate(1015,1346)" d="m0 0" fill="#FEFEFE"/>
<path transform="translate(1117,1306)" d="m0 0" fill="#FEFEFE"/>
<path transform="translate(1033,1306)" d="m0 0" fill="#FEFEFE"/>
<path transform="translate(1222,1305)" d="m0 0" fill="#FEFEFE"/>
<path transform="translate(1154,1095)" d="m0 0" fill="#FEFEFE"/>
<path transform="translate(984,1013)" d="m0 0" fill="#FEFEFE"/>
<path transform="translate(983,1012)" d="m0 0" fill="#FEFEFE"/>
<path transform="translate(982,1011)" d="m0 0" fill="#FEFEFE"/>
</svg>
