<?xml version="1.0" encoding="UTF-8"?>
<svg version="1.1" viewBox="0 0 1615 1611" width="1280" height="1280" xmlns="http://www.w3.org/2000/svg">
<path transform="translate(539,591)" d="m0 0h564v525h-564z" fill="#FCFCFC"/>
<path transform="translate(984,1314)" d="m0 0h24l24 4 21 7 16 8 13 8 13 10 16 16 10 14 9 16 8 20 4 16 2 14v31l-3 19-5 17-9 20-8 13-10 13-16 16-15 11-18 10-15 6-13 4-24 4h-24l-19-3-21-6-16-7-18-11-13-11-8-7-7-8-11-15-9-16-8-21-4-17-2-14v-25l3-20 6-20 7-16 11-18 11-13 8-9 11-9 14-10 15-8 19-7 18-4z" fill="#048204"/>
<path transform="translate(134,753)" d="m0 0h28l24 4 21 7 17 9 12 8 11 9 9 8 9 11 9 13 9 16 8 22 4 19 1 9v23l-2 18-5 19-6 15-9 17-9 12-9 11-8 8-14 11-14 9-15 7-18 6-20 4-10 1h-16l-19-2-20-5-16-6-15-8-14-10-10-9-8-7-9-11-9-13-9-17-6-16-5-22-1-9v-26l3-20 6-20 7-16 10-16 10-13 15-15 13-10 15-9 18-8 17-5z" fill="#038203"/>
<path transform="translate(187,407)" d="m0 0h20l17 2 17 4 19 7 16 9 13 9 10 9 6 5 9 11 10 14 9 17 7 20 4 18 1 8v30l-3 19-6 20-8 17-10 16-11 13-14 14-15 11-16 9-21 8-16 4-15 2h-25l-20-3-21-6-21-10-12-8-11-9-12-11-9-11-7-10-9-16-6-15-4-13-3-16-1-10v-20l3-21 4-15 6-16 8-15 10-14 8-10 8-8 11-9 13-9 19-10 21-7 16-3z" fill="#038203"/>
<path transform="translate(1301,1092)" d="m0 0h27l20 3 21 6 19 9 15 10 13 11 6 5 9 11 10 14 9 16 7 19 5 23 1 10v19l-2 19-4 17-6 16-10 19-9 12-9 11-15 14-16 11-16 8-15 6-20 5-17 2h-16l-19-2-20-5-16-6-17-9-12-9-14-12-11-12-11-16-10-19-7-21-3-15-1-8v-28l3-19 5-18 8-18 10-16 10-13 15-15 10-8 14-9 19-9 20-6z" fill="#038203"/>
<path transform="translate(1379,399)" d="m0 0h32l19 3 20 6 17 8 18 12 14 12 8 8 12 16 10 17 8 21 4 16 2 13v30l-3 20-5 17-12 25-10 14-9 11-9 9-14 11-16 10-16 7-19 6-18 3h-34l-25-5-19-7-17-9-14-10-13-12-8-8-11-15-8-14-7-15-6-21-3-21v-20l3-22 6-21 10-21 8-12 9-12 15-15 17-13 21-11 17-6 18-4z" fill="#038203"/>
<path transform="translate(800)" d="m0 0 20 1 22 4 18 6 19 10 16 11 16 15 8 9 12 18 8 16 7 21 3 14 1 8v30l-3 20-5 16-5 12-9 17-9 12-9 11-14 13-14 10-19 10-16 6-21 5-8 1h-32l-22-4-18-6-17-8-12-8-10-8-12-11-9-10-10-14-10-19-6-17-4-16-2-17v-19l3-22 6-21 7-16 10-16 10-13 16-16 13-10 14-8 17-8 21-6 13-2z" fill="#028202"/>
<path transform="translate(407,122)" d="m0 0h35l18 3 20 6 16 8 16 10 10 8 13 12 13 17 11 19 8 21 4 17 2 17v17l-2 19-4 17-6 16-11 21-10 13-9 10-10 10-15 11-16 9-15 6-21 6-14 2h-31l-22-4-21-7-21-11-13-10-10-9-12-12-10-14-9-16-7-17-5-19-2-13v-31l4-22 5-16 6-14 10-16 12-16 11-11 14-11 14-9 17-8 19-6z" fill="#038203"/>
<path transform="translate(287,1113)" d="m0 0h19l18 2 20 5 15 6 15 8 13 9 14 12 7 7 13 17 9 16 6 14 6 20 3 22v17l-2 20-4 17-6 16-10 19-12 16-9 10-7 7-16 12-14 8-16 7-20 6-19 3h-25l-20-3-15-4-16-6-18-10-13-10-12-11-7-7-12-16-9-16-6-15-5-17-3-18v-29l3-19 5-18 8-18 11-17 9-12 13-13 14-11 13-8 19-9 16-5 16-3z" fill="#038202"/>
<path transform="translate(1450,748)" d="m0 0h34l22 4 18 6 16 8 14 9 10 8 13 12 11 14 11 18 7 16 6 20 3 20v22l-2 19-5 19-7 17-10 18-13 16-16 16-15 11-21 11-21 7-14 3-8 1h-33l-25-5-17-6-21-11-13-10-10-9-11-11-11-15-10-18-7-19-4-16-2-14v-26l3-20 5-18 8-18 9-15 10-13 7-8 8-7 12-10 13-8 21-10 17-5z" fill="#028202"/>
<path transform="translate(588,1310)" d="m0 0h32l18 3 20 6 19 9 18 12 10 9 7 6 11 14 7 10 9 16 7 19 4 17 2 17v16l-2 21-5 19-5 13-11 21-12 16-18 18-15 11-19 10-19 7-18 4-7 1h-35l-21-4-18-6-16-8-14-9-11-9-10-9-9-11-9-12-11-21-7-21-4-22v-30l3-19 6-20 9-19 10-15 11-14 14-13 15-11 23-12 18-6 15-3z" fill="#038203"/>
<path transform="translate(1143,116)" d="m0 0h34l18 3 20 6 15 7 16 9 16 13 12 12 11 15 8 14 7 16 6 20 3 18v33l-4 21-7 19-10 19-12 16-11 12-10 9-14 10-16 9-20 8-21 5-8 1h-30l-18-3-24-8-21-11-16-12-10-9-11-11-11-16-8-16-6-16-5-19-3-22v-16l3-21 5-16 7-16 9-16 8-11 9-11 12-12 15-11 16-9 15-6 18-5z" fill="#008100"/>
<path transform="translate(995,1370)" d="m0 0 5 1 3 4v2l9 3 35 14 36 1 5 3 1 2v129l-4 5-7 1h-110v39l-5-5-11-13v-2l-5 4-9 12-4 4v-39h-22l-6-2-2-2-1-13 1-119 2-3 3-1 31-1 49-18 3-5z" fill="#038103"/>
<path transform="translate(386,162)" d="m0 0 20 7 45 16 7 3 1 35 30 10 1 1 1 58 6-2h5l3 5v6l9 1 2 2v6l-2 5 6 5 1 4-3 5-3 2 1 11-3 3h-4l10 18-1 5h-8l-4-1-2 6-3 5-4-1-6-9-4-7h-7l-2-1-2 5-7 12-4 1-5-8-1-2h-11l-2-4 10-18-6-3-1-4 2-5h-120l-1-1v-8h10v-137l10-7 26-15 6-3 1 161h2v-159z" fill="#FDFDFD"/>
<path transform="translate(521,1372)" d="m0 0h10l5 3 5 1 7 2 5 6 5 1 8-4 1 161h2v-157l1-5 24 8 46 17 2 1 1 35 30 10 1 1v50l3 2v-5h-2v-6l3-1 3 3 1 2 2-2v4l-4 8-2 9 6-1v7l-3-1v-2l-1 5 5 8 2 2-1-5v-12l1-5-5-1v-7l4 1 4 3 1-4-3-1-1-4 1-3h5l2-4 4 1v4l4 1 1 1v6l5-2v6h-4l2 3 6-1v5l-5 3h-2l-1 8-3 3 5 1 2 3-7 1-5-1-2 3-1 15h-6v-12l-8-11-4 1 3 2-5 2v9h12v9l-163 1-3 1h-8l-3-1 1-4v-10l-1-8 3 1 3 5 4-2 3 1-1 7h3v-2l1-1-2-1v-6l-5 1-3 1-1-5-4-1-4 1 2 11h-5l-6-5-4-3v-7l2-3-1-5 5-5 7-1 4-4h8l3 2 10 2 3 1 21-3h5v-10l-28 5-3 1-1 4h-4v-104l1-1-14-1-5-3-2-4 1-7 6-5 3-8 5-4z" fill="#FCFCFC"/>
<path transform="translate(913,607)" d="m0 0 2 2 6 35 4 35 1 14v64l-3 29-5 24-6 19-7 17-9 16-8 11-9 11-8 8h-1l-3-23-5-19-5-12-8-15-9-11-8-8-6-5 3-11 11-29 18-42v-1l-12 19-11 19-12 23-6 13-24-16-25-13-18-7v-1l9 1 14 5 3-11 9-21 11-19 12-17 11-13 7-8 13-13 11-9 15-12 21-14 21-12z" fill="#2C892A"/>
<path transform="translate(1310,1158)" d="m0 0 30 2 28 3 24 5 4 5v67l-2 12-6 15-6 10-8 10-11 11-15 10-16 8-11 4h-13l-21-9-14-9-9-7-12-12-9-14-5-11-3-10-1-9v-66l4-5 25-5z" fill="#018101"/>
<path transform="translate(148,525)" d="m0 0 4 1 11 12 9 11 11 12 9 11 13 16 4 6 6-1 49-19h3v7l-5 5-7 3-1 2-1 40-14 10-19 14-9 5h-1v-53l-16-1 1 2v47l-3 5-47-11-38-9-2-1v-48l-8-2-1-1v-9l23-23 7-8 9-9 7-8z" fill="#FDFDFD"/>
<path transform="translate(995,1370)" d="m0 0 5 1 3 4v2l9 3 35 14 36 1 5 3 1 2v129l-4 5-7 1h-110v39l-5-5-11-13v-2l-5 4-9 12-4 4v-39h-22l-6-2-2-2-1-13 1-119 2-3 3-1 31-1 49-18 3-5zm-76 35-5 3-1 17v32l1 64 3 3h17v-6l-6-5h-2v-4l-4-1v-5l-3-8v-8l1-7 2-1v-6l4-1 1-3 3-1 1-4 5-1v-2h6l5-1h8l3-1 2 2 5 1 1 2h5l1 4 3 1 1 4h3v5l2 2 1 12-1 10-2 2v4l-3 1v4l-4 1-3 4v6h106l4-4v-110l-5-5z" fill="#FDFDFD"/>
<path transform="translate(1164,161)" d="m0 0 6 1 27 15 9 6 1 5-6-2-25-13-11-3v15l5 2 28 11 9 5 9 4 23 8 1 4-11-3-11-4h-3l-1 6v5l16 4 10 3-1 3-16-3-9-1 1 10 3 2 16 1 6 2-1 2-24 1v10h22l2 1v2l-31 5-21 2h-35l-56-5-15-1-3-1-3-9v-32l1-17 16-8 69-32z" fill="#FDFDFD"/>
<path transform="translate(1310,1158)" d="m0 0 30 2 28 3 24 5 4 5v67l-2 12-6 15-6 10-8 10-11 11-15 10-16 8-11 4h-13l-21-9-14-9-9-7-12-12-9-14-5-11-3-10-1-9v-66l4-5 25-5zm-64 45v41l4 13 7 13 9 11 7 7 13 9 16 8 10 4 9-1 20-9 14-10 12-11 9-13 7-16 1-5v-41z" fill="#FDFDFD"/>
<path transform="translate(802,42)" d="m0 0 6 1 3 4 1 10 5 5 8 6 6 12v12l-6 12v7l18 48 3 7 5 1h9l7-3h11l9 2 2 3-1 7-5 3h-17l-7-3-9-1 4 13 6 15 1 4v12l-3 7-2 16-2-2-16-41-8-22-1-1h-20l-1 9-3 4-4-1-2-3v-10l-22 1-3 9-17 45-5 13h-2l-1-16-4-10v-8l11-30 1-4-15 1-5 4-14-1-5-3-1-6 3-5 7-2h11l7 4h8l7-1 7-15 15-41-1-7-4-8-1-4v-11l4-9 4-5 10-7 1-2 2-12z" fill="#FDFDFD"/>
<path transform="translate(1143,116)" d="m0 0h34l18 3 20 6 15 7 16 9 16 13 12 12 11 15 8 14 7 16 6 20 3 18v33l-4 21-7 19-10 19-12 16-11 12-10 9-14 10-16 9-20 8-21 5-8 1h-30l-18-3-24-8-21-11-16-12-10-9-11-11-11-16-8-16-6-16-5-19-3-22v-16l3-21 5-16 7-16 9-16 8-11 9-11 12-12 15-11 16-9 15-6 18-5zm6 9-22 4-18 6-16 8-14 9-10 8-16 16-11 16-8 15-6 17-4 18-1 9v22l3 20 6 20 10 21 12 17 14 15 15 12 17 10 20 8 17 4 20 2 21-1 20-4 15-5 16-8 13-8 10-8 12-11 9-11 10-15 8-17 6-20 3-21v-18l-3-21-5-18-7-16-11-18-11-13-13-13-15-11-19-10-21-7-18-3z" fill="#FDFDFD"/>
<path transform="translate(1340,507)" d="m0 0h18l12 4 9 6 7 8 5 10 3 14-1 13-4 11-6 9-9 8-11 5-6 2-1 46-2 4-2 1h-6l-4-4-1-2v-46l-6-1-14-7-10-10-6-12-1-4v-19l4-12 6-9 9-8 10-5z" fill="#028102"/>
<path transform="translate(1553,910)" d="m0 0h10l6 4 4 6v9l-4 6-5 4-12 1-16 16-7 8-5 5-2 13-6 6-3 1h-9l-5-3-5-6-1-11-5-6-8-7-8-8h-8l-4-1-13 11-5 4h-2v9l-3 5-5 4-3 1h-7l-6-3-4-5-1-2-17-3h-7l-6 4-7 1-7-3-5-6-1-2v-8l3-6 5-4 2-1h9l7 4 3 5v2l11 1 13 1 5-4 3-1h11l14-11 4-3 2-11 4-5 6-3h8l7 4 4 7v9l21 21h11l29-29v-8l4-8z" fill="#FDFDFD"/>
<path transform="translate(1554,802)" d="m0 0h9l6 4 4 6v9l-4 7-8 4h-9l-8 8-7 8-13 13-2 13-5 5-3 2h-11l-6-4-3-5-2-7-15-9-10 1-7-1-17 14-2 1-1 9-4 6-4 3-9 1-5-2-5 1-20 10h-2l-2 9-6 5-9 2-7-3-5-5-1-3v-9l4-6 6-4h9l6 2 24-12 3-9 6-5 2-1h12l16-13 2-1 2-11 5-6 4-2h10l6 4 3 4 2 8 16 10 16-2 7-7 7-8 14-14v-8l4-8z" fill="#FDFDFD"/>
<path transform="translate(214,1223)" d="m0 0 5 1 33 16 26 12v77l-6-2-29-15-22-12-7-4z" fill="#FDFDFD"/>
<path transform="translate(146,809)" d="m0 0 6 1 10 8 13 11 11 9 13 11 11 9 14 12 11 9 13 11 10 8 1 2v7l-4 4-7 1-8-6-14-12-11-9-13-11-11-9-26-22-10-8-6-5-4 2-11 9-14 12-11 9-13 11-11 9-14 12-11 9-10 8-7 1-4-2-2-3v-7l5-5 15-13 13-11 11-9 13-11 11-9 14-12 11-9 14-11z" fill="#FDFDFD"/>
<path transform="translate(1214,280)" d="m0 0h7l5 3h15v11l-3 7-5 5-9 4-11 2-60 3-41 3-10 1h-18l-9-3-3-4-1-8 3-6 3-2z" fill="#FBFCFB"/>
<path transform="translate(278,1186)" d="m0 0 6 2 40 19 20 9v3l-29 14-28 13-7 3-38-18-26-12v-3l53-26z" fill="#FDFDFD"/>
<path transform="translate(797,820)" d="m0 0 5 5 10 13 12 20 11 21 9 23 7 22 6 24 4 23 1 8 6-21 7-16 11-18 12-14 8-8 17-13 7-4 2 1-9 9-11 14-11 15-9 16-8 16-8 21-6 24-3 21-2 24h-15l-5-1 2-20v-30l-2-33-4-28-6-27-10-30-10-23-12-23-6-9z" fill="#018101"/>
<path transform="translate(344,1223)" d="m0 0h2v40l-12 4-9 8-5 9-1 4v13l2 9-28 14-9 5h-2v-77l28-13 31-15z" fill="#FDFDFD"/>
<path transform="translate(145,843)" d="m0 0h6l13 11 11 9 26 22 11 9 13 11 2 2v85h-11l-1-80-11-10-11-9-13-11-11-9-14-12-5-4-5 1-15 13-11 9-14 12-11 9-13 11-1 80h-10l-1-6v-65l1-15 10-9 11-9 14-12 11-9 13-11 11-9z" fill="#FDFDFD"/>
<path transform="translate(1364,445)" d="m0 0h91l17 1 1 24v143l-9 1h-82l-13-1-1-4 3-3h94v-153l-112 1v35l-1 9h-6l-1-1v-51z" fill="#FDFDFD"/>
<path transform="translate(481,288)" d="m0 0 4 1 4 5 7-1 4-1 2 2 1 9 9 1 2 4-2 4v5l5 3 1 5-6 5 1 6 1 5-3 2-7 1-2 9-5 1-7-2-5 6-3 1-5-5v-2l-12 2-2-3-1-7-9-2-1-4 2-7v-2l-6-3v-5l6-5-2-7 1-5 9-2 2-9h6l6 1z" fill="#058104"/>
<path transform="translate(349,1266)" d="m0 0h5l4 4 8-1 3 5v4h6l2 2-1 7-1 2 4 2 2 2-1 5-4 4 1 2v6l-4 3 7 13-1 3h-10l-1 5-2 3-4-1-7-12-7-1-2 5-6 9-4-2-2-6h-10v-5l6-10v-2l-4-2 1-9-4-3v-6l4-3-1-9 2-2h6l1-7 2-2 9 1z" fill="#068206"/>
<path transform="translate(1340,507)" d="m0 0h18l12 4 9 6 7 8 5 10 3 14-1 13-4 11-6 9-9 8-11 5-6 2-1 46-2 4-2 1h-6l-4-4-1-2v-46l-6-1-14-7-10-10-6-12-1-4v-19l4-12 6-9 9-8 10-5zm4 7-13 4-8 6-8 9-4 13v10l3 11 6 10 9 8 9 4 6 1h8l12-3 9-6 7-7 5-10 1-4v-17l-4-10-7-9-10-7-11-3z" fill="#FDFDFD"/>
<path transform="translate(966,962)" d="m0 0 4 1v10l-4 18v2h12l17-3 1 4-5 4-11 3-15 2-4 16-1 6v13l2 2-1 5-6 1-3-3-1-3v-9l4-22v-4h-4l-4 7-11 12-10 6h-8l-5-3-2-3v-3l-13 13-9 4-5-1-3-4-1-3v-10l3-10 6-11 8-9 10-5 8 1 3 5v9l-1 4v12l5 5 8-2 9-7 5-6-3-3v-5l1-1 15-2 6-29z" fill="#2C892A"/>
<path transform="translate(1296,1171)" d="m0 0h38l35 4 15 3v14h-138v-14l22-4z" fill="#038103"/>
<path transform="translate(1385,483)" d="m0 0h61v35h-53l-6-1-4-6-13-8v-19z" fill="#FDFDFD"/>
<path transform="translate(1481,463)" d="m0 0h5l1 12v137l-1 15-10 1h-79l-14-1-1-4 1-2 3-1h93v-154z" fill="#FDFDFD"/>
<path transform="translate(164,909)" d="m0 0 4 2 16 16-2 4-47 47-7-6-12-12 1-4z" fill="#FDFDFD"/>
<path transform="translate(949,1466)" d="m0 0 9 1 8 4 6 7 3 7v11l-3 8-4 5-8 5-4 1h-12l-8-4-7-8-2-6v-14l4-8 6-5 7-3z" fill="#FDFDFD"/>
<path transform="translate(1361,1209)" d="m0 0 7 6 3 4-61 61-4-2-37-37 2-4 6-6 4 2 27 27 4-2z" fill="#FDFDFD"/>
<path transform="translate(668,963)" d="m0 0h17l9 3 6 4 4 6 1 10-3 7-7 8-8 6h-2l5 5 11 9 15 12 4 4-3 3h-7l-10-7-15-14-8-6-11-1-1-6 1-2 13-3 11-7 6-7v-7l-4-5-9-4h-10l-11 1 2 11-1 16-2 14v19l1 6-7 1-3-3v-18l3-23v-20l-6 2-2-2 1-5 8-4z" fill="#2C892A"/>
<path transform="translate(1189,315)" d="m0 0h21l8 4 4 5v8l-6 5h-7l-4-2v-11l8-1 3 2v6h1v-6l-3-4-5-1-7 2-2 6 1 8 3 5 7 3 8-1 6-4 4-5v-4l-6-3 1-2 9 1 1 1-1 9-5 7-7 4-10 1-19-5-43-13-24-7-4-3 15-2z" fill="#FAFBFA"/>
<path transform="translate(645,1335)" d="m0 0 3 1 4-1v3l4-1v3h4l-1 5h2v3l4 2 9 1 5 3 2 5 7 2 3 4v8l-4 5-3 1h-43l-6-3-2-3v-8l5-5h2v-4h-3v-4h-2l1-4-1-3h2v-4l3 1 2-1-2-1 1-3h3z" fill="#038103"/>
<path transform="translate(225,484)" d="m0 0h13l10 4 8 7 5 10 1 10-2 9-7 11-3 2-8-7-10-10-9-11-3-4h-17l2-6 6-8 10-6z" fill="#FDFDFD"/>
<path transform="translate(753,985)" d="m0 0 8 1 3 5v8l-1 5v12l5 5 8-2 9-7 7-8 4-4 1 4-3 7-12 13-8 5-3 1h-7l-5-3-2-3v-3l-12 12-10 5-5-1-3-4-1-3v-10l4-12 7-12 9-8z" fill="#2C892A"/>
<path transform="translate(478,302)" d="m0 0h10l8 4 6 7 2 5v10l-4 9-8 6-8 2-11-2-8-7-3-6-1-9 3-9 4-5z" fill="#FDFDFD"/>
<path transform="translate(802,114)" d="m0 0 5 1 6 14 13 35v3h-17l-1-1-1-9-3-3-3 1-1 2-1 10h-18l2-9 15-39 2-4z" fill="#048103"/>
<path transform="translate(742,781)" d="m0 0h1l1 46 4 27 6 21 6 15 9 17 9 12 9 10 8 7 13 8 15 6v1h-7l-12-4-12-6-13-10-13-13-10-15-8-17-5-16-3-16-1-9v-42z" fill="#2C892A"/>
<path transform="translate(676,1492)" d="m0 0 4 1 2 4 2-2v4l-4 8-2 9 6-1v7l-3-1v-2l-1 5 5 8 2 2-1-5v-12l1-5-5-1v-7l4 1 4 3 1-4-3-1-1-4 1-3h5l2-4 4 1v4l4 1 1 1v6l5-2v6h-4l2 3 6-1v5l-5 3h-2l-1 8-3 3 5 1 2 3-7 1-5-1-2 3-1 15h-6v-12l-8-11-8-2 2-1v-4l-4-1h4v-2l-4-1v-2l3-1 1-5-3-1 2-1-2-5h2l2 3 2-2v-5h-2v-6z" fill="#4BA24B"/>
<path transform="translate(113,898)" d="m0 0h6l6 4 19 19-2 4-6 2v3l-6 7-4 4-4-2-19-19-2-3v-8l8-9z" fill="#F7FAF7"/>
<path transform="translate(170,949)" d="m0 0 4 2 19 19 2 4v7l-7 8-4 3h-8l-8-7-16-16 3-5 6-6h5l1-4 2-4z" fill="#F6F9F6"/>
<path transform="translate(349,1266)" d="m0 0h5l4 4 8-1 3 5v4h6l2 2-1 7-1 2 4 2 2 2-1 5-4 4 1 2v6l-4 3 7 13-1 3h-10l-1 5-2 3-4-1-7-12-7-1-2 5-6 9-4-2-2-6h-10v-5l6-10v-2l-4-2 1-9-4-3v-6l4-3-1-9 2-2h6l1-7 2-2 9 1zm1 2-3 3v2l-9-2-2 5v3l-7 1-1 4 1 6-5 5 5 5-1 9 7 2 3 8 8-2 4 5 4-1 2-4 5 1 4 1 2-2 1-6 7-2 1-2-2-6v-2l4-2 1-3-5-5 1-9-8-1v-6l-1-2-9 1-3-4z" fill="#FDFDFD"/>
<path transform="translate(510,1508)" d="m0 0h8l3 2 10 2 3 2 1 8 3 4-1 6-8 6-6 2v-7l-5 1-3 1-1-5-4-1-4 1 2 11h-5l-6-5-4-3v-7l2-3-1-5 5-5 7-1z" fill="#FDFDFD"/>
<path transform="translate(987,1379)" d="m0 0h3l2 5 1 1h6l3-3 2-3 37 15 1 2h-97l1-2z" fill="#078207"/>
<path transform="translate(522,1374)" d="m0 0h8l5 3 3 2h7l5 4 2 4 2 1-23 14h-20l-4-4-1-4 3-5 4-2 3-9z" fill="#038102"/>
<path transform="translate(349,1278)" d="m0 0 9 1 6 4 4 7v9l-3 6-6 5-2 1h-10l-7-4-4-6-1-10 3-6 6-5z" fill="#FDFDFD"/>
<path transform="translate(208,549)" d="m0 0 6 1 7 7 11 14 5 6-4 3-15 5h-3l-6-8-12-14-6-9 7-3z" fill="#FDFDFD"/>
<path transform="translate(396,203)" d="m0 0 14 3 32 9 8 3v2l-8-1-3-1v107h-3l-1-107-6 2h-8l-23-6-2-1z" fill="#0A820A"/>
<path transform="translate(580,1421)" d="m0 0 14 3 39 11 1 3-7-1-4-1v107h-3l-1-107-6 2h-7l-24-6-2-1z" fill="#0B830A"/>
<path transform="translate(950,1472)" d="m0 0 3 1 5 8 11 3v3l-6 7v13l-6-1-5-2-5 1-5 2h-3v-10l-3-6-4-5 1-2 12-3 2-5z" fill="#048103"/>
<path transform="translate(805,989)" d="m0 0h2l1 4-1 9v21l2 5h6l11-7 11-12 6-8 2 4-5 9-8 10-7 8-9 6-7 1-5-3-4-6-2-7v-22l2-8z" fill="#2C892A"/>
<path transform="translate(1166,194)" d="m0 0 10 2 28 10 4 4v10l-4 1-32-8-7-3v-15z" fill="#038103"/>
<path transform="translate(171,517)" d="m0 0h11l6 4 9 10 8 10-2 2-16 3h-5l-10-12-9-12v-4z" fill="#FDFDFD"/>
<path transform="translate(1367,536)" d="m0 0h6l1 7-7 8-18 18-4 2-7-1-13-10-2-3 1-6 5-1 12 8 4-1 13-13 4-5z" fill="#FDFDFD"/>
<path transform="translate(1168,219)" d="m0 0 9 1 25 5 5 2v13l-17-1-20-2-5-2-1-7 1-8z" fill="#048103"/>
<path transform="translate(1165,244)" d="m0 0h34l7 1 1 14-26 1h-15l-1-1z" fill="#038103"/>
<path transform="translate(238,542)" d="m0 0 7 6 7 8 9 10-1 3-13 5-4-2-5-5-9-10-8-10 3-2z" fill="#FDFDFD"/>
<path transform="translate(645,1335)" d="m0 0 3 1 4-1v3l4-1v3h4l-1 5h2v3l4 2 9 1 5 3 2 5 7 2 3 4v8l-4 5-3 1h-43l-6-3-2-3v-8l5-5h2v-4h-3v-4h-2l1-4-1-3h2v-4l3 1 2-1-2-1 1-3h3zm6 13-6 4-3 5v5l-4 1-3 3v6l4 4 4 1h40l5-3 1-2v-6l-4-4h-6l-1-5-5-4h-8l-5-4-2-1z" fill="#FDFDFD"/>
<path transform="translate(799,73)" d="m0 0h9l5 3 3 4 1 3v7l-4 7-4 2h-11l-7-6-1-3v-7l3-6z" fill="#038103"/>
<path transform="translate(947,1463)" d="m0 0h8l11 4 5 4 5 7 2 6v14l-5 10-8 7-7 3h-15l-10-5-7-9-3-11 1-11 4-8 9-8zm2 3-10 3-6 4-5 7-1 3v14l4 9 8 7 5 2h12l8-3 6-5 4-7 1-4v-11l-5-10-7-6-10-3z" fill="#0E830E"/>
<path transform="translate(209,514)" d="m0 0 9 1 10 11 7 8 2 4-9 2h-9l-8-7-11-13-2-4z" fill="#FDFDFD"/>
<path transform="translate(905,993)" d="m0 0h5l1 1v10l-3 10-6 8-6 5-4 2-5-1v-9l5-12 6-9 5-4z" fill="#FDFDFD"/>
<path transform="translate(751,993)" d="m0 0h5l1 1v10l-4 11-6 8-5 4-4 2-5-1v-9l4-10 6-10 6-5z" fill="#FDFDFD"/>
<path transform="translate(396,184)" d="m0 0 7 1 47 15v9l-10-2-43-13-1-1z" fill="#068206"/>
<path transform="translate(580,1401)" d="m0 0 20 6 34 11v9l-9-2-44-13-1-1z" fill="#068206"/>
<path transform="translate(565,1380)" d="m0 0h2v36h2l1 34v92h-4z" fill="#168515"/>
<path transform="translate(110,963)" d="m0 0 4 1 17 17-6 7-4 3h-6l-13-13v-6z" fill="#078207"/>
<path transform="translate(383,196)" d="m0 0h1l1 8 1 35v85h-4v-127z" fill="#128412"/>
<path transform="translate(1388,590)" d="m0 0h56l2 1 1 5-1 1h-67l2-4 2-2z" fill="#FDFDFD"/>
<path transform="translate(925,1437)" d="m0 0h141v3h-141z" fill="#FDFDFD"/>
<path transform="translate(1121,244)" d="m0 0h10l5 1 1 5v9l-4 1h-15l-7-2-1-1v-10l3-2z" fill="#058105"/>
<path transform="translate(1128,223)" d="m0 0h6l3 3v10l-5 3-8 1h-13l-1-2v-10l7-3z" fill="#058105"/>
<path transform="translate(1214,283)" d="m0 0h6l5 4 1 5-3 3-2-7-5-1-2 1-1 6 1 4 10 1 3-4 3-8 8-1-1 9-5 8-6 4h-10l-8-7-1-3v-7l5-6z" fill="#088208"/>
<path transform="translate(1134,201)" d="m0 0h2v15l-9 3-9 2h-8v-12l9-4z" fill="#058105"/>
<path transform="translate(1133,180)" d="m0 0h3v15l-18 7h-8v-12l17-8z" fill="#058104"/>
<path transform="translate(1209,319)" d="m0 0 6 2 3 4v6h-3v-6l-7-1h-3l1 11 3 1h7l5-4 1-6 8 4-1 6-8 7-5 2-9-1-5-4-3-7 1-8 5-5z" fill="#068206"/>
<path transform="translate(948,1423)" d="m0 0h118v3h-118z" fill="#FDFDFD"/>
<path transform="translate(978,1451)" d="m0 0h88v4h-88z" fill="#FDFDFD"/>
<path transform="translate(189,899)" d="m0 0 5 1-1 9-3 13-3 2-17-17 1-4z" fill="#FDFDFD"/>
<path transform="translate(1395,577)" d="m0 0h49l2 1 1 5-23 1h-32l2-5z" fill="#FDFDFD"/>
<path transform="translate(1042,1487)" d="m0 0 4 1-2 5-3 6 10-5 4 1-2 6h9l2 4-2 1-8-1-4 3h-3v-7l-6 4-5 8h-3v-7l4-11-8 9-3-1 3-6 5-5z" fill="#FCFCFC"/>
<path transform="translate(1395,524)" d="m0 0h44l7 2v4l-2 1h-44l-4-2z" fill="#FDFDFD"/>
<path transform="translate(765,1073)" d="m0 0 7 1 1 1 1-2h2v21l-4 5-7 1-4-2-1-4 4 2h7l2-3v-3l-2 2h-7l-4-4-1-2v-7l4-5z" fill="#2C892A"/>
<path transform="translate(1400,537)" d="m0 0h46l1 2-2 5h-44z" fill="#FDFDFD"/>
<path transform="translate(374,301)" d="m0 0h2v11l-31 2-1-1v-8l2-1z" fill="#068206"/>
<path transform="translate(557,1402)" d="m0 0h3v10l-30 15h-2v-9l19-10z" fill="#068206"/>
<path transform="translate(372,243)" d="m0 0h4v10l-28 8h-4v-7l6-4z" fill="#068205"/>
<path transform="translate(559,1460)" d="m0 0h1v11l-29 8h-3v-7l6-4z" fill="#068205"/>
<path transform="translate(372,282)" d="m0 0h4v10l-25 4h-7v-8l5-2z" fill="#058205"/>
<path transform="translate(374,262)" d="m0 0h2v10l-6 2-25 5-1-1v-7l2-2z" fill="#068205"/>
<path transform="translate(374,223)" d="m0 0h2v10l-19 7-12 4-1-1v-7l14-7z" fill="#068206"/>
<path transform="translate(373,184)" d="m0 0h3v10l-30 15h-2v-9l19-10z" fill="#068206"/>
<path transform="translate(558,1480)" d="m0 0h2v10l-16 4-15 3-1-1v-7l5-3z" fill="#068205"/>
<path transform="translate(558,1441)" d="m0 0h2v10l-30 11-2-1v-7l16-8z" fill="#068205"/>
<path transform="translate(375,203)" d="m0 0h1v10l-12 6-17 7h-3v-8l16-8z" fill="#068206"/>
<path transform="translate(559,1421)" d="m0 0h1v10l-10 5-19 8h-3l1-9z" fill="#068205"/>
<path transform="translate(992,1465)" d="m0 0h74v4h-74z" fill="#FDFDFD"/>
<path transform="translate(1098,195)" d="m0 0h5v11l-12 6-7 2h-5v-10l16-8z" fill="#068206"/>
<path transform="translate(1091,229)" d="m0 0h12v8l-1 4-8 2h-14l-1-1v-8l4-3z" fill="#058104"/>
<path transform="translate(1421,563)" d="m0 0h11l13 1 2 6h-48l1-6z" fill="#FDFDFD"/>
<path transform="translate(458,348)" d="m0 0 2 4 3 5h7l4-1 2 4-8 14-3 1-4-9-12-1 2-5z" fill="#088207"/>
<path transform="translate(1097,212)" d="m0 0h6v11l-6 3-9 2h-9v-9l5-3z" fill="#058205"/>
<path transform="translate(666,1067)" d="m0 0h8l3 2 1 5-2 4 3 4v7l-3 3h-10z" fill="#2C892A"/>
<path transform="translate(507,349)" d="m0 0 3 3 7 12v1h-13l-3 9-3 1-8-14 1-5 4 1h8z" fill="#078207"/>
<path transform="translate(1087,245)" d="m0 0 16 1v12h-18l-6-2v-7l3-3z" fill="#068206"/>
<path transform="translate(1402,551)" d="m0 0h44v5l-2 1h-41l-1-1z" fill="#FDFDFD"/>
<path transform="translate(947,1463)" d="m0 0h8l11 4 5 4 5 7 2 6v14l-2 3-2-1v-15l-5-10-8-6-8-2-9 1-10 5-5 7-4 1 2-5 7-8 9-4z" fill="#0F830E"/>
<path transform="translate(349,1266)" d="m0 0h5l4 4 8-1 3 5v4h6l2 2-1 7-1 2 4 2 2 2-1 5-4 3h-2v-2l4-3v-4l-4-2-1-3 2-7h-6l-2-1-1-8-9 2-3-3v-2l-5 2-2 3-9-1-2 7-7 2 1 9-5 5 5 5-1 9 1 2-4-1 1-9-4-3v-6l4-3-1-9 2-2h6l1-7 2-2 9 1z" fill="#FDFDFD"/>
<path transform="translate(797,820)" d="m0 0 5 5 10 13 12 20 6 12-3 1-1 4h-2l-9-21-12-23-6-9z" fill="#2C892A"/>
<path transform="translate(557,1519)" d="m0 0h3v11l-23 2v-6l-2-4 13-2z" fill="#078206"/>
<path transform="translate(110,963)" d="m0 0 4 1 17 17-6 7-4 3h-6l-13-13v-6zm1 4-6 7 2 5 8 8 5 1 6-6-2-4-11-11z" fill="#FDFDFD"/>
<path transform="translate(676,1492)" d="m0 0 4 1 2 4 2-2v4l-4 8-2 9 6-1v7l-3-1v-2l-2 4h-1l1 5-7-1 2-1v-4l-4-1h4v-2l-4-1v-2l3-1 1-5-3-1 2-1-2-5h2l2 3 2-2v-5h-2v-6z" fill="#1F861D"/>
<path transform="translate(686,1517)" d="m0 0h1l2 13 2 7h2l2-5 8-6-1 4 5 1 2 3-7 1-5-1-2 3-1 15h-6v-12l-9-12-3-7 2-2 6 12 3 3-1-5z" fill="#FBFCFB"/>
<path transform="translate(277,510)" d="m0 0h13l7 2v4l-5 2h-22l-1-5 2-2z" fill="#FDFDFD"/>
<path transform="translate(687,1496)" d="m0 0 1 3 1 4 2 1 1-2 2 2h-2l-2 5-5-4-3-1 1 7h5l-1 6v12l1 6-6-5-3-7 2-6 2 1-1 3 2 1v-7l-6 1 1-9 2-6z" fill="#0B830A"/>
<path transform="translate(1408,464)" d="m0 0 9 1 3 3v8l-4 4h-9v-15z" fill="#FDFDFD"/>
<path transform="translate(179,481)" d="m0 0 9 1 11 6 4 5-1 4-6-1-13-7-4-4z" fill="#FDFDFD"/>
<path transform="translate(260,460)" d="m0 0h6l-2 8-6 12-4 4h-5l1-8 7-11z" fill="#FDFDFD"/>
<path transform="translate(509,1531)" d="m0 0 3 1 3 5 4-2 3 1-1 3v12l2 3h-11l-3-1 1-4v-10z" fill="#FDFDFD"/>
<path transform="translate(229,450)" d="m0 0 5 1 1 1v23l-1 3h-5l-1-2v-22z" fill="#FDFDFD"/>
<path transform="translate(263,529)" d="m0 0h6l18 11v6l-6-1-17-10-1-1z" fill="#FDFDFD"/>
<path transform="translate(204,460)" d="m0 0 5 1 8 13 3 8-1 3-5-1-7-11-3-6z" fill="#FDFDFD"/>
<path transform="translate(280,484)" d="m0 0h6l1 5-15 9-5 2h-4v-5l5-4z" fill="#FDFDFD"/>
<path transform="translate(332,1314)" d="m0 0 2 2 1 5h6l4-1 1 4-6 11h-2l-3-7-10-1z" fill="#098208"/>
<path transform="translate(370,1314)" d="m0 0 4 5 4 8h-10l-2 6-2 2-7-11 1-4 8 1 3-3z" fill="#088208"/>
<path transform="translate(679,1528)" d="m0 0 5 5 5 7v6h-2v6h-1v-9h-12l-1-10 4-1-4-3z" fill="#0E830D"/>
<path transform="translate(852,1075)" d="m0 0 5 2 2 3v6l-5 5-6-2-2-4 1-7z" fill="#FDFDFD"/>
<path transform="translate(767,1075)" d="m0 0 5 2 2 3v6l-4 4-7-1-2-3v-6l3-4z" fill="#FDFDFD"/>
<path transform="translate(918,1075)" d="m0 0 5 1 3 4v6l-3 4h-6l-3-3-1-6 3-5z" fill="#FDFDFD"/>
<path transform="translate(688,1496)" d="m0 0 4 1 1 5h3l1-3 1 2-2 3 4 2v3h-2v2l-4 1h-3l-4 5v-5l-5-1v-7l4 1 4 3 1-4-3-1-1-4z" fill="#69AB67"/>
<path transform="translate(897,1075)" d="m0 0 6 2 2 7-2 5-6 2-5-5v-6z" fill="#FDFDFD"/>
<path transform="translate(721,1075)" d="m0 0 5 2 2 2v8l-5 4-5-2-2-2v-8l3-3z" fill="#FDFDFD"/>
<path transform="translate(911,1066)" d="m0 0h2l1 9 3-2h6l4 4 1 2v8l-4 5-6 1-4-3-1 2h-2zm7 9-4 3-1 7 2 4 2 1h6l3-4v-6l-5-5z" fill="#2C892A"/>
<path transform="translate(728,1066)" d="m0 0h2v26h-4l-7 1-5-5-1-6 3-7 3-2 7 1 1 1zm-7 9-4 2-1 2v8l5 4 5-2 2-2v-8l-5-4z" fill="#2C892A"/>
<path transform="translate(895,1073)" d="m0 0h6l2 2 3-2 1 1v18l-4-1-3 2-6-1-4-5v-9zm2 2-5 5v6l5 5 6-2 2-7-3-6z" fill="#2C892A"/>
<path transform="translate(958,861)" d="m0 0h1v12l-3 16-6 12-9 8-9 4h-5l12-6 7-7 8-16 3-15z" fill="#2C892A"/>
<path transform="translate(850,1073)" d="m0 0 7 1 1 1 1-2h2v19h-4l-7 1-5-4-1-9 3-5zm2 2-5 3-1 7 3 5 5 1 5-5v-6l-3-4z" fill="#2C892A"/>
<path transform="translate(704,1509)" d="m0 0 3 3 6-1v5l-5 3h-2l-1 8-6 1v-3h-2v-6l4 1 2 3 1-3-2-1v-2h-2l-1-5h5z" fill="#89BE88"/>
<path transform="translate(942,853)" d="m0 0 13 1v1l-18 2-12 5-9 8-5 8-2 6-1-4 7-14 9-8 10-4z" fill="#2C892A"/>
<path transform="translate(580,1519)" d="m0 0 12 1v10h-10l-2-1z" fill="#088208"/>
<path transform="translate(580,1441)" d="m0 0 9 1 4 1-1 10-8-1-4-1z" fill="#088208"/>
<path transform="translate(1375,464)" d="m0 0 4 1 5 12v3h-3l-2-3h-5l-1 3-4-1z" fill="#E0EDDF"/>
<path transform="translate(580,1480)" d="m0 0 11 1 1 1v10l-10-1-2-1z" fill="#088207"/>
<path transform="translate(396,301)" d="m0 0 12 1v10h-11l-1-1z" fill="#088207"/>
<path transform="translate(396,262)" d="m0 0 10 1 2 1v10l-11-1-1-1z" fill="#088207"/>
<path transform="translate(396,223)" d="m0 0 8 1 5 2-1 9-9-1-3-1z" fill="#098208"/>
<path transform="translate(396,282)" d="m0 0h8l4 1v10l-12-1z" fill="#088207"/>
<path transform="translate(396,243)" d="m0 0 11 1 1 1v10l-12-2z" fill="#078207"/>
<path transform="translate(580,1500)" d="m0 0h9l3 1v10l-12-1z" fill="#078207"/>
<path transform="translate(580,1461)" d="m0 0h7l5 1v10l-11-1-1-1z" fill="#078207"/>
<path transform="translate(187,903)" d="m0 0h3l-1 9-2 6-7-6-5-6z" fill="#098209"/>
<path transform="translate(792,1066)" d="m0 0 5 1 2 4h-3l-4-1v5l7 7 1 6-4 5h-5l-4-4 1-3 5 4 3-1-1-7-7-8 1-6z" fill="#2C892A"/>
<path transform="translate(510,1528)" d="m0 0 4 2 1 5 4-3 5 1v6l4 1-4 1v2h-3v8h-1v-12l1-3-6 2-3-3-1-3-2-1 1 7h-3l-1-8z" fill="#168515"/>
<path transform="translate(810,957)" d="m0 0 5 2v7l-4 4-7-1-1-4 4-6z" fill="#2C892A"/>
<path transform="translate(1389,464)" d="m0 0h3l1 12h4l1-12h3v13l-3 3h-6l-3-2z" fill="#FDFDFD"/>
<path transform="translate(494,314)" d="m0 0 3 1-6 7-11 11-4-2-7-7 1-3 7 6h4z" fill="#0F830F"/>
<path transform="translate(741,1073)" d="m0 0h2l1 2 3-2h5l3 4v15h-2l-1-16-6 1-2 4-1 11h-2z" fill="#2C892A"/>
<path transform="translate(959,1073)" d="m0 0 3 1 5 12 5-13h2l-1 6-8 20h-2l2-9-6-15z" fill="#2C892A"/>
<path transform="translate(872,1073)" d="m0 0h2l1 2 3-2 6 1 2 4v14h-2l-1-13-2-3-5 1-1 2-1 13h-2z" fill="#2C892A"/>
<path transform="translate(804,1073)" d="m0 0h2l1 15 1 1h6l1-2 1-14h2v15l-5 5h-5l-4-4z" fill="#2C892A"/>
<path transform="translate(683,1073)" d="m0 0h2l1 14 1 2h6l1-1 1-15h2v16l-4 4-7-1-3-5z" fill="#2C892A"/>
<path transform="translate(630,1450)" d="m0 0 9 2v10l-7-1-2-2z" fill="#098209"/>
<path transform="translate(630,1481)" d="m0 0 9 1v10l-8-1-1-1z" fill="#098208"/>
<path transform="translate(446,263)" d="m0 0 9 1v10l-8-1-1-1z" fill="#098209"/>
<path transform="translate(630,1526)" d="m0 0 9 1v9h-9z" fill="#078207"/>
<path transform="translate(630,1511)" d="m0 0 9 1v9h-9z" fill="#088208"/>
<path transform="translate(630,1496)" d="m0 0 9 1v10l-9-1z" fill="#0A8209"/>
<path transform="translate(630,1466)" d="m0 0 9 1v10l-7-1-2-2z" fill="#088207"/>
<path transform="translate(446,278)" d="m0 0 9 1v10l-9-1z" fill="#098209"/>
<path transform="translate(446,248)" d="m0 0h6l3 2v9l-7-1-2-2z" fill="#098208"/>
<path transform="translate(446,232)" d="m0 0 9 2v10l-7-1-2-2z" fill="#088208"/>
<path transform="translate(446,293)" d="m0 0 9 1v8l-9 1z" fill="#088208"/>
<path transform="translate(645,1335)" d="m0 0 3 1 4-1v3l4-1v3h4l-2 6h-2l-1-4-3-1h-9l-3-1 1-3h3z" fill="#88BD87"/>
<path transform="translate(668,1500)" d="m0 0 4 1h-2l-2 9-7-1-1-1v-6l1-1z" fill="#068205"/>
<path transform="translate(683,1514)" d="m0 0h2l1 3 1 12 1 6-6-5-3-7 2-6 2 1-1 3 2 1z" fill="#138412"/>
<path transform="translate(668,1080)" d="m0 0h6l3 3-1 6-2 1h-6z" fill="#FDFDFD"/>
<path transform="translate(824,1073)" d="m0 0 6 1v3l-5-1v4l6 5-1 6-2 2-6-1-1-3h7l-1-4-5-4v-6z" fill="#2C892A"/>
<path transform="translate(1435,464)" d="m0 0h12v3l-4 1-1 12h-3v-13h-4z" fill="#FDFDFD"/>
<path transform="translate(646,1527)" d="m0 0h6l2 1v9l-8-1z" fill="#0B830A"/>
<path transform="translate(646,1469)" d="m0 0 8 2v9l-8-1z" fill="#0A820A"/>
<path transform="translate(462,251)" d="m0 0 8 2v9l-8-1z" fill="#0A8209"/>
<path transform="translate(646,1498)" d="m0 0 7 1 1 1v8h-8z" fill="#0A820A"/>
<path transform="translate(646,1484)" d="m0 0 8 1v9l-8-1z" fill="#0A820A"/>
<path transform="translate(646,1455)" d="m0 0 6 1 2 1v9l-8-2z" fill="#0A820A"/>
<path transform="translate(462,237)" d="m0 0 6 1 2 1v9l-8-2z" fill="#098209"/>
<path transform="translate(462,280)" d="m0 0 7 1 1 1v8h-8z" fill="#0B830A"/>
<path transform="translate(462,266)" d="m0 0 8 1v9l-8-1z" fill="#098209"/>
<path transform="translate(646,1513)" d="m0 0h7l1 1v8h-8z" fill="#088208"/>
<path transform="translate(836,1066)" d="m0 0h2v7l4 1-1 2h-3v16h-2v-16h-3l1-3h2z" fill="#2C892A"/>
<path transform="translate(608,1496)" d="m0 0h7v9l-1 1h-6z" fill="#118410"/>
<path transform="translate(660,1473)" d="m0 0 8 1v9l-7-1-1-2z" fill="#0E830E"/>
<path transform="translate(952,1066)" d="m0 0h2v7l4 1-1 2h-3v16h-2v-16l-3-1 1-2h2z" fill="#2C892A"/>
<path transform="translate(476,269)" d="m0 0 8 1v9l-8-2z" fill="#0F830F"/>
<path transform="translate(609,1526)" d="m0 0h6v9l-1 1h-6v-9z" fill="#108410"/>
<path transform="translate(609,1511)" d="m0 0h6v9l-1 1h-6v-9z" fill="#118410"/>
<path transform="translate(205,1144)" d="m0 0 2 1-25 25-2-1 11-12 7-7z" fill="#68AF68"/>
<path transform="translate(425,278)" d="m0 0h6v9l-1 1h-6v-9z" fill="#0B830B"/>
<path transform="translate(476,255)" d="m0 0 7 1 1 1v8l-7-1-1-2z" fill="#0F830E"/>
<path transform="translate(476,241)" d="m0 0 7 1 1 1v8l-7-1-1-1z" fill="#0F830E"/>
<path transform="translate(426,308)" d="m0 0 5 1v9h-7v-9z" fill="#088208"/>
<path transform="translate(425,293)" d="m0 0h5l1 1v8l-1 1h-6v-9z" fill="#0E830D"/>
<path transform="translate(687,1523)" d="m0 0h7l-3 1 1 6h4l1-4h2l1 3-5 4-2 4h-2l-4-11z" fill="#128411"/>
<path transform="translate(661,1514)" d="m0 0 6 1 1 5 2 1h-2v3l-7-1-1-1v-6z" fill="#0C830B"/>
<path transform="translate(613,1480)" d="m0 0 2 3v7l-7 1v-10z" fill="#0F830E"/>
<path transform="translate(611,1450)" d="m0 0h3l1 2v7l-7 2v-10z" fill="#0F830E"/>
<path transform="translate(612,1465)" d="m0 0h2l1 9-4 2h-3v-9z" fill="#0E830D"/>
<path transform="translate(1410,467)" d="m0 0h5l2 2v6l-2 2h-5z" fill="#0E830D"/>
<path transform="translate(661,1528)" d="m0 0h6l1 1v8h-7z" fill="#098209"/>
<path transform="translate(660,1487)" d="m0 0h6l2 1v9l-7-2z" fill="#098209"/>
<path transform="translate(661,1459)" d="m0 0 7 1v9l-6-1-1-1z" fill="#068206"/>
<path transform="translate(360,1288)" d="m0 0h2l-2 4-10 10-4-2-5-6h3l4 4 4-2z" fill="#188517"/>
<path transform="translate(331,154)" d="m0 0 2 1-22 22-2-1 11-12z" fill="#68AF67"/>
<path transform="translate(425,263)" d="m0 0h5l1 9-7 1v-9z" fill="#058104"/>
<path transform="translate(695,1492)" d="m0 0 4 1v4l3 1-2 3-3-1-1 2h-3l-2-6h2z" fill="#64AE63"/>
<path transform="translate(428,232)" d="m0 0h2v10l-6 1v-10z" fill="#068205"/>
<path transform="translate(600,1512)" d="m0 0h3v10h-6v-9z" fill="#10830F"/>
<path transform="translate(171,960)" d="m0 0 4 1-1 4-5 5h-4l1-5z" fill="#0D830D"/>
<path transform="translate(415,265)" d="m0 0h4v9l-1 1h-5v-9z" fill="#0D830C"/>
<path transform="translate(429,247)" d="m0 0h1v10l-6 1v-9z" fill="#068206"/>
<path transform="translate(676,1492)" d="m0 0 4 1 2 4 2-2v4l-1 2-4 1-2-1v-2h-2v-6z" fill="#2E8F2D"/>
<path transform="translate(599,1483)" d="m0 0h4v9l-6 1v-9z" fill="#0B830B"/>
<path transform="translate(602,1453)" d="m0 0h1v10l-6 1v-9z" fill="#0B830B"/>
<path transform="translate(116,904)" d="m0 0 3 1-1 5-6 5-3-2 2-4z" fill="#0D830C"/>
<path transform="translate(103,440)" d="m0 0 2 1-21 21-2-1 11-12z" fill="#69B068"/>
<path transform="translate(414,309)" d="m0 0h5v10l-6-1v-8z" fill="#0C830C"/>
<path transform="translate(417,294)" d="m0 0h2v10h-6v-9z" fill="#10840F"/>
<path transform="translate(690,1481)" d="m0 0 2 1-2 7-4 2-1-1-2 3-1-1 1-8 4 1 1-3z" fill="#AED3AE"/>
<path transform="translate(418,235)" d="m0 0h1v10l-6 1v-9z" fill="#0C830B"/>
<path transform="translate(597,1527)" d="m0 0h6v9h-6z" fill="#0A820A"/>
<path transform="translate(597,1498)" d="m0 0h6v9h-6z" fill="#098209"/>
<path transform="translate(601,1468)" d="m0 0h2v9l-1 1h-5v-8z" fill="#0B830A"/>
<path transform="translate(130,918)" d="m0 0 3 1-1 4-7 6-2-4 4-5z" fill="#098209"/>
<path transform="translate(418,250)" d="m0 0h1v10h-6v-8z" fill="#0B830A"/>
<path transform="translate(414,280)" d="m0 0h5v9h-6v-8z" fill="#098208"/>
<path transform="translate(937,1466)" d="m0 0 2 1v3l-6 4-4 6-4 1 2-5 7-8z" fill="#148413"/>
<path transform="translate(668,1069)" d="m0 0 6 1 1 1v5l-1 1h-6z" fill="#FDFDFD"/>
<path transform="translate(185,974)" d="m0 0 4 1-2 4-5 5h-3l-1-3z" fill="#0C830B"/>
<path transform="translate(680,1505)" d="m0 0h1l2 6h5l-1 6h-2v-3l-7 2 1-9z" fill="#038103"/>
<path transform="translate(509,1343)" d="m0 0 2 1-20 20-2-1 10-11 8-7z" fill="#5EAA5D"/>
<path transform="translate(902,1347)" d="m0 0 2 1-20 20-2-1 12-13z" fill="#64AD64"/>
<path transform="translate(1426,464)" d="m0 0h3v16h-3z" fill="#FDFDFD"/>
<path transform="translate(446,308)" d="m0 0 4 1 2 4v3l-3 2h-3z" fill="#118410"/>
<path transform="translate(1371,782)" d="m0 0 2 1-19 19-2-1 9-10 8-7z" fill="#5FAA5E"/>
<path transform="translate(637,1341)" d="m0 0 3 1v10l1 3-4-1v-2h-2l1-4-1-3h2z" fill="#98C698"/>
<path transform="translate(701,1529)" d="m0 0 6 2 2 3-7 1-4-2z" fill="#9EC99D"/>
<path transform="translate(654,1337)" d="m0 0h2v3h4l-2 6h-2l-1-4-3-1-1-3z" fill="#77B476"/>
<path transform="translate(672,1527)" d="m0 0h6l1 2-3 1 3 2-6 1-3-4z" fill="#FDFDFD"/>
<path transform="translate(680,1515)" d="m0 0h4v7l-3-1v-2l-2 4-1-1v-6z" fill="#97C796"/>
<path transform="translate(520,1375)" d="m0 0h2l-1 4-4 7-1-2 1-2h-2l2-5z" fill="#6EB36D"/>
<path transform="translate(647,1350)" d="m0 0 3 1-2 4-2 6-3-4 2-5z" fill="#6CB16B"/>
<path transform="translate(670,1501)" d="m0 0 5 2 1 5-3-3v-2h-2l3 6-4-1-1-4z" fill="#FDFDFD"/>
<path transform="translate(670,1521)" d="m0 0h6l3 4-1 3-6-1 2-1v-4z" fill="#118410"/>
<path transform="translate(682,1504)" d="m0 0 4 1 2 2-1 3-2-2 1 4-4-1z" fill="#FDFDFD"/>
<path transform="translate(476,283)" d="m0 0h7v3l-5 1v2h-2z" fill="#178516"/>
<path transform="translate(668,1500)" d="m0 0 4 1h-2l-2 9h-5l4-1v-7l-3-1z" fill="#3A9138"/>
<path transform="translate(676,1512)" d="m0 0h1v9h-3v-2l-4-1v-2l5-1z" fill="#61A960"/>
<path transform="translate(667,1515)" d="m0 0h6l1 2-4-1v2l4 1v2l-6-1z" fill="#FDFDFD"/>
<path transform="translate(678,1501)" d="m0 0 4 1-3 9h-2l-1-7z" fill="#519D4F"/>
<path transform="translate(676,1492)" d="m0 0 4 1 1 5h-2l-1-1-1 3-2-1v-6z" fill="#FDFDFD"/>
<path transform="translate(943,1464)" d="m0 0 3 1 3 2-8 2-4-1 3-3z" fill="#118410"/>
<path transform="translate(688,1496)" d="m0 0 4 1 1 4-2-2v5l-3-1-1-4z" fill="#F5F8F5"/>
</svg>
