<svg xmlns="http://www.w3.org/2000/svg" width="250" height="150" viewBox="0 0 1654 1323" version="1.1"><path d="M 1083.500 47.588 C 1063.716 56.129, 1026.141 74.623, 1006.353 85.559 C 937.015 123.878, 865.076 175.662, 824.500 216.463 C 768.092 273.184, 730.886 323.383, 704.424 378.473 C 697.573 392.735, 686 420.668, 686 422.941 C 686 424.470, 685.689 424.401, 672.500 419.956 C 657.598 414.934, 643.787 411.388, 629.500 408.916 C 612.537 405.981, 610.955 406.616, 624.500 410.923 C 688.385 431.239, 746.340 458.086, 802.422 493.343 C 812.174 499.473, 815.463 501.103, 815.827 499.983 C 817.308 495.434, 838.858 454.432, 846.040 442.500 C 857.207 423.945, 882.286 386.188, 899.509 362 C 914.244 341.305, 945.984 298, 946.417 298 C 946.559 298, 932.660 326.012, 915.531 360.250 C 879.093 433.082, 857.128 481.025, 843.645 517.154 L 841.162 523.808 849.331 529.245 C 879.502 549.326, 908.313 579.060, 927.214 609.622 C 949.895 646.298, 965.133 693.404, 970.086 742.155 C 971.895 759.955, 971.014 759.319, 981.507 750.395 C 993.703 740.024, 1016.250 717.697, 1026.883 705.461 C 1061.544 665.577, 1087.600 619.219, 1105.551 565.500 C 1126.912 501.571, 1136.006 433.762, 1135.994 338.500 C 1135.983 252.209, 1127.743 173.718, 1108.960 81 C 1102.588 49.545, 1100.720 41.727, 1099.495 41.388 C 1098.948 41.236, 1091.750 44.026, 1083.500 47.588 M 597.134 477.234 C 590.779 507.858, 588.750 522.847, 586.919 552.718 C 585.230 580.264, 586.233 629.014, 588.889 648.500 C 597.315 710.307, 616.252 758.670, 648.705 801.265 C 658.513 814.138, 679.436 835.739, 692.500 846.480 C 736.137 882.358, 791.874 907.141, 828.500 906.952 L 835.500 906.916 817.997 901.073 C 767.234 884.125, 734.446 863.591, 698.920 826.500 C 676.516 803.108, 657.590 775.851, 641.611 743.960 C 618.448 697.734, 605.200 649.766, 598.814 589 C 596.794 569.779, 597.107 500.104, 599.308 479.097 C 600.253 470.075, 600.863 462.530, 600.664 462.331 C 600.465 462.131, 598.876 468.838, 597.134 477.234 M 751.319 573.149 C 800.985 634.365, 846.855 722.694, 871.982 805.500 C 891.092 868.478, 899.318 919.263, 904.056 1003.500 C 905.544 1029.955, 905.526 1085.828, 904.024 1104 C 902.958 1116.885, 900.075 1136.816, 898.441 1142.592 C 897.869 1144.613, 898.280 1144.706, 910.675 1145.338 C 917.729 1145.698, 930.969 1145.994, 940.098 1145.996 L 956.696 1146 957.301 1126.750 C 958.693 1082.415, 967.799 1029.881, 981.004 990 C 996.198 944.114, 1020.206 896.508, 1048.656 855.853 C 1081.111 809.474, 1128.621 759.128, 1161.015 736.786 L 1163.500 735.073 1160.129 736.176 C 1148.928 739.844, 1113.922 759.389, 1093.785 773.218 C 1027.206 818.944, 976.720 885.405, 955.320 955.500 C 952.339 965.263, 948.054 985.221, 947.912 990 C 947.855 991.925, 946.769 986.075, 945.498 977 C 940.137 938.720, 933.086 905.509, 922.464 868.500 C 889.285 752.906, 833.681 654.177, 759.700 579.500 L 741.868 561.500 751.319 573.149 M 1173.852 662.053 C 1135.809 665.299, 1106.884 683.435, 1090.434 714.358 C 1084.927 724.709, 1082.337 732.115, 1081.581 739.667 L 1080.997 745.500 1083.386 739 C 1090.998 718.295, 1099.505 706.143, 1114.851 694.056 C 1128.874 683.010, 1139.809 677.273, 1156.842 672.026 C 1171.481 667.516, 1182.626 665.875, 1203.500 665.155 L 1222.500 664.500 1213.500 663.273 C 1200.970 661.565, 1185.248 661.081, 1173.852 662.053 M 1229.122 681.199 C 1228.828 699.737, 1224.304 722.817, 1217.498 740.500 C 1203.800 776.086, 1175.392 802.697, 1144.250 809.113 C 1136.361 810.738, 1136.008 812.463, 1143.750 811.558 C 1163.464 809.254, 1183.144 799.815, 1197.859 785.606 C 1214.486 769.551, 1224.116 750.059, 1228.543 723.500 C 1230.483 711.859, 1231.408 687.186, 1230.193 679.500 L 1229.244 673.500 1229.122 681.199 M 787.866 926.966 C 780.327 931.959, 773.999 942.877, 775.403 948.470 C 776.433 952.574, 789.513 955.913, 797.347 954.071 C 804.813 952.316, 809.939 944.651, 809.978 935.184 C 810.005 928.623, 808.942 926.524, 804.872 925.105 C 798.956 923.043, 792.765 923.720, 787.866 926.966 M 1252.030 936.239 C 1247.800 938.448, 1245.387 943.395, 1243.032 954.684 C 1237.978 978.901, 1228.192 1017.131, 1226.594 1018.896 C 1224.919 1020.747, 1221.717 1021.140, 1189.112 1023.490 C 1185.599 1023.743, 1181.608 1024.682, 1180.244 1025.576 C 1178.039 1027.021, 1177.821 1027.715, 1178.283 1031.818 C 1178.681 1035.347, 1179.537 1037.091, 1181.917 1039.218 C 1183.630 1040.748, 1186.037 1042.007, 1187.266 1042.015 C 1192.804 1042.053, 1192.112 1043.589, 1182.236 1053.172 C 1159.745 1074.997, 1138.981 1086.213, 1123.775 1084.752 C 1117.573 1084.156, 1112.531 1080.240, 1108.558 1072.932 C 1103.891 1064.346, 1103.852 1055.520, 1108.394 1036 C 1110.377 1027.475, 1112 1018.625, 1112 1016.333 C 1112 1008.043, 1105.833 998.150, 1099.217 995.829 C 1097.039 995.065, 1090.946 994.520, 1084.500 994.512 C 1073.610 994.500, 1073.415 994.542, 1065 998.666 C 1037.756 1012.018, 1014.012 1040.700, 1003.462 1073 C 999.869 1084.001, 999.372 1100.462, 1002.387 1108.581 C 1008.180 1124.182, 1016.285 1128.538, 1031.129 1124.030 C 1047.060 1119.191, 1057.689 1112.113, 1076.612 1093.744 L 1088.723 1081.987 1090.482 1086.592 C 1091.509 1089.280, 1094.447 1093.404, 1097.540 1096.497 C 1104.414 1103.371, 1111.142 1106.005, 1121.788 1105.988 C 1140.184 1105.960, 1154.513 1098.449, 1179.955 1075.500 C 1194.497 1062.382, 1203.633 1051.956, 1205.217 1046.670 C 1206.557 1042.199, 1208.824 1041, 1215.943 1041 C 1223.967 1041, 1223.991 1041.181, 1219.032 1064.318 C 1216.653 1075.418, 1213.406 1090.575, 1211.816 1098 C 1208.027 1115.702, 1208.110 1128.868, 1212.059 1136.533 C 1215.189 1142.607, 1219.891 1146, 1225.180 1146 C 1232.439 1146, 1241 1140.877, 1241 1136.534 C 1241 1135.344, 1239.019 1132.472, 1236.476 1129.977 C 1233.817 1127.366, 1231.547 1124.031, 1230.968 1121.881 C 1229.102 1114.951, 1234.547 1082.337, 1242.378 1053.543 C 1246.542 1038.232, 1246.835 1037.554, 1249.609 1036.804 C 1253.258 1035.818, 1264.078 1034.483, 1284.597 1032.486 C 1301.503 1030.840, 1317.642 1027.643, 1327.172 1024.052 C 1334.597 1021.254, 1340.253 1015.270, 1339.808 1010.683 C 1339.541 1007.921, 1339.082 1007.459, 1336.342 1007.194 C 1334.605 1007.025, 1327.630 1008.061, 1320.842 1009.497 C 1294.669 1015.031, 1253.859 1017.945, 1250.988 1014.485 C 1248.758 1011.799, 1252.074 996.408, 1262.375 961.638 C 1265.828 949.982, 1265.950 941.241, 1262.702 938.190 C 1259.762 935.427, 1255.184 934.591, 1252.030 936.239 M 375.500 939.085 C 352.185 942.470, 331.071 949.021, 322.527 955.523 C 319.023 958.189, 318.462 959.166, 318.206 963.044 C 317.665 971.250, 321.137 972.783, 332.803 969.487 C 337.327 968.209, 339.412 968.012, 340.189 968.789 C 341.891 970.491, 342.508 1009.719, 341.045 1023.160 C 340.366 1029.397, 337.967 1045.075, 335.715 1058 C 331.949 1079.609, 331.615 1082.988, 331.560 1100 C 331.508 1115.890, 331.750 1118.957, 333.271 1121.741 C 335.572 1125.952, 339.077 1128.177, 344.769 1129.041 C 350.300 1129.880, 355.067 1128.707, 358.651 1125.623 L 361.306 1123.340 358.768 1117.920 C 351.801 1103.044, 352.134 1087.870, 360.534 1037.593 C 366.783 1000.187, 366.841 986.792, 360.833 968.186 C 359.712 964.713, 358.953 961.728, 359.147 961.551 C 360.035 960.743, 385.795 956.896, 397.370 955.843 C 423.983 953.422, 444.335 959.739, 457.964 974.651 C 463.378 980.575, 465.545 986.137, 464.463 991.334 C 462.728 999.669, 453.592 1009.493, 438 1019.790 C 419.436 1032.050, 403.882 1037.957, 384.849 1039.975 C 375.790 1040.936, 374.220 1041.387, 372.250 1043.592 C 369.181 1047.029, 369.352 1053.864, 372.646 1059.440 C 373.701 1061.226, 375.052 1061.384, 389.678 1061.440 L 405.563 1061.500 411.032 1065.400 C 414.039 1067.545, 427.467 1077.850, 440.872 1088.300 C 486.684 1124.015, 497.912 1130.945, 511.219 1131.720 C 517.400 1132.080, 519.179 1131.794, 522.991 1129.822 C 525.461 1128.545, 528.161 1126.216, 528.991 1124.647 C 530.378 1122.024, 530.352 1121.701, 528.668 1120.647 C 513.431 1111.111, 432.130 1055.197, 428.234 1051.573 C 427.238 1050.648, 428.737 1049.409, 435.234 1045.785 C 460.340 1031.783, 475.405 1018.427, 482.364 1004 C 485.227 998.065, 485.494 996.674, 485.430 988 C 485.350 977.043, 483.177 970.138, 477.449 962.637 C 473.663 957.678, 464.515 950.753, 456.309 946.633 C 438.869 937.876, 405.379 934.748, 375.500 939.085 M 618.844 996.322 C 610.048 999.519, 601.534 1004.787, 591.021 1013.536 C 569.669 1031.307, 551.395 1063.585, 548.539 1088.568 C 546.582 1105.699, 556.009 1124.458, 567.211 1125.720 C 573.277 1126.404, 582.243 1123.903, 592.887 1118.557 C 603.796 1113.078, 609.994 1108.215, 625.126 1093.265 L 636.752 1081.779 639.239 1087.139 C 642.464 1094.092, 648.019 1099.555, 655.500 1103.131 C 660.566 1105.552, 662.751 1105.999, 669.540 1105.999 C 690.147 1106.001, 707.506 1096.002, 736.925 1067.185 C 746.883 1057.431, 750.478 1053.197, 752.439 1048.913 C 755.764 1041.652, 756.648 1035.157, 754.672 1032.518 C 753.255 1030.625, 752.517 1031.213, 738.344 1045.530 C 711.619 1072.524, 691.547 1084.947, 674.588 1084.988 C 665.163 1085.011, 657.895 1078.326, 654.446 1066.464 C 652.303 1059.090, 652.960 1051.958, 657.544 1032.850 C 659.437 1024.957, 660.989 1017.323, 660.993 1015.884 C 660.997 1014.446, 659.369 1010.008, 657.375 1006.023 C 652.757 996.792, 649.365 995.012, 635.127 994.350 C 626.752 993.961, 624.635 994.218, 618.844 996.322 M 775 1006.083 C 769.902 1009.181, 767.046 1012.030, 764.959 1016.099 C 759.460 1026.820, 757.501 1072.533, 761.758 1090.776 C 766.127 1109.496, 775.743 1123.064, 787.013 1126.411 C 797.558 1129.543, 809.702 1127.691, 820.962 1121.234 C 837.164 1111.943, 865.700 1085.616, 882.180 1064.754 C 895.186 1048.290, 898.448 1040.244, 894.229 1035.034 L 892.458 1032.847 888.990 1037.173 C 876.883 1052.277, 854.404 1074.121, 838.907 1085.843 C 823.188 1097.732, 809.674 1104.140, 799.835 1104.368 C 790.835 1104.578, 787.310 1100.318, 783.965 1085.190 C 781.186 1072.623, 781.377 1055.865, 784.547 1034.277 C 785.948 1024.735, 786.960 1014.132, 786.797 1010.714 L 786.500 1004.500 782.500 1004.228 C 779.803 1004.044, 777.360 1004.648, 775 1006.083 M 622 1013.937 C 611.222 1017.236, 595.508 1030.920, 586.540 1044.814 C 580.233 1054.588, 571.630 1072.926, 569.480 1081.180 C 567.430 1089.056, 567.827 1097.561, 570.432 1101.537 C 572.118 1104.110, 572.535 1104.229, 578.084 1103.726 C 589.382 1102.702, 608.930 1090.943, 618.562 1079.377 C 631.961 1063.288, 637.529 1049.602, 638.667 1029.968 C 639.171 1021.259, 638.989 1018.879, 637.613 1016.218 C 636.023 1013.143, 635.694 1013.004, 630.224 1013.086 C 627.076 1013.133, 623.375 1013.516, 622 1013.937 M 1072.254 1014.460 C 1065.644 1016.525, 1059.112 1021.223, 1050.337 1030.224 C 1029.233 1051.872, 1014.598 1087.653, 1021.437 1100.879 C 1022.878 1103.665, 1023.530 1104, 1027.503 1104 C 1037.128 1104, 1052.755 1095.969, 1064.273 1085.104 C 1081.327 1069.016, 1090.113 1049.580, 1090.379 1027.357 C 1090.530 1014.709, 1089.457 1012.964, 1081.595 1013.067 C 1078.793 1013.104, 1074.589 1013.731, 1072.254 1014.460 M 569.250 1170.750 C 709.913 1170.890, 940.088 1170.890, 1080.750 1170.750 C 1221.413 1170.610, 1106.325 1170.496, 825 1170.496 C 543.675 1170.496, 428.588 1170.610, 569.250 1170.750 M 477.223 1197.557 C 474.805 1199.250, 474.291 1202.891, 476.200 1204.800 C 478.101 1206.701, 482.792 1206.258, 483.965 1204.066 C 485.435 1201.318, 485.269 1200.269, 483 1198 C 480.592 1195.592, 480.083 1195.553, 477.223 1197.557 M 573.881 1197.895 C 571.869 1199.525, 571.680 1200.191, 572.539 1202.645 C 574.327 1207.759, 582 1206.776, 582 1201.434 C 582 1199.408, 578.794 1196, 576.888 1196 C 576.522 1196, 575.168 1196.853, 573.881 1197.895 M 956.881 1197.895 C 954.869 1199.525, 954.680 1200.191, 955.539 1202.645 C 957.327 1207.759, 965 1206.776, 965 1201.434 C 965 1199.408, 961.794 1196, 959.888 1196 C 959.522 1196, 958.168 1196.853, 956.881 1197.895 M 1152.223 1197.557 C 1148.089 1200.452, 1149.914 1206, 1155 1206 C 1158.194 1206, 1160 1204.322, 1160 1201.357 C 1160 1199.450, 1156.780 1196, 1155 1196 C 1154.695 1196, 1153.445 1196.701, 1152.223 1197.557 M 1188.223 1197.557 C 1185.805 1199.250, 1185.291 1202.891, 1187.200 1204.800 C 1189.101 1206.701, 1193.792 1206.258, 1194.965 1204.066 C 1196.435 1201.318, 1196.269 1200.269, 1194 1198 C 1191.592 1195.592, 1191.083 1195.553, 1188.223 1197.557 M 495 1229.934 L 495 1263 498.014 1263 L 501.027 1263 500.764 1230.250 L 500.500 1197.500 497.750 1197.184 L 495 1196.867 495 1229.934 M 555 1210.696 L 555 1224.392 551.750 1221.247 C 547.449 1217.084, 542.194 1215, 536 1215 C 522.372 1215, 511.875 1225.610, 511.875 1239.383 C 511.875 1246.800, 513.460 1251.176, 518.030 1256.382 C 526.456 1265.978, 540.259 1267.265, 550.544 1259.414 L 555 1256.013 555 1259.507 C 555 1262.721, 555.239 1263, 558 1263 L 561 1263 561 1230 L 561 1197 558 1197 L 555 1197 555 1210.696 M 741.684 1198.457 C 734.896 1200.863, 731 1205.981, 731 1212.490 C 731 1218.601, 734.275 1223.275, 743.850 1230.827 C 754.423 1239.168, 757.455 1243.031, 757.455 1248.167 C 757.455 1255.164, 748.687 1260.770, 742.047 1258.020 C 738.955 1256.739, 733 1250.762, 733 1248.940 C 733 1248.395, 731.646 1248.649, 729.990 1249.505 C 727.109 1250.995, 727.041 1251.178, 728.401 1253.781 C 730.420 1257.645, 734.888 1261.638, 739.218 1263.447 C 750.940 1268.344, 764.385 1260.132, 764.385 1248.076 C 764.385 1241.417, 760.580 1235.404, 752.266 1228.924 C 740.221 1219.538, 738 1217.044, 738 1212.908 C 738 1207.312, 740.797 1204.500, 746.363 1204.500 C 750.248 1204.500, 751.452 1205.034, 754.702 1208.200 C 758.454 1211.855, 758.529 1211.878, 760.869 1210.106 C 762.873 1208.588, 763.063 1207.987, 762.105 1206.197 C 760.527 1203.247, 755.078 1199.285, 751.500 1198.485 C 749.850 1198.116, 747.825 1197.654, 747 1197.459 C 746.175 1197.264, 743.783 1197.713, 741.684 1198.457 M 1092.667 1197.667 C 1092.300 1198.033, 1092 1212.883, 1092 1230.667 L 1092 1263 1095 1263 C 1097.849 1263, 1098 1262.792, 1098 1258.873 L 1098 1254.745 1102.372 1258.775 C 1117.073 1272.326, 1141.393 1260.610, 1141.346 1240 C 1141.312 1225.382, 1131.345 1214.970, 1117.434 1215.022 C 1110.958 1215.046, 1104.722 1217.344, 1101.595 1220.859 C 1100.547 1222.036, 1099.310 1223, 1098.845 1223 C 1098.380 1223, 1098 1217.150, 1098 1210 C 1098 1197.048, 1097.991 1197, 1095.667 1197 C 1094.383 1197, 1093.033 1197.300, 1092.667 1197.667 M 1170 1230 L 1170 1263 1173 1263 L 1176 1263 1176 1230 L 1176 1197 1173 1197 L 1170 1197 1170 1230 M 872 1207 L 872 1216 867.500 1216 C 863.367 1216, 863 1216.204, 863 1218.500 C 863 1220.796, 863.367 1221, 867.500 1221 L 872 1221 872 1242 L 872 1263 875 1263 L 878 1263 878 1242 L 878 1221 882.500 1221 C 886.633 1221, 887 1220.796, 887 1218.500 C 887 1216.204, 886.633 1216, 882.500 1216 L 878 1216 878 1207 L 878 1198 875 1198 L 872 1198 872 1207 M 1212 1207 L 1212 1216 1208 1216 C 1204.400 1216, 1204 1216.250, 1204 1218.500 C 1204 1220.750, 1204.400 1221, 1208 1221 L 1212 1221 1212 1242 L 1212 1263 1215 1263 L 1218 1263 1218 1242 L 1218 1221 1223 1221 C 1227.667 1221, 1228 1220.833, 1228 1218.500 C 1228 1216.167, 1227.667 1216, 1223 1216 L 1218 1216 1218 1207 L 1218 1198 1215 1198 L 1212 1198 1212 1207 M 373 1231 L 373 1263 384.935 1263 C 397.920 1263, 401.026 1262.267, 405.339 1258.186 C 409.538 1254.214, 411 1250.730, 411 1244.698 C 411 1238.208, 408.306 1233.577, 402.705 1230.435 L 398.968 1228.339 401.086 1226.422 C 404.850 1223.015, 406.255 1219.086, 405.775 1213.304 C 405.412 1208.923, 404.729 1207.315, 402.058 1204.560 C 398.016 1200.390, 392.892 1199, 381.557 1199 L 373 1199 373 1231 M 379 1215.471 L 379 1226.233 385.489 1225.820 C 395.379 1225.190, 401.317 1219.585, 399.353 1212.734 C 398.003 1208.030, 394.411 1206.002, 386.207 1205.314 L 379 1204.710 379 1215.471 M 608.500 1216.339 C 606.850 1217.092, 604.038 1219.079, 602.250 1220.755 L 599 1223.802 599 1219.901 C 599 1216.233, 598.821 1216, 596 1216 L 593 1216 593 1239.500 L 593 1263 596 1263 L 599 1263 599.006 1249.750 C 599.012 1234.314, 600.018 1229.782, 604.413 1225.387 C 611.118 1218.682, 621.018 1218.936, 625.734 1225.933 C 627.866 1229.097, 628 1230.293, 628 1246.148 L 628 1263 631 1263 L 634 1263 633.978 1245.750 C 633.953 1226.231, 632.935 1222.226, 626.909 1217.935 C 622.866 1215.056, 613.157 1214.214, 608.500 1216.339 M 661.137 1216.369 C 656.314 1218.115, 650.324 1223.467, 647.765 1228.319 C 646.105 1231.465, 645.552 1234.252, 645.530 1239.578 C 645.504 1245.741, 645.892 1247.290, 648.526 1251.552 C 652.493 1257.968, 659.243 1262.190, 666.498 1262.791 C 674.110 1263.423, 678.150 1262.437, 683.954 1258.531 C 689.456 1254.828, 689.533 1254.915, 687.988 1263.061 C 686.285 1272.041, 680.782 1276, 670 1276 C 662.637 1276, 658.281 1274.311, 654.714 1270.072 C 652.583 1267.539, 651.384 1266.937, 648.967 1267.186 L 645.913 1267.500 648.843 1272.106 C 655.959 1283.291, 676.924 1285.477, 687.299 1276.115 C 693.996 1270.072, 694.319 1268.553, 694.797 1240.750 L 695.224 1216 692.112 1216 C 689.222 1216, 689 1216.250, 689 1219.500 C 689 1223.532, 688.090 1223.876, 685.405 1220.859 C 680.743 1215.619, 669.142 1213.472, 661.137 1216.369 M 834.143 1217.533 C 825.541 1224.771, 828.527 1235.180, 841.023 1241.512 C 846.191 1244.130, 850 1248.190, 850 1251.079 C 850 1252.074, 848.923 1254.141, 847.606 1255.672 C 844.461 1259.327, 838.547 1259.520, 833.942 1256.116 C 830.799 1253.792, 830.766 1253.789, 828.817 1255.739 C 826.868 1257.688, 826.875 1257.717, 829.973 1260.324 C 838.624 1267.603, 850.529 1265.159, 854.667 1255.255 C 857.528 1248.406, 854.590 1242.603, 845.614 1237.376 C 837.498 1232.649, 835 1230.203, 835 1226.981 C 835 1221.038, 843.184 1218.542, 848.875 1222.749 C 851.718 1224.851, 851.819 1224.857, 853.489 1223.012 C 855.606 1220.673, 854.929 1219.515, 849.972 1216.986 C 844.380 1214.133, 837.918 1214.356, 834.143 1217.533 M 908.168 1217.603 C 899.512 1221.917, 895 1229.643, 895 1240.152 C 895 1247.731, 897.494 1253.406, 903.017 1258.396 C 911.504 1266.063, 924.266 1266.496, 933.522 1259.431 L 938 1256.013 938 1259.507 C 938 1262.721, 938.239 1263, 941 1263 L 944 1263 944 1239.500 L 944 1216 941 1216 C 938.143 1216, 938 1216.200, 938 1220.196 L 938 1224.392 934.750 1221.247 C 927.739 1214.461, 917.336 1213.035, 908.168 1217.603 M 991.500 1216.339 C 989.850 1217.092, 987.038 1219.079, 985.250 1220.755 L 982 1223.802 982 1219.901 C 982 1216.233, 981.821 1216, 979 1216 L 976 1216 976 1239.500 L 976 1263 979 1263 L 982 1263 982.006 1249.750 C 982.012 1234.314, 983.018 1229.782, 987.413 1225.387 C 994.118 1218.682, 1004.018 1218.936, 1008.734 1225.933 C 1010.866 1229.097, 1011 1230.293, 1011 1246.148 L 1011 1263 1014 1263 L 1017 1263 1016.978 1245.750 C 1016.953 1226.231, 1015.935 1222.226, 1009.909 1217.935 C 1005.866 1215.056, 996.157 1214.214, 991.500 1216.339 M 1044.137 1216.369 C 1028.456 1222.044, 1023.407 1243.590, 1034.802 1256.203 C 1043.659 1266.006, 1057.172 1267.331, 1067.544 1259.414 L 1072 1256.013 1072 1259.507 C 1072 1262.721, 1072.239 1263, 1075 1263 L 1078 1263 1078 1239.500 L 1078 1216 1075 1216 C 1072.143 1216, 1072 1216.200, 1072 1220.196 L 1072 1224.392 1068.750 1221.247 C 1066.963 1219.517, 1063.827 1217.404, 1061.782 1216.551 C 1057.418 1214.731, 1048.907 1214.643, 1044.137 1216.369 M 422.238 1232.250 C 422.823 1250.573, 424.003 1255.039, 429.543 1259.904 C 437.004 1266.454, 450.964 1266.036, 457.947 1259.053 C 462.973 1254.027, 464 1249.276, 464 1231.057 L 464 1216 461.101 1216 L 458.202 1216 457.828 1232.750 C 457.589 1243.449, 457.012 1250.288, 456.229 1251.680 C 451.084 1260.838, 434.912 1260.657, 430.516 1251.393 C 429.356 1248.949, 429 1244.414, 429 1232.099 L 429 1216 425.360 1216 L 421.720 1216 422.238 1232.250 M 477 1239.500 L 477 1263 480 1263 L 483 1263 483 1239.500 L 483 1216 480 1216 L 477 1216 477 1239.500 M 574 1239.500 L 574 1263 577 1263 L 580 1263 580 1239.500 L 580 1216 577 1216 L 574 1216 574 1239.500 M 776.237 1232.750 C 776.759 1250.505, 777.465 1253.743, 781.814 1258.339 C 786.018 1262.782, 789.815 1264.287, 796.995 1264.352 C 805.555 1264.431, 811.405 1261.386, 814.987 1254.987 C 817.350 1250.766, 817.519 1249.476, 817.848 1233.250 L 818.198 1216 815.214 1216 L 812.231 1216 811.846 1232.771 C 811.494 1248.149, 811.277 1249.802, 809.244 1252.658 C 803.503 1260.720, 789.933 1260.482, 784.833 1252.230 C 782.968 1249.212, 782.655 1246.841, 782.217 1232.401 L 781.720 1216 778.732 1216 L 775.744 1216 776.237 1232.750 M 957 1239.500 L 957 1263 960 1263 L 963 1263 963 1239.500 L 963 1216 960 1216 L 957 1216 957 1239.500 M 1152 1239.500 L 1152 1263 1155 1263 L 1158 1263 1158 1239.500 L 1158 1216 1155 1216 L 1152 1216 1152 1239.500 M 1188 1239.500 L 1188 1263 1191 1263 L 1194 1263 1194 1239.500 L 1194 1216 1191 1216 L 1188 1216 1188 1239.500 M 1233.470 1219.250 C 1234.222 1221.037, 1238.474 1230.557, 1242.919 1240.403 C 1247.363 1250.250, 1251 1258.848, 1251 1259.509 C 1251 1260.170, 1249.003 1265.276, 1246.563 1270.855 L 1242.127 1281 1245.382 1281 L 1248.638 1281 1260.501 1253.750 C 1267.025 1238.763, 1273.401 1224.138, 1274.669 1221.250 L 1276.975 1216 1273.724 1216 L 1270.474 1216 1262.555 1234.127 L 1254.636 1252.254 1251.025 1244.377 C 1249.039 1240.045, 1245.408 1231.898, 1242.957 1226.273 C 1238.645 1216.379, 1238.396 1216.044, 1235.301 1216.023 L 1232.102 1216 1233.470 1219.250 M 1110.637 1221.465 C 1102.814 1224.254, 1098 1231.124, 1098 1239.500 C 1098 1245.545, 1099.913 1249.838, 1104.338 1253.724 C 1109.201 1257.994, 1114.941 1259.504, 1120.747 1258.042 C 1126.802 1256.517, 1129.644 1254.464, 1132.541 1249.520 C 1135.369 1244.694, 1135.850 1236.970, 1133.649 1231.702 C 1131.863 1227.428, 1125.978 1222.365, 1121.277 1221.060 C 1116.498 1219.733, 1115.376 1219.776, 1110.637 1221.465 M 529.001 1222.123 C 515.930 1227.335, 514.268 1247.855, 526.273 1255.799 C 532.091 1259.650, 540.932 1259.628, 546.799 1255.749 C 549.088 1254.236, 551.869 1251.216, 552.980 1249.039 C 555.211 1244.665, 555.657 1236.869, 553.936 1232.315 C 552.489 1228.484, 548.174 1224.042, 544.282 1222.377 C 540.584 1220.795, 532.662 1220.663, 529.001 1222.123 M 662.481 1222.394 C 658.233 1224.245, 653.284 1230.231, 651.971 1235.107 C 647.621 1251.261, 666.661 1263.828, 681.222 1254.415 C 692.495 1247.127, 690.727 1227.544, 678.329 1222.364 C 674.233 1220.653, 666.443 1220.667, 662.481 1222.394 M 911.502 1222.575 C 904.861 1226.038, 901.060 1232.278, 901.022 1239.782 C 900.992 1245.648, 902.952 1249.831, 907.769 1254.177 C 916.707 1262.242, 931.255 1259.412, 936.381 1248.610 C 938.228 1244.718, 938.509 1236.477, 936.936 1232.315 C 935.633 1228.866, 931.425 1224.305, 927.800 1222.411 C 924.210 1220.536, 915.240 1220.626, 911.502 1222.575 M 1045.500 1222.417 C 1031.417 1228.704, 1031.387 1250.168, 1045.452 1256.977 C 1057.847 1262.977, 1072.047 1253.854, 1071.978 1239.934 C 1071.939 1232.113, 1067.134 1224.510, 1060.685 1222.067 C 1056.848 1220.613, 1049.144 1220.791, 1045.500 1222.417 M 379.744 1232.590 C 379.335 1232.999, 379 1238.658, 379 1245.167 L 379 1257 386.532 1257 C 390.825 1257, 395.546 1256.381, 397.510 1255.560 C 401.352 1253.955, 404.993 1248.817, 404.993 1245 C 404.993 1241.255, 401.376 1236.052, 397.728 1234.550 C 393.869 1232.960, 380.798 1231.536, 379.744 1232.590" stroke="none" fill="#2c872a" fill-rule="evenodd"/><path d="M 0 661.501 L 0 1323.001 827.250 1322.751 L 1654.500 1322.500 1654.751 661.250 L 1655.002 0 827.501 0 L 0 0 0 661.501 M 0.497 662 C 0.497 1025.825, 0.611 1174.663, 0.750 992.750 C 0.889 810.838, 0.889 513.163, 0.750 331.250 C 0.611 149.338, 0.497 298.175, 0.497 662 M 1083.500 47.588 C 1063.716 56.129, 1026.141 74.623, 1006.353 85.559 C 937.015 123.878, 865.076 175.662, 824.500 216.463 C 768.092 273.184, 730.886 323.383, 704.424 378.473 C 697.573 392.735, 686 420.668, 686 422.941 C 686 424.470, 685.689 424.401, 672.500 419.956 C 657.598 414.934, 643.787 411.388, 629.500 408.916 C 612.537 405.981, 610.955 406.616, 624.500 410.923 C 688.385 431.239, 746.340 458.086, 802.422 493.343 C 812.174 499.473, 815.463 501.103, 815.827 499.983 C 817.308 495.434, 838.858 454.432, 846.040 442.500 C 857.207 423.945, 882.286 386.188, 899.509 362 C 914.244 341.305, 945.984 298, 946.417 298 C 946.559 298, 932.660 326.012, 915.531 360.250 C 879.093 433.082, 857.128 481.025, 843.645 517.154 L 841.162 523.808 849.331 529.245 C 879.502 549.326, 908.313 579.060, 927.214 609.622 C 949.895 646.298, 965.133 693.404, 970.086 742.155 C 971.895 759.955, 971.014 759.319, 981.507 750.395 C 993.703 740.024, 1016.250 717.697, 1026.883 705.461 C 1061.544 665.577, 1087.600 619.219, 1105.551 565.500 C 1126.912 501.571, 1136.006 433.762, 1135.994 338.500 C 1135.983 252.209, 1127.743 173.718, 1108.960 81 C 1102.588 49.545, 1100.720 41.727, 1099.495 41.388 C 1098.948 41.236, 1091.750 44.026, 1083.500 47.588 M 597.134 477.234 C 590.779 507.858, 588.750 522.847, 586.919 552.718 C 585.230 580.264, 586.233 629.014, 588.889 648.500 C 597.315 710.307, 616.252 758.670, 648.705 801.265 C 658.513 814.138, 679.436 835.739, 692.500 846.480 C 736.137 882.358, 791.874 907.141, 828.500 906.952 L 835.500 906.916 817.997 901.073 C 767.234 884.125, 734.446 863.591, 698.920 826.500 C 676.516 803.108, 657.590 775.851, 641.611 743.960 C 618.448 697.734, 605.200 649.766, 598.814 589 C 596.794 569.779, 597.107 500.104, 599.308 479.097 C 600.253 470.075, 600.863 462.530, 600.664 462.331 C 600.465 462.131, 598.876 468.838, 597.134 477.234 M 751.319 573.149 C 800.985 634.365, 846.855 722.694, 871.982 805.500 C 891.092 868.478, 899.318 919.263, 904.056 1003.500 C 905.544 1029.955, 905.526 1085.828, 904.024 1104 C 902.958 1116.885, 900.075 1136.816, 898.441 1142.592 C 897.869 1144.613, 898.280 1144.706, 910.675 1145.338 C 917.729 1145.698, 930.969 1145.994, 940.098 1145.996 L 956.696 1146 957.301 1126.750 C 958.693 1082.415, 967.799 1029.881, 981.004 990 C 996.198 944.114, 1020.206 896.508, 1048.656 855.853 C 1081.111 809.474, 1128.621 759.128, 1161.015 736.786 L 1163.500 735.073 1160.129 736.176 C 1148.928 739.844, 1113.922 759.389, 1093.785 773.218 C 1027.206 818.944, 976.720 885.405, 955.320 955.500 C 952.339 965.263, 948.054 985.221, 947.912 990 C 947.855 991.925, 946.769 986.075, 945.498 977 C 940.137 938.720, 933.086 905.509, 922.464 868.500 C 889.285 752.906, 833.681 654.177, 759.700 579.500 L 741.868 561.500 751.319 573.149 M 1173.852 662.053 C 1135.809 665.299, 1106.884 683.435, 1090.434 714.358 C 1084.927 724.709, 1082.337 732.115, 1081.581 739.667 L 1080.997 745.500 1083.386 739 C 1090.998 718.295, 1099.505 706.143, 1114.851 694.056 C 1128.874 683.010, 1139.809 677.273, 1156.842 672.026 C 1171.481 667.516, 1182.626 665.875, 1203.500 665.155 L 1222.500 664.500 1213.500 663.273 C 1200.970 661.565, 1185.248 661.081, 1173.852 662.053 M 1229.122 681.199 C 1228.828 699.737, 1224.304 722.817, 1217.498 740.500 C 1203.800 776.086, 1175.392 802.697, 1144.250 809.113 C 1136.361 810.738, 1136.008 812.463, 1143.750 811.558 C 1163.464 809.254, 1183.144 799.815, 1197.859 785.606 C 1214.486 769.551, 1224.116 750.059, 1228.543 723.500 C 1230.483 711.859, 1231.408 687.186, 1230.193 679.500 L 1229.244 673.500 1229.122 681.199 M 787.866 926.966 C 780.327 931.959, 773.999 942.877, 775.403 948.470 C 776.433 952.574, 789.513 955.913, 797.347 954.071 C 804.813 952.316, 809.939 944.651, 809.978 935.184 C 810.005 928.623, 808.942 926.524, 804.872 925.105 C 798.956 923.043, 792.765 923.720, 787.866 926.966 M 1252.030 936.239 C 1247.800 938.448, 1245.387 943.395, 1243.032 954.684 C 1237.978 978.901, 1228.192 1017.131, 1226.594 1018.896 C 1224.919 1020.747, 1221.717 1021.140, 1189.112 1023.490 C 1185.599 1023.743, 1181.608 1024.682, 1180.244 1025.576 C 1178.039 1027.021, 1177.821 1027.715, 1178.283 1031.818 C 1178.681 1035.347, 1179.537 1037.091, 1181.917 1039.218 C 1183.630 1040.748, 1186.037 1042.007, 1187.266 1042.015 C 1192.804 1042.053, 1192.112 1043.589, 1182.236 1053.172 C 1159.745 1074.997, 1138.981 1086.213, 1123.775 1084.752 C 1117.573 1084.156, 1112.531 1080.240, 1108.558 1072.932 C 1103.891 1064.346, 1103.852 1055.520, 1108.394 1036 C 1110.377 1027.475, 1112 1018.625, 1112 1016.333 C 1112 1008.043, 1105.833 998.150, 1099.217 995.829 C 1097.039 995.065, 1090.946 994.520, 1084.500 994.512 C 1073.610 994.500, 1073.415 994.542, 1065 998.666 C 1037.756 1012.018, 1014.012 1040.700, 1003.462 1073 C 999.869 1084.001, 999.372 1100.462, 1002.387 1108.581 C 1008.180 1124.182, 1016.285 1128.538, 1031.129 1124.030 C 1047.060 1119.191, 1057.689 1112.113, 1076.612 1093.744 L 1088.723 1081.987 1090.482 1086.592 C 1091.509 1089.280, 1094.447 1093.404, 1097.540 1096.497 C 1104.414 1103.371, 1111.142 1106.005, 1121.788 1105.988 C 1140.184 1105.960, 1154.513 1098.449, 1179.955 1075.500 C 1194.497 1062.382, 1203.633 1051.956, 1205.217 1046.670 C 1206.557 1042.199, 1208.824 1041, 1215.943 1041 C 1223.967 1041, 1223.991 1041.181, 1219.032 1064.318 C 1216.653 1075.418, 1213.406 1090.575, 1211.816 1098 C 1208.027 1115.702, 1208.110 1128.868, 1212.059 1136.533 C 1215.189 1142.607, 1219.891 1146, 1225.180 1146 C 1232.439 1146, 1241 1140.877, 1241 1136.534 C 1241 1135.344, 1239.019 1132.472, 1236.476 1129.977 C 1233.817 1127.366, 1231.547 1124.031, 1230.968 1121.881 C 1229.102 1114.951, 1234.547 1082.337, 1242.378 1053.543 C 1246.542 1038.232, 1246.835 1037.554, 1249.609 1036.804 C 1253.258 1035.818, 1264.078 1034.483, 1284.597 1032.486 C 1301.503 1030.840, 1317.642 1027.643, 1327.172 1024.052 C 1334.597 1021.254, 1340.253 1015.270, 1339.808 1010.683 C 1339.541 1007.921, 1339.082 1007.459, 1336.342 1007.194 C 1334.605 1007.025, 1327.630 1008.061, 1320.842 1009.497 C 1294.669 1015.031, 1253.859 1017.945, 1250.988 1014.485 C 1248.758 1011.799, 1252.074 996.408, 1262.375 961.638 C 1265.828 949.982, 1265.950 941.241, 1262.702 938.190 C 1259.762 935.427, 1255.184 934.591, 1252.030 936.239 M 375.500 939.085 C 352.185 942.470, 331.071 949.021, 322.527 955.523 C 319.023 958.189, 318.462 959.166, 318.206 963.044 C 317.665 971.250, 321.137 972.783, 332.803 969.487 C 337.327 968.209, 339.412 968.012, 340.189 968.789 C 341.891 970.491, 342.508 1009.719, 341.045 1023.160 C 340.366 1029.397, 337.967 1045.075, 335.715 1058 C 331.949 1079.609, 331.615 1082.988, 331.560 1100 C 331.508 1115.890, 331.750 1118.957, 333.271 1121.741 C 335.572 1125.952, 339.077 1128.177, 344.769 1129.041 C 350.300 1129.880, 355.067 1128.707, 358.651 1125.623 L 361.306 1123.340 358.768 1117.920 C 351.801 1103.044, 352.134 1087.870, 360.534 1037.593 C 366.783 1000.187, 366.841 986.792, 360.833 968.186 C 359.712 964.713, 358.953 961.728, 359.147 961.551 C 360.035 960.743, 385.795 956.896, 397.370 955.843 C 423.983 953.422, 444.335 959.739, 457.964 974.651 C 463.378 980.575, 465.545 986.137, 464.463 991.334 C 462.728 999.669, 453.592 1009.493, 438 1019.790 C 419.436 1032.050, 403.882 1037.957, 384.849 1039.975 C 375.790 1040.936, 374.220 1041.387, 372.250 1043.592 C 369.181 1047.029, 369.352 1053.864, 372.646 1059.440 C 373.701 1061.226, 375.052 1061.384, 389.678 1061.440 L 405.563 1061.500 411.032 1065.400 C 414.039 1067.545, 427.467 1077.850, 440.872 1088.300 C 486.684 1124.015, 497.912 1130.945, 511.219 1131.720 C 517.400 1132.080, 519.179 1131.794, 522.991 1129.822 C 525.461 1128.545, 528.161 1126.216, 528.991 1124.647 C 530.378 1122.024, 530.352 1121.701, 528.668 1120.647 C 513.431 1111.111, 432.130 1055.197, 428.234 1051.573 C 427.238 1050.648, 428.737 1049.409, 435.234 1045.785 C 460.340 1031.783, 475.405 1018.427, 482.364 1004 C 485.227 998.065, 485.494 996.674, 485.430 988 C 485.350 977.043, 483.177 970.138, 477.449 962.637 C 473.663 957.678, 464.515 950.753, 456.309 946.633 C 438.869 937.876, 405.379 934.748, 375.500 939.085 M 618.844 996.322 C 610.048 999.519, 601.534 1004.787, 591.021 1013.536 C 569.669 1031.307, 551.395 1063.585, 548.539 1088.568 C 546.582 1105.699, 556.009 1124.458, 567.211 1125.720 C 573.277 1126.404, 582.243 1123.903, 592.887 1118.557 C 603.796 1113.078, 609.994 1108.215, 625.126 1093.265 L 636.752 1081.779 639.239 1087.139 C 642.464 1094.092, 648.019 1099.555, 655.500 1103.131 C 660.566 1105.552, 662.751 1105.999, 669.540 1105.999 C 690.147 1106.001, 707.506 1096.002, 736.925 1067.185 C 746.883 1057.431, 750.478 1053.197, 752.439 1048.913 C 755.764 1041.652, 756.648 1035.157, 754.672 1032.518 C 753.255 1030.625, 752.517 1031.213, 738.344 1045.530 C 711.619 1072.524, 691.547 1084.947, 674.588 1084.988 C 665.163 1085.011, 657.895 1078.326, 654.446 1066.464 C 652.303 1059.090, 652.960 1051.958, 657.544 1032.850 C 659.437 1024.957, 660.989 1017.323, 660.993 1015.884 C 660.997 1014.446, 659.369 1010.008, 657.375 1006.023 C 652.757 996.792, 649.365 995.012, 635.127 994.350 C 626.752 993.961, 624.635 994.218, 618.844 996.322 M 775 1006.083 C 769.902 1009.181, 767.046 1012.030, 764.959 1016.099 C 759.460 1026.820, 757.501 1072.533, 761.758 1090.776 C 766.127 1109.496, 775.743 1123.064, 787.013 1126.411 C 797.558 1129.543, 809.702 1127.691, 820.962 1121.234 C 837.164 1111.943, 865.700 1085.616, 882.180 1064.754 C 895.186 1048.290, 898.448 1040.244, 894.229 1035.034 L 892.458 1032.847 888.990 1037.173 C 876.883 1052.277, 854.404 1074.121, 838.907 1085.843 C 823.188 1097.732, 809.674 1104.140, 799.835 1104.368 C 790.835 1104.578, 787.310 1100.318, 783.965 1085.190 C 781.186 1072.623, 781.377 1055.865, 784.547 1034.277 C 785.948 1024.735, 786.960 1014.132, 786.797 1010.714 L 786.500 1004.500 782.500 1004.228 C 779.803 1004.044, 777.360 1004.648, 775 1006.083 M 622 1013.937 C 611.222 1017.236, 595.508 1030.920, 586.540 1044.814 C 580.233 1054.588, 571.630 1072.926, 569.480 1081.180 C 567.430 1089.056, 567.827 1097.561, 570.432 1101.537 C 572.118 1104.110, 572.535 1104.229, 578.084 1103.726 C 589.382 1102.702, 608.930 1090.943, 618.562 1079.377 C 631.961 1063.288, 637.529 1049.602, 638.667 1029.968 C 639.171 1021.259, 638.989 1018.879, 637.613 1016.218 C 636.023 1013.143, 635.694 1013.004, 630.224 1013.086 C 627.076 1013.133, 623.375 1013.516, 622 1013.937 M 1072.254 1014.460 C 1065.644 1016.525, 1059.112 1021.223, 1050.337 1030.224 C 1029.233 1051.872, 1014.598 1087.653, 1021.437 1100.879 C 1022.878 1103.665, 1023.530 1104, 1027.503 1104 C 1037.128 1104, 1052.755 1095.969, 1064.273 1085.104 C 1081.327 1069.016, 1090.113 1049.580, 1090.379 1027.357 C 1090.530 1014.709, 1089.457 1012.964, 1081.595 1013.067 C 1078.793 1013.104, 1074.589 1013.731, 1072.254 1014.460 M 569.250 1170.750 C 709.913 1170.890, 940.088 1170.890, 1080.750 1170.750 C 1221.413 1170.610, 1106.325 1170.496, 825 1170.496 C 543.675 1170.496, 428.588 1170.610, 569.250 1170.750 M 477.223 1197.557 C 474.805 1199.250, 474.291 1202.891, 476.200 1204.800 C 478.101 1206.701, 482.792 1206.258, 483.965 1204.066 C 485.435 1201.318, 485.269 1200.269, 483 1198 C 480.592 1195.592, 480.083 1195.553, 477.223 1197.557 M 573.881 1197.895 C 571.869 1199.525, 571.680 1200.191, 572.539 1202.645 C 574.327 1207.759, 582 1206.776, 582 1201.434 C 582 1199.408, 578.794 1196, 576.888 1196 C 576.522 1196, 575.168 1196.853, 573.881 1197.895 M 956.881 1197.895 C 954.869 1199.525, 954.680 1200.191, 955.539 1202.645 C 957.327 1207.759, 965 1206.776, 965 1201.434 C 965 1199.408, 961.794 1196, 959.888 1196 C 959.522 1196, 958.168 1196.853, 956.881 1197.895 M 1152.223 1197.557 C 1148.089 1200.452, 1149.914 1206, 1155 1206 C 1158.194 1206, 1160 1204.322, 1160 1201.357 C 1160 1199.450, 1156.780 1196, 1155 1196 C 1154.695 1196, 1153.445 1196.701, 1152.223 1197.557 M 1188.223 1197.557 C 1185.805 1199.250, 1185.291 1202.891, 1187.200 1204.800 C 1189.101 1206.701, 1193.792 1206.258, 1194.965 1204.066 C 1196.435 1201.318, 1196.269 1200.269, 1194 1198 C 1191.592 1195.592, 1191.083 1195.553, 1188.223 1197.557 M 495 1229.934 L 495 1263 498.014 1263 L 501.027 1263 500.764 1230.250 L 500.500 1197.500 497.750 1197.184 L 495 1196.867 495 1229.934 M 555 1210.696 L 555 1224.392 551.750 1221.247 C 547.449 1217.084, 542.194 1215, 536 1215 C 522.372 1215, 511.875 1225.610, 511.875 1239.383 C 511.875 1246.800, 513.460 1251.176, 518.030 1256.382 C 526.456 1265.978, 540.259 1267.265, 550.544 1259.414 L 555 1256.013 555 1259.507 C 555 1262.721, 555.239 1263, 558 1263 L 561 1263 561 1230 L 561 1197 558 1197 L 555 1197 555 1210.696 M 741.684 1198.457 C 734.896 1200.863, 731 1205.981, 731 1212.490 C 731 1218.601, 734.275 1223.275, 743.850 1230.827 C 754.423 1239.168, 757.455 1243.031, 757.455 1248.167 C 757.455 1255.164, 748.687 1260.770, 742.047 1258.020 C 738.955 1256.739, 733 1250.762, 733 1248.940 C 733 1248.395, 731.646 1248.649, 729.990 1249.505 C 727.109 1250.995, 727.041 1251.178, 728.401 1253.781 C 730.420 1257.645, 734.888 1261.638, 739.218 1263.447 C 750.940 1268.344, 764.385 1260.132, 764.385 1248.076 C 764.385 1241.417, 760.580 1235.404, 752.266 1228.924 C 740.221 1219.538, 738 1217.044, 738 1212.908 C 738 1207.312, 740.797 1204.500, 746.363 1204.500 C 750.248 1204.500, 751.452 1205.034, 754.702 1208.200 C 758.454 1211.855, 758.529 1211.878, 760.869 1210.106 C 762.873 1208.588, 763.063 1207.987, 762.105 1206.197 C 760.527 1203.247, 755.078 1199.285, 751.500 1198.485 C 749.850 1198.116, 747.825 1197.654, 747 1197.459 C 746.175 1197.264, 743.783 1197.713, 741.684 1198.457 M 1092.667 1197.667 C 1092.300 1198.033, 1092 1212.883, 1092 1230.667 L 1092 1263 1095 1263 C 1097.849 1263, 1098 1262.792, 1098 1258.873 L 1098 1254.745 1102.372 1258.775 C 1117.073 1272.326, 1141.393 1260.610, 1141.346 1240 C 1141.312 1225.382, 1131.345 1214.970, 1117.434 1215.022 C 1110.958 1215.046, 1104.722 1217.344, 1101.595 1220.859 C 1100.547 1222.036, 1099.310 1223, 1098.845 1223 C 1098.380 1223, 1098 1217.150, 1098 1210 C 1098 1197.048, 1097.991 1197, 1095.667 1197 C 1094.383 1197, 1093.033 1197.300, 1092.667 1197.667 M 1170 1230 L 1170 1263 1173 1263 L 1176 1263 1176 1230 L 1176 1197 1173 1197 L 1170 1197 1170 1230 M 872 1207 L 872 1216 867.500 1216 C 863.367 1216, 863 1216.204, 863 1218.500 C 863 1220.796, 863.367 1221, 867.500 1221 L 872 1221 872 1242 L 872 1263 875 1263 L 878 1263 878 1242 L 878 1221 882.500 1221 C 886.633 1221, 887 1220.796, 887 1218.500 C 887 1216.204, 886.633 1216, 882.500 1216 L 878 1216 878 1207 L 878 1198 875 1198 L 872 1198 872 1207 M 1212 1207 L 1212 1216 1208 1216 C 1204.400 1216, 1204 1216.250, 1204 1218.500 C 1204 1220.750, 1204.400 1221, 1208 1221 L 1212 1221 1212 1242 L 1212 1263 1215 1263 L 1218 1263 1218 1242 L 1218 1221 1223 1221 C 1227.667 1221, 1228 1220.833, 1228 1218.500 C 1228 1216.167, 1227.667 1216, 1223 1216 L 1218 1216 1218 1207 L 1218 1198 1215 1198 L 1212 1198 1212 1207 M 373 1231 L 373 1263 384.935 1263 C 397.920 1263, 401.026 1262.267, 405.339 1258.186 C 409.538 1254.214, 411 1250.730, 411 1244.698 C 411 1238.208, 408.306 1233.577, 402.705 1230.435 L 398.968 1228.339 401.086 1226.422 C 404.850 1223.015, 406.255 1219.086, 405.775 1213.304 C 405.412 1208.923, 404.729 1207.315, 402.058 1204.560 C 398.016 1200.390, 392.892 1199, 381.557 1199 L 373 1199 373 1231 M 379 1215.471 L 379 1226.233 385.489 1225.820 C 395.379 1225.190, 401.317 1219.585, 399.353 1212.734 C 398.003 1208.030, 394.411 1206.002, 386.207 1205.314 L 379 1204.710 379 1215.471 M 608.500 1216.339 C 606.850 1217.092, 604.038 1219.079, 602.250 1220.755 L 599 1223.802 599 1219.901 C 599 1216.233, 598.821 1216, 596 1216 L 593 1216 593 1239.500 L 593 1263 596 1263 L 599 1263 599.006 1249.750 C 599.012 1234.314, 600.018 1229.782, 604.413 1225.387 C 611.118 1218.682, 621.018 1218.936, 625.734 1225.933 C 627.866 1229.097, 628 1230.293, 628 1246.148 L 628 1263 631 1263 L 634 1263 633.978 1245.750 C 633.953 1226.231, 632.935 1222.226, 626.909 1217.935 C 622.866 1215.056, 613.157 1214.214, 608.500 1216.339 M 661.137 1216.369 C 656.314 1218.115, 650.324 1223.467, 647.765 1228.319 C 646.105 1231.465, 645.552 1234.252, 645.530 1239.578 C 645.504 1245.741, 645.892 1247.290, 648.526 1251.552 C 652.493 1257.968, 659.243 1262.190, 666.498 1262.791 C 674.110 1263.423, 678.150 1262.437, 683.954 1258.531 C 689.456 1254.828, 689.533 1254.915, 687.988 1263.061 C 686.285 1272.041, 680.782 1276, 670 1276 C 662.637 1276, 658.281 1274.311, 654.714 1270.072 C 652.583 1267.539, 651.384 1266.937, 648.967 1267.186 L 645.913 1267.500 648.843 1272.106 C 655.959 1283.291, 676.924 1285.477, 687.299 1276.115 C 693.996 1270.072, 694.319 1268.553, 694.797 1240.750 L 695.224 1216 692.112 1216 C 689.222 1216, 689 1216.250, 689 1219.500 C 689 1223.532, 688.090 1223.876, 685.405 1220.859 C 680.743 1215.619, 669.142 1213.472, 661.137 1216.369 M 834.143 1217.533 C 825.541 1224.771, 828.527 1235.180, 841.023 1241.512 C 846.191 1244.130, 850 1248.190, 850 1251.079 C 850 1252.074, 848.923 1254.141, 847.606 1255.672 C 844.461 1259.327, 838.547 1259.520, 833.942 1256.116 C 830.799 1253.792, 830.766 1253.789, 828.817 1255.739 C 826.868 1257.688, 826.875 1257.717, 829.973 1260.324 C 838.624 1267.603, 850.529 1265.159, 854.667 1255.255 C 857.528 1248.406, 854.590 1242.603, 845.614 1237.376 C 837.498 1232.649, 835 1230.203, 835 1226.981 C 835 1221.038, 843.184 1218.542, 848.875 1222.749 C 851.718 1224.851, 851.819 1224.857, 853.489 1223.012 C 855.606 1220.673, 854.929 1219.515, 849.972 1216.986 C 844.380 1214.133, 837.918 1214.356, 834.143 1217.533 M 908.168 1217.603 C 899.512 1221.917, 895 1229.643, 895 1240.152 C 895 1247.731, 897.494 1253.406, 903.017 1258.396 C 911.504 1266.063, 924.266 1266.496, 933.522 1259.431 L 938 1256.013 938 1259.507 C 938 1262.721, 938.239 1263, 941 1263 L 944 1263 944 1239.500 L 944 1216 941 1216 C 938.143 1216, 938 1216.200, 938 1220.196 L 938 1224.392 934.750 1221.247 C 927.739 1214.461, 917.336 1213.035, 908.168 1217.603 M 991.500 1216.339 C 989.850 1217.092, 987.038 1219.079, 985.250 1220.755 L 982 1223.802 982 1219.901 C 982 1216.233, 981.821 1216, 979 1216 L 976 1216 976 1239.500 L 976 1263 979 1263 L 982 1263 982.006 1249.750 C 982.012 1234.314, 983.018 1229.782, 987.413 1225.387 C 994.118 1218.682, 1004.018 1218.936, 1008.734 1225.933 C 1010.866 1229.097, 1011 1230.293, 1011 1246.148 L 1011 1263 1014 1263 L 1017 1263 1016.978 1245.750 C 1016.953 1226.231, 1015.935 1222.226, 1009.909 1217.935 C 1005.866 1215.056, 996.157 1214.214, 991.500 1216.339 M 1044.137 1216.369 C 1028.456 1222.044, 1023.407 1243.590, 1034.802 1256.203 C 1043.659 1266.006, 1057.172 1267.331, 1067.544 1259.414 L 1072 1256.013 1072 1259.507 C 1072 1262.721, 1072.239 1263, 1075 1263 L 1078 1263 1078 1239.500 L 1078 1216 1075 1216 C 1072.143 1216, 1072 1216.200, 1072 1220.196 L 1072 1224.392 1068.750 1221.247 C 1066.963 1219.517, 1063.827 1217.404, 1061.782 1216.551 C 1057.418 1214.731, 1048.907 1214.643, 1044.137 1216.369 M 422.238 1232.250 C 422.823 1250.573, 424.003 1255.039, 429.543 1259.904 C 437.004 1266.454, 450.964 1266.036, 457.947 1259.053 C 462.973 1254.027, 464 1249.276, 464 1231.057 L 464 1216 461.101 1216 L 458.202 1216 457.828 1232.750 C 457.589 1243.449, 457.012 1250.288, 456.229 1251.680 C 451.084 1260.838, 434.912 1260.657, 430.516 1251.393 C 429.356 1248.949, 429 1244.414, 429 1232.099 L 429 1216 425.360 1216 L 421.720 1216 422.238 1232.250 M 477 1239.500 L 477 1263 480 1263 L 483 1263 483 1239.500 L 483 1216 480 1216 L 477 1216 477 1239.500 M 574 1239.500 L 574 1263 577 1263 L 580 1263 580 1239.500 L 580 1216 577 1216 L 574 1216 574 1239.500 M 776.237 1232.750 C 776.759 1250.505, 777.465 1253.743, 781.814 1258.339 C 786.018 1262.782, 789.815 1264.287, 796.995 1264.352 C 805.555 1264.431, 811.405 1261.386, 814.987 1254.987 C 817.350 1250.766, 817.519 1249.476, 817.848 1233.250 L 818.198 1216 815.214 1216 L 812.231 1216 811.846 1232.771 C 811.494 1248.149, 811.277 1249.802, 809.244 1252.658 C 803.503 1260.720, 789.933 1260.482, 784.833 1252.230 C 782.968 1249.212, 782.655 1246.841, 782.217 1232.401 L 781.720 1216 778.732 1216 L 775.744 1216 776.237 1232.750 M 957 1239.500 L 957 1263 960 1263 L 963 1263 963 1239.500 L 963 1216 960 1216 L 957 1216 957 1239.500 M 1152 1239.500 L 1152 1263 1155 1263 L 1158 1263 1158 1239.500 L 1158 1216 1155 1216 L 1152 1216 1152 1239.500 M 1188 1239.500 L 1188 1263 1191 1263 L 1194 1263 1194 1239.500 L 1194 1216 1191 1216 L 1188 1216 1188 1239.500 M 1233.470 1219.250 C 1234.222 1221.037, 1238.474 1230.557, 1242.919 1240.403 C 1247.363 1250.250, 1251 1258.848, 1251 1259.509 C 1251 1260.170, 1249.003 1265.276, 1246.563 1270.855 L 1242.127 1281 1245.382 1281 L 1248.638 1281 1260.501 1253.750 C 1267.025 1238.763, 1273.401 1224.138, 1274.669 1221.250 L 1276.975 1216 1273.724 1216 L 1270.474 1216 1262.555 1234.127 L 1254.636 1252.254 1251.025 1244.377 C 1249.039 1240.045, 1245.408 1231.898, 1242.957 1226.273 C 1238.645 1216.379, 1238.396 1216.044, 1235.301 1216.023 L 1232.102 1216 1233.470 1219.250 M 1110.637 1221.465 C 1102.814 1224.254, 1098 1231.124, 1098 1239.500 C 1098 1245.545, 1099.913 1249.838, 1104.338 1253.724 C 1109.201 1257.994, 1114.941 1259.504, 1120.747 1258.042 C 1126.802 1256.517, 1129.644 1254.464, 1132.541 1249.520 C 1135.369 1244.694, 1135.850 1236.970, 1133.649 1231.702 C 1131.863 1227.428, 1125.978 1222.365, 1121.277 1221.060 C 1116.498 1219.733, 1115.376 1219.776, 1110.637 1221.465 M 529.001 1222.123 C 515.930 1227.335, 514.268 1247.855, 526.273 1255.799 C 532.091 1259.650, 540.932 1259.628, 546.799 1255.749 C 549.088 1254.236, 551.869 1251.216, 552.980 1249.039 C 555.211 1244.665, 555.657 1236.869, 553.936 1232.315 C 552.489 1228.484, 548.174 1224.042, 544.282 1222.377 C 540.584 1220.795, 532.662 1220.663, 529.001 1222.123 M 662.481 1222.394 C 658.233 1224.245, 653.284 1230.231, 651.971 1235.107 C 647.621 1251.261, 666.661 1263.828, 681.222 1254.415 C 692.495 1247.127, 690.727 1227.544, 678.329 1222.364 C 674.233 1220.653, 666.443 1220.667, 662.481 1222.394 M 911.502 1222.575 C 904.861 1226.038, 901.060 1232.278, 901.022 1239.782 C 900.992 1245.648, 902.952 1249.831, 907.769 1254.177 C 916.707 1262.242, 931.255 1259.412, 936.381 1248.610 C 938.228 1244.718, 938.509 1236.477, 936.936 1232.315 C 935.633 1228.866, 931.425 1224.305, 927.800 1222.411 C 924.210 1220.536, 915.240 1220.626, 911.502 1222.575 M 1045.500 1222.417 C 1031.417 1228.704, 1031.387 1250.168, 1045.452 1256.977 C 1057.847 1262.977, 1072.047 1253.854, 1071.978 1239.934 C 1071.939 1232.113, 1067.134 1224.510, 1060.685 1222.067 C 1056.848 1220.613, 1049.144 1220.791, 1045.500 1222.417 M 379.744 1232.590 C 379.335 1232.999, 379 1238.658, 379 1245.167 L 379 1257 386.532 1257 C 390.825 1257, 395.546 1256.381, 397.510 1255.560 C 401.352 1253.955, 404.993 1248.817, 404.993 1245 C 404.993 1241.255, 401.376 1236.052, 397.728 1234.550 C 393.869 1232.960, 380.798 1231.536, 379.744 1232.590" stroke="none" fill="transparent" fill-rule="evenodd"/></svg>